<svg id="Capa_1" enable-background="new 0 0 512 512" height="512" viewBox="0 0 512 512" width="512" xmlns="http://www.w3.org/2000/svg"><g><g><path d="m33.301 469.034v22.999c0 5.69 4.612 10.302 10.302 10.302h41.835c5.69 0 10.302-4.612 10.302-10.302v-22.999z" fill="#2b3890"/></g><g><path d="m416.26 469.034v22.999c0 5.69 4.612 10.302 10.302 10.302h41.835c5.69 0 10.302-4.612 10.302-10.302v-22.999z" fill="#2b3890"/></g><g><path d="m435.565 71.995-10.98 280.486h45.789l-9.98-280.442c-.238-6.685-5.726-11.981-12.415-11.981-6.672 0-12.153 5.271-12.414 11.937z" fill="#a2aae2"/></g><g><path d="m425.604 326.465-1.019 26.016h45.789l-.926-26.016z" fill="#8993da"/></g><g><path d="m76.435 71.995 10.98 280.486h-45.789l9.98-280.442c.238-6.685 5.726-11.981 12.415-11.981 6.672 0 12.153 5.271 12.414 11.937z" fill="#a2aae2"/></g><g><path d="m86.396 326.465 1.019 26.016h-45.789l.926-26.016z" fill="#8993da"/></g><g><path d="m501.698 469.034h-491.396c-5.69 0-10.302-4.612-10.302-10.302v-95.949c0-5.69 4.612-10.302 10.302-10.302h491.396c5.69 0 10.302 4.612 10.302 10.302v95.949c0 5.69-4.612 10.302-10.302 10.302z" fill="#5766cb"/></g><g><path d="m493.268 352.481v87.415c0 5.747-4.659 10.407-10.406 10.407h-482.862v8.43c0 5.69 4.612 10.302 10.302 10.302h491.396c5.69 0 10.302-4.612 10.302-10.302v-95.949c0-5.69-4.612-10.302-10.302-10.302h-8.43z" fill="#3d4fc3"/></g><g><g><path d="m426.667 394.107h52.033v33.301h-52.033z" fill="#2b3890"/></g></g><g><g><path d="m387.185 427.408h-39.67c-3.414 0-6.181-2.767-6.181-6.181v-20.939c0-3.414 2.767-6.181 6.181-6.181h39.67c3.414 0 6.181 2.767 6.181 6.181v20.939c0 3.414-2.768 6.181-6.181 6.181z" fill="#2b3890"/></g></g><g><g><path d="m301.851 427.408h-39.67c-3.414 0-6.181-2.767-6.181-6.181v-20.939c0-3.414 2.767-6.181 6.181-6.181h39.67c3.414 0 6.181 2.767 6.181 6.181v20.939c.001 3.414-2.767 6.181-6.181 6.181z" fill="#2b3890"/></g></g><g><g><circle cx="116.553" cy="410.758" fill="#95d6a4" r="16.65"/></g><g><circle cx="49.951" cy="410.758" fill="#95d6a4" r="16.65"/></g></g><g><g><g><g><g><path d="m322.692 251.451c5.872-11.175 9.022-24.002 8.549-37.609-1.383-39.836-34.18-71.98-74.036-72.603-42.132-.659-76.492 33.297-76.492 75.278 0 12.602 3.104 24.475 8.581 34.908 3.712 7.07 2.377 15.732-3.269 21.378-3.564 3.564-3.564 9.342 0 12.906l9.338 9.338c3.531 3.531 9.441 3.76 12.823.086 1.604-1.743 4.466-.597 4.466 1.73v13.192c0 5.04 4.086 9.126 9.126 9.126h34.222 34.221c5.04 0 9.126-4.086 9.126-9.126v-13.192c0-2.327 2.862-3.473 4.466-1.73 3.383 3.674 9.292 3.446 12.823-.086l9.338-9.338c3.564-3.564 3.564-9.342 0-12.906-5.638-5.639-6.992-14.293-3.282-21.352z" fill="#f4fbff"/></g><g><path d="m322.692 251.451c5.872-11.175 9.022-24.002 8.549-37.61-.464-13.359-4.474-25.844-11.085-36.574.002.25.01.499.01.75 0 57.172-46.347 103.52-103.52 103.52-11.454 0-22.471-1.864-32.771-5.299-1.121 3.205-.412 6.909 2.15 9.471l9.338 9.338c3.531 3.532 9.441 3.76 12.823.086 1.604-1.743 4.466-.597 4.466 1.73v13.192c0 5.04 4.086 9.126 9.126 9.126h34.222 34.221c5.04 0 9.126-4.086 9.126-9.126v-13.192c0-2.327 2.862-3.473 4.466-1.73 3.383 3.674 9.292 3.446 12.823-.086l9.338-9.338c3.564-3.564 3.564-9.342 0-12.906-5.638-5.639-6.992-14.293-3.282-21.352z" fill="#ddeafb"/></g></g></g></g></g><g><path d="m298.467 242.498c0 8.331-6.753 15.084-15.084 15.084s-15.084-6.753-15.084-15.084 7.32-12.064 15.084-15.084c16.97-6.599 15.084 6.754 15.084 15.084z" fill="#2b3890"/></g><g><path d="m213.533 242.498c0 8.331 6.753 15.084 15.084 15.084s15.084-6.753 15.084-15.084-7.32-12.064-15.084-15.084c-16.97-6.599-15.084 6.754-15.084 15.084z" fill="#2b3890"/></g><g><path d="m270.569 284.423c0 8.046-6.523 8.741-14.569 8.741s-14.569-.695-14.569-8.741 6.523-20.397 14.569-20.397 14.569 12.35 14.569 20.397z" fill="#2b3890"/></g><g><g><path d="m317.799 54.901c-2.268 0-4.515-.993-6.041-2.902-13.652-17.083-33.975-26.881-55.758-26.881s-42.106 9.798-55.758 26.881c-2.664 3.332-7.526 3.875-10.859 1.212-3.333-2.664-3.876-7.526-1.212-10.86 16.601-20.773 41.323-32.686 67.829-32.686s51.228 11.913 67.829 32.686c2.664 3.334 2.121 8.196-1.212 10.86-1.424 1.138-3.127 1.69-4.818 1.69z" fill="#b1e4f9"/></g></g><g><g><path d="m294.001 78.702c-2.486 0-4.928-1.198-6.419-3.416-7.101-10.562-18.907-16.867-31.582-16.867s-24.481 6.306-31.582 16.867c-2.382 3.541-7.182 4.483-10.723 2.101-3.541-2.38-4.482-7.181-2.101-10.722 9.977-14.839 26.577-23.698 44.406-23.698s34.429 8.859 44.406 23.698c2.381 3.541 1.44 8.342-2.101 10.722-1.323.889-2.822 1.315-4.304 1.315z" fill="#b1e4f9"/></g></g><g><g><circle cx="256" cy="96.481" fill="#b1e4f9" r="12.488"/></g></g></g></svg>