<?xml version="1.0"?>
<svg xmlns="http://www.w3.org/2000/svg" xmlns:xlink="http://www.w3.org/1999/xlink" xmlns:svgjs="http://svgjs.com/svgjs" version="1.1" width="512" height="512" x="0" y="0" viewBox="0 0 508.014 508.014" style="enable-background:new 0 0 512 512" xml:space="preserve" class=""><g>
<g xmlns="http://www.w3.org/2000/svg">
	<g>
		<path d="M497.6,375.757l-32.7-32.7v-278.5H0v310h160.5l-37.2,48.1c-5,5.9-4.1,20,10.4,20.8h197.7c14.2-1.3,14.9-15.4,10.4-20.8    l-37.2-48.1H399l49.9,49.9c21.5,19,42.2,6.5,48.7,0C504.2,417.957,517.3,396.957,497.6,375.757z M322.7,426.157H142.3l40-51.7    h100.4L322.7,426.157z M17.2,357.357v-0.1v-275.5h430.5v244l-31.9-31.9l-6.1,6.1l-11.7-11.7c14.9-19,23.8-42.9,23.8-68.8    c0-61.7-50.2-111.9-111.9-111.9s-111.9,50.2-111.9,112s50.2,111.9,112,111.9c17,0,33-3.9,47.5-10.7l15.8,15.8l-6.1,6.1l14.7,14.7    H17.2z M245.4,228.257v-0.1l19-25.3l27.2,72.7l27-53.9l24.4,48.7l31.6-42.1h29.7c-4.4,48.2-45,86.1-94.3,86.1    c-49.3,0-89.9-37.9-94.3-86.1H245.4z M215.7,210.857c4.4-48.2,45-86.1,94.3-86.1s89.9,37.9,94.3,86.1H366l-20.1,26.7l-27.3-54.6    l-24.7,49.4l-24.4-65.1l-32.7,43.6H215.7z M373,311.957c4.8-3.3,9.2-7,13.4-10.9l11.1,11.1l-12.1,12.2L373,311.957z     M485.5,412.257c-6.5,6.5-17.8,6.5-24.4,0l-69.6-69.7l24.4-24.4l69.6,69.7C495,397.957,488.7,408.957,485.5,412.257z" fill="#5967d4" data-original="#000000" style="" class=""/>
	</g>
</g>
<g xmlns="http://www.w3.org/2000/svg">
	<g>
		<path d="M120.6,133.357v-25.8H68.9v25.8H43.1v51.7h25.8v25.8h51.7v-25.8h25.8v-51.7H120.6z M129.1,167.857h-25.8v25.8H86.1v-25.8    H60.3v-17.2h25.8v-25.8h17.2v25.8h25.8V167.857z" fill="#5967d4" data-original="#000000" style="" class=""/>
	</g>
</g>
<g xmlns="http://www.w3.org/2000/svg">
	<g>
		<rect x="43.1" y="253.957" width="137.8" height="17.2" fill="#5967d4" data-original="#000000" style="" class=""/>
	</g>
</g>
<g xmlns="http://www.w3.org/2000/svg">
	<g>
		<rect x="43.1" y="305.657" width="77.5" height="17.2" fill="#5967d4" data-original="#000000" style="" class=""/>
	</g>
</g>
<g xmlns="http://www.w3.org/2000/svg">
</g>
<g xmlns="http://www.w3.org/2000/svg">
</g>
<g xmlns="http://www.w3.org/2000/svg">
</g>
<g xmlns="http://www.w3.org/2000/svg">
</g>
<g xmlns="http://www.w3.org/2000/svg">
</g>
<g xmlns="http://www.w3.org/2000/svg">
</g>
<g xmlns="http://www.w3.org/2000/svg">
</g>
<g xmlns="http://www.w3.org/2000/svg">
</g>
<g xmlns="http://www.w3.org/2000/svg">
</g>
<g xmlns="http://www.w3.org/2000/svg">
</g>
<g xmlns="http://www.w3.org/2000/svg">
</g>
<g xmlns="http://www.w3.org/2000/svg">
</g>
<g xmlns="http://www.w3.org/2000/svg">
</g>
<g xmlns="http://www.w3.org/2000/svg">
</g>
<g xmlns="http://www.w3.org/2000/svg">
</g>
</g></svg>
