<?xml version="1.0"?>
<svg xmlns="http://www.w3.org/2000/svg" xmlns:xlink="http://www.w3.org/1999/xlink" xmlns:svgjs="http://svgjs.com/svgjs" version="1.1" width="512" height="512" x="0" y="0" viewBox="0 0 512 512" style="enable-background:new 0 0 512 512" xml:space="preserve" class=""><g><path xmlns="http://www.w3.org/2000/svg" d="m512 256c0 141.386719-114.613281 256-256 256s-256-114.613281-256-256 114.613281-256 256-256 256 114.613281 256 256zm0 0" fill="#ffffff" data-original="#e4edfb" style="" class=""/><path xmlns="http://www.w3.org/2000/svg" d="m452.640625 419.679688c-47.039063 56.320312-117.761719 92.320312-196.640625 92.320312s-149.601562-36-196.640625-92.320312l116.640625-31.839844v-30.558594l-48-64v-101.28125c0-34.238281 13.28125-66.398438 37.441406-90.558594s56.320313-37.441406 90.558594-37.441406c70.558594 0 128 57.441406 128 128v101.28125l-48 64v30.558594zm0 0" fill="#5f6ccf" data-original="#53bdf2" style="" class=""/><path xmlns="http://www.w3.org/2000/svg" d="m288 288h-64v-96h32v64h32zm0 0" fill="#081576" data-original="#40a2e7" style="" class=""/><path xmlns="http://www.w3.org/2000/svg" d="m288 112h32v32h-32zm0 0" fill="#ffffff" data-original="#ffffff" style="" class=""/></g></svg>
