<?xml version="1.0" encoding="iso-8859-1"?>
<!-- Generator: Adobe Illustrator 19.0.0, SVG Export Plug-In . SVG Version: 6.00 Build 0)  -->
<svg xmlns="http://www.w3.org/2000/svg" xmlns:xlink="http://www.w3.org/1999/xlink" version="1.1" id="Layer_1" x="0px" y="0px" viewBox="0 0 512 512" style="enable-background:new 0 0 512 512;" xml:space="preserve">
<g>
	<g>
		<path d="M503.706,352.759c4.581,0,8.294-3.712,8.294-8.294V52.527c0-9.452-7.689-17.14-17.14-17.14H17.14    C7.689,35.387,0,43.075,0,52.527v406.946c0,9.452,7.689,17.14,17.14,17.14H494.86c9.452,0,17.14-7.689,17.14-17.14v-70.769    c0-4.581-3.712-8.294-8.294-8.294s-8.294,3.712-8.294,8.294v70.769c0,0.304-0.249,0.553-0.553,0.553H17.14    c-0.304,0-0.553-0.249-0.553-0.553V140.441h478.825v204.025C495.413,349.047,499.125,352.759,503.706,352.759z M16.587,123.853    V52.527c0-0.304,0.249-0.553,0.553-0.553H494.86c0.304,0,0.553,0.249,0.553,0.553v71.326H16.587z"/>
	</g>
</g>
<g>
	<g>
		<path d="M450.626,61.927c-14.329,0-25.987,11.658-25.987,25.987c0,14.329,11.658,25.987,25.987,25.987    c14.329,0,25.987-11.658,25.987-25.987C476.613,73.584,464.956,61.927,450.626,61.927z M450.626,97.313    c-5.183,0-9.4-4.217-9.4-9.4c0-5.183,4.217-9.4,9.4-9.4s9.4,4.217,9.4,9.4C460.026,93.097,455.809,97.313,450.626,97.313z"/>
	</g>
</g>
<g>
	<g>
		<path d="M379.853,61.927c-14.329,0-25.987,11.658-25.987,25.987c0,14.329,11.658,25.987,25.987,25.987    c14.329,0,25.987-11.658,25.987-25.987C405.84,73.584,394.182,61.927,379.853,61.927z M379.853,97.313c-5.183,0-9.4-4.217-9.4-9.4    c0-5.183,4.217-9.4,9.4-9.4s9.4,4.217,9.4,9.4C389.253,93.097,385.036,97.313,379.853,97.313z"/>
	</g>
</g>
<g>
	<g>
		<path d="M309.08,61.927c-14.329,0-25.987,11.658-25.987,25.987c0,14.329,11.658,25.987,25.987,25.987    c14.329,0,25.987-11.658,25.987-25.987C335.067,73.584,323.409,61.927,309.08,61.927z M309.08,97.313c-5.183,0-9.4-4.217-9.4-9.4    c0-5.183,4.216-9.4,9.4-9.4s9.4,4.217,9.4,9.4C318.479,93.097,314.263,97.313,309.08,97.313z"/>
	</g>
</g>
<g>
	<g>
		<path d="M149.84,88.466H43.68c-4.581,0-8.294,3.712-8.294,8.294s3.712,8.294,8.294,8.294h106.16c4.581,0,8.294-3.712,8.294-8.294    S154.422,88.466,149.84,88.466z"/>
	</g>
</g>
<g>
	<g>
		<path d="M220.613,88.466h-26.54c-4.581,0-8.294,3.712-8.294,8.294s3.712,8.294,8.294,8.294h26.54c4.581,0,8.294-3.712,8.294-8.294    S225.195,88.466,220.613,88.466z"/>
	</g>
</g>
<g>
	<g>
		<path d="M256,176.933c-20.121,0-39.912,5.297-57.233,15.318c-3.964,2.293-5.32,7.368-3.026,11.333    c2.295,3.966,7.367,5.319,11.333,3.026c14.8-8.562,31.717-13.089,48.926-13.089c53.964,0,97.866,43.903,97.866,97.866    S309.964,389.253,256,389.253s-97.866-43.903-97.866-97.866c0-19.354,5.639-38.066,16.305-54.111    c2.537-3.814,1.5-8.962-2.315-11.497c-3.814-2.536-8.963-1.501-11.497,2.315c-12.483,18.774-19.081,40.66-19.081,63.293    c0,63.11,51.344,114.454,114.454,114.454s114.454-51.344,114.454-114.454S319.11,176.933,256,176.933z"/>
	</g>
</g>
<g>
	<g>
		<path d="M309.08,265.4H202.92c-4.581,0-8.294,3.712-8.294,8.294v35.387c0,4.581,3.712,8.294,8.294,8.294h106.16    c4.581,0,8.294-3.712,8.294-8.294v-35.387C317.374,269.112,313.661,265.4,309.08,265.4z M300.786,300.786h-89.572v-18.799h89.572    V300.786z"/>
	</g>
</g>
<g>
	<g>
		<path d="M406.393,176.933h-26.54c-4.581,0-8.294,3.712-8.294,8.294c0,4.581,3.712,8.294,8.294,8.294h26.54    c4.581,0,8.294-3.712,8.294-8.294C414.687,180.645,410.975,176.933,406.393,176.933z"/>
	</g>
</g>
<g>
	<g>
		<path d="M468.32,176.933h-35.387c-4.581,0-8.294,3.712-8.294,8.294c0,4.581,3.712,8.294,8.294,8.294h35.387    c4.581,0,8.294-3.712,8.294-8.294C476.613,180.645,472.901,176.933,468.32,176.933z"/>
	</g>
</g>
<g>
	<g>
		<path d="M468.32,212.32h-70.773c-4.581,0-8.294,3.712-8.294,8.294c0,4.581,3.712,8.294,8.294,8.294h70.773    c4.581,0,8.294-3.712,8.294-8.294C476.613,216.032,472.901,212.32,468.32,212.32z"/>
	</g>
</g>
<g>
	<g>
		<path d="M96.76,371.559H43.68c-4.581,0-8.294,3.712-8.294,8.294c0,4.581,3.712,8.294,8.294,8.294h53.08    c4.581,0,8.294-3.712,8.294-8.294C105.054,375.272,101.342,371.559,96.76,371.559z"/>
	</g>
</g>
<g>
	<g>
		<path d="M140.994,371.559H123.3c-4.581,0-8.294,3.712-8.294,8.294c0,4.581,3.712,8.294,8.294,8.294h17.693    c4.581,0,8.294-3.712,8.294-8.294C149.287,375.272,145.575,371.559,140.994,371.559z"/>
	</g>
</g>
<g>
	<g>
		<path d="M105.607,406.946H43.68c-4.581,0-8.294,3.712-8.294,8.294c0,4.581,3.712,8.294,8.294,8.294h61.927    c4.581,0,8.294-3.712,8.294-8.294C113.901,410.658,110.188,406.946,105.607,406.946z"/>
	</g>
</g>
<g>
</g>
<g>
</g>
<g>
</g>
<g>
</g>
<g>
</g>
<g>
</g>
<g>
</g>
<g>
</g>
<g>
</g>
<g>
</g>
<g>
</g>
<g>
</g>
<g>
</g>
<g>
</g>
<g>
</g>
</svg>
