<?xml version="1.0" encoding="iso-8859-1"?>
<!-- Generator: Adobe Illustrator 19.0.0, SVG Export Plug-In . SVG Version: 6.00 Build 0)  -->
<svg xmlns="http://www.w3.org/2000/svg" xmlns:xlink="http://www.w3.org/1999/xlink" version="1.1" id="Layer_1" x="0px" y="0px" viewBox="0 0 512 512" style="enable-background:new 0 0 512 512;" xml:space="preserve">
<g>
	<g>
		<path d="M157.662,25.653c-13.851,0-25.119,11.268-25.119,25.119c0,13.851,11.268,25.119,25.119,25.119    s25.119-11.268,25.119-25.119C182.781,36.922,171.513,25.653,157.662,25.653z M157.662,59.858c-5.01,0-9.086-4.076-9.086-9.086    c0-5.01,4.076-9.086,9.086-9.086s9.086,4.076,9.086,9.086C166.747,55.782,162.672,59.858,157.662,59.858z"/>
	</g>
</g>
<g>
	<g>
		<path d="M174.764,470.313H140.56c-4.428,0-8.017,3.588-8.017,8.017c0,4.428,3.588,8.017,8.017,8.017h34.205    c4.428,0,8.017-3.588,8.017-8.017C182.781,473.901,179.193,470.313,174.764,470.313z"/>
	</g>
</g>
<g>
	<g>
		<path d="M234.622,290.739H80.701c-4.358,0-8.017,3.662-8.017,8.017V401.37c0,4.428,3.588,8.017,8.017,8.017h153.921    c4.428,0,8.017-3.588,8.017-8.017V298.756C242.639,294.401,238.98,290.739,234.622,290.739z M211.257,306.772l-53.595,41.685    l-53.595-41.685H211.257z M226.605,393.353H88.718v-78.207l64.022,49.794c2.861,2.227,6.982,2.227,9.843,0l64.021-49.794V393.353z    "/>
	</g>
</g>
<g>
	<g>
		<path d="M462.122,63.295c-3.54-2.658-8.565-1.945-11.226,1.593c-2.659,3.54-1.946,8.566,1.593,11.226    c24.914,18.721,39.202,45.326,39.202,72.998c0,54.519-53.945,98.873-120.251,98.873c-20.497,0-40.74-4.329-58.543-12.519    c-1.92-0.883-4.106-0.971-6.091-0.251l-60.511,22.004l27.577-41.365c1.997-2.995,1.753-6.954-0.599-9.682    c-14.447-16.759-22.084-36.491-22.084-57.06c0-54.519,53.945-98.873,120.25-98.873c13.837,0,27.4,1.919,40.312,5.704    c4.253,1.243,8.703-1.189,9.948-5.439c1.245-4.249-1.19-8.703-5.439-9.948c-14.378-4.214-29.458-6.35-44.822-6.35    c-21.675,0-42.18,4.296-60.392,11.919V25.119C311.048,11.268,299.78,0,285.929,0H29.395C15.544,0,4.276,11.268,4.276,25.119    v334.564c0,4.428,3.588,8.017,8.017,8.017c4.428,0,8.017-3.588,8.017-8.017V101.545h227.083    c-7.853,14.502-12.236,30.61-12.236,47.566c0,22.529,7.615,44.112,22.089,62.778l-37.844,56.767    c-1.833,2.75-1.768,6.45,0.165,9.132c2.074,2.879,5.908,4.062,9.246,2.85l66.203-24.075V444.66H20.309v-43.29    c0-4.428-3.588-8.017-8.017-8.017c-4.428,0-8.017,3.588-8.017,8.017v85.512C4.276,500.732,15.544,512,29.395,512h256.534    c13.851,0,25.119-11.268,25.119-25.119V252.14c18.671,7.774,39.43,11.876,60.392,11.876c75.148,0,136.284-51.547,136.284-114.906    C507.724,116.351,491.103,85.072,462.122,63.295z M20.309,85.511V25.119c0-5.01,4.076-9.086,9.086-9.086h256.534    c5.01,0,9.086,4.076,9.086,9.086v28.863c0,0.013,0.002,0.024,0.002,0.036c-14.734,8.444-27.405,19.259-37.251,31.786    c-0.678-0.185-1.386-0.293-2.122-0.293H20.309z M295.015,486.881c0,5.01-4.076,9.086-9.086,9.086H29.395    c-5.01,0-9.086-4.076-9.086-9.086v-26.188h274.706V486.881z"/>
	</g>
</g>
<g>
	<g>
		<path d="M371.44,128.267c-13.851,0-25.119,11.268-25.119,25.119s11.268,25.119,25.119,25.119    c13.851,0,25.119-11.268,25.119-25.119S385.291,128.267,371.44,128.267z M371.44,162.472c-5.01,0-9.086-4.076-9.086-9.086    s4.076-9.086,9.086-9.086c5.01,0,9.086,4.076,9.086,9.086S376.45,162.472,371.44,162.472z"/>
	</g>
</g>
<g>
	<g>
		<path d="M413.931,79.807c-12.885-7.456-27.578-11.398-42.491-11.398c-14.912,0-29.605,3.942-42.491,11.398    c-3.83,2.216-5.14,7.115-2.928,10.947l17.1,29.618c1.064,1.843,2.817,3.187,4.87,3.736c2.054,0.552,4.246,0.261,6.086-0.805    c5.265-3.045,11.269-4.655,17.362-4.655s12.097,1.61,17.361,4.655c3.784,2.188,8.775,0.849,10.957-2.931l17.1-29.618    C419.07,86.921,417.761,82.023,413.931,79.807z M389.565,105.961c-5.765-2.202-11.913-3.347-18.124-3.347    c-6.211,0-12.36,1.145-18.124,3.348l-9.169-15.881c8.584-3.705,17.884-5.638,27.293-5.638s18.709,1.934,27.293,5.637    L389.565,105.961z"/>
	</g>
</g>
<g>
	<g>
		<path d="M354.067,183.463c-5.268-3.035-9.663-7.428-12.711-12.707v-0.001c-3.048-5.277-4.655-11.28-4.65-17.36    c0.004-4.369-3.648-8.025-8.017-8.025h-34.2c-4.424,0-8.011,3.585-8.016,8.009c-0.015,14.886,3.92,29.582,11.376,42.496    c7.457,12.913,18.215,23.667,31.114,31.099c3.785,2.184,8.764,0.84,10.944-2.937l17.1-29.619    C359.194,190.633,357.85,185.641,354.067,183.463z M330.263,208.676c-7.501-5.584-13.825-12.671-18.529-20.819    s-7.681-17.169-8.765-26.455h18.338v0.001c0.974,6.094,3.057,11.991,6.164,17.371c3.106,5.379,7.172,10.132,11.961,14.021    L330.263,208.676z"/>
	</g>
</g>
<g>
	<g>
		<path d="M448.391,145.37h-34.2c-4.369,0-8.021,3.657-8.017,8.025c0.006,6.08-1.601,12.084-4.65,17.36v0.001    c-3.048,5.278-7.444,9.672-12.711,12.707c-3.783,2.178-5.127,7.169-2.942,10.955l17.101,29.619    c2.182,3.78,7.158,5.119,10.944,2.937c12.899-7.432,23.659-18.186,31.114-31.099c7.457-12.914,11.39-27.61,11.376-42.496    C456.404,148.953,452.816,145.37,448.391,145.37z M431.148,187.858c-4.704,8.147-11.028,15.235-18.529,20.819l-9.169-15.882    c4.789-3.891,8.854-8.643,11.961-14.022c3.106-5.38,5.189-11.277,6.164-17.371h18.338    C438.828,170.689,435.852,179.71,431.148,187.858z"/>
	</g>
</g>
<g>
	<g>
		<path d="M132.008,128.267H80.701c-4.428,0-8.017,3.588-8.017,8.017s3.588,8.017,8.017,8.017h51.307    c4.428,0,8.017-3.588,8.017-8.017C140.025,131.855,136.437,128.267,132.008,128.267z"/>
	</g>
</g>
<g>
	<g>
		<path d="M157.662,162.472h-76.96c-4.428,0-8.017,3.588-8.017,8.017s3.588,8.017,8.017,8.017h76.96    c4.428,0,8.017-3.588,8.017-8.017S162.09,162.472,157.662,162.472z"/>
	</g>
</g>
<g>
	<g>
		<path d="M200.418,162.472h-17.102c-4.428,0-8.017,3.588-8.017,8.017s3.588,8.017,8.017,8.017h17.102    c4.428,0,8.017-3.588,8.017-8.017S204.846,162.472,200.418,162.472z"/>
	</g>
</g>
<g>
	<g>
		<path d="M123.457,196.676H80.701c-4.428,0-8.017,3.588-8.017,8.017s3.588,8.017,8.017,8.017h42.756    c4.428,0,8.017-3.588,8.017-8.017S127.886,196.676,123.457,196.676z"/>
	</g>
</g>
<g>
	<g>
		<path d="M191.866,196.676h-42.756c-4.428,0-8.017,3.588-8.017,8.017s3.588,8.017,8.017,8.017h42.756    c4.428,0,8.017-3.588,8.017-8.017S196.295,196.676,191.866,196.676z"/>
	</g>
</g>
<g>
</g>
<g>
</g>
<g>
</g>
<g>
</g>
<g>
</g>
<g>
</g>
<g>
</g>
<g>
</g>
<g>
</g>
<g>
</g>
<g>
</g>
<g>
</g>
<g>
</g>
<g>
</g>
<g>
</g>
</svg>
