<?xml version="1.0" encoding="iso-8859-1"?>
<!-- Generator: Adobe Illustrator 19.0.0, SVG Export Plug-In . SVG Version: 6.00 Build 0)  -->
<svg xmlns="http://www.w3.org/2000/svg" xmlns:xlink="http://www.w3.org/1999/xlink" version="1.1" id="Layer_1" x="0px" y="0px" viewBox="0 0 512.001 512.001" style="enable-background:new 0 0 512.001 512.001;" xml:space="preserve">
<g>
	<g>
		<path d="M256,304.635c-13.851,0-25.119,11.268-25.119,25.119S242.15,354.873,256,354.873c13.851,0,25.119-11.268,25.119-25.119    S269.851,304.635,256,304.635z M256,338.84c-5.01,0-9.086-4.076-9.086-9.086s4.076-9.086,9.086-9.086    c5.01,0,9.086,4.076,9.086,9.086S261.01,338.84,256,338.84z"/>
	</g>
</g>
<g>
	<g>
		<path d="M256,153.921c-12.083,0-21.912,9.83-21.912,21.912v94.063c0,12.083,9.83,21.912,21.912,21.912    c12.083,0,21.912-9.83,21.912-21.912v-94.063C277.913,163.751,268.083,153.921,256,153.921z M261.879,269.896    c0,3.241-2.638,5.879-5.879,5.879c-3.242,0-5.879-2.638-5.879-5.879v-94.063c0-3.241,2.637-5.879,5.879-5.879    c3.241,0,5.879,2.638,5.879,5.879V269.896z"/>
	</g>
</g>
<g>
	<g>
		<path d="M503.984,409.382c4.428,0,8.017-3.588,8.017-8.017v-25.649c0-23.28-18.941-42.221-42.221-42.221h-35.468    c8.931-4.269,17.003-10.251,23.717-17.659c2.958,1.304,6.507,0.643,8.813-1.619c18.093-17.743,28.057-41.454,28.057-66.767    c0-29.028-9.827-52.541-29.209-69.89c-15.39-13.775-34.971-21.977-54.372-26.782C376.306,99.196,318.279,68.41,256,68.41    c-26.74,0-52.488,5.484-76.618,16.309c-19.491-44.674-51.231-71.236-68.88-83.317c-2.729-1.871-6.326-1.867-9.057-0.001    c-18.407,12.6-52.151,40.939-71.331,89.165c-19.048,47.894-10.299,97.071-5.589,118.563C10.062,215.836,0,230.486,0,247.449v9.087    c0,4.428,3.589,8.017,8.017,8.017c4.427,0,8.017-3.588,8.017-8.017v-9.087c0-14.441,11.748-26.188,26.188-26.188h128.267    c14.44,0,26.188,11.747,26.188,26.188v111.699h-9.62v-17.637c0-4.351-3.469-7.884-7.79-8.005l7.757-85.332    c0.421-4.625-3.34-8.742-7.984-8.742H33.67c-4.644,0-8.405,4.117-7.984,8.742l7.757,85.332c-4.322,0.121-7.79,3.654-7.79,8.005    v17.637h-9.62v-59.325c0-4.428-3.589-8.017-8.017-8.017c-4.427,0-8.017,3.588-8.017,8.017v67.341c0,4.428,3.589,8.017,8.017,8.017    h103.34c0.262,0.495,0.576,0.972,0.95,1.417c35.767,42.574,88.141,66.992,143.693,66.992c14.644,0,29.169-1.705,43.29-5.04v65.432    c0,4.428,3.588,8.017,8.017,8.017h196.676c4.428,0,8.017-3.588,8.017-8.017v-59.325c0-4.428-3.588-8.017-8.017-8.017    c-4.428,0-8.017,3.588-8.017,8.017v51.308H315.324V375.717c0-14.441,11.747-26.188,26.188-26.188h34.739v25.787l-8.512,85.115    c-0.295,2.95,1.063,5.822,3.531,7.467L396.923,485c2.664,1.775,6.23,1.776,8.893,0l25.654-17.102    c2.468-1.645,3.826-4.518,3.531-7.467l-8.512-85.115v-25.787h43.29c14.441,0,26.188,11.747,26.188,26.188v25.649    C495.967,405.794,499.555,409.382,503.984,409.382z M171.743,205.26c-0.418-0.012-130.361-0.012-130.78,0    c-0.575-10.609,0.785-21.425,3.855-31.688c14.307,19.102,36.826,30.587,61.157,30.587c24.391,0,47.316-11.903,61.574-31.185    C170.824,183.431,172.308,194.464,171.743,205.26z M52.313,155.55c2.983-5.467,6.505-10.586,10.53-15.196    c12.217-13.997,27.535-21.706,43.132-21.706c15.791,0,31.342,7.852,43.786,22.109c3.816,4.372,7.181,9.191,10.068,14.32    c-10.369,20.413-30.896,33.049-53.854,33.049c-22.358,0-42.791-12.268-53.325-32.014C52.546,155.917,52.431,155.733,52.313,155.55    z M161.84,130.212c-15.535-17.796-35.376-27.598-55.866-27.598c-20.295,0-39.904,9.659-55.212,27.195    c-6.671,7.643-12.156,16.296-16.34,25.569c0.027-18.267,2.604-38.803,10.592-58.887c16.132-40.562,43.49-65.802,60.96-78.644    c17.469,12.843,44.828,38.083,60.96,78.644c7.014,17.636,10.635,37.142,10.858,58.347    C173.652,145.939,168.3,137.612,161.84,130.212z M454.996,189.507c15.838,14.176,23.868,33.67,23.868,57.943    c0,13.332-3.336,26.128-9.62,37.459v-54.562c0-4.428-3.588-8.017-8.017-8.017H341.512c-4.428,0-8.017,3.588-8.017,8.017v44.701    c-8.147-20.848-17.561-49.432-24.679-73.157l26.089-6.522c3.569-0.893,6.072-4.099,6.072-7.777v-26.764    C361.501,159.72,421.328,159.374,454.996,189.507z M170.261,255.466l-7.093,78.029H49.542l-7.093-78.029H170.261z M41.687,359.149    v-9.62h0.534h128.267h0.534v9.62H41.687z M341.512,333.496c-23.28-0.001-42.221,18.94-42.221,42.22v46.309    c-14.067,3.657-28.609,5.533-43.29,5.533c-46.794,0-91.113-18.959-123.381-52.376h72.074c4.427,0,8.017-3.588,8.017-8.017V247.449    c0-16.982-10.082-31.644-24.57-38.34c8.485-40.771,7.476-77.492-2.997-109.388C207.431,89.588,231.246,84.443,256,84.443    c51.365,0,99.564,22.907,132.021,62.008c-29.52-3.818-54.063-1.243-55.946-1.031c-4.061,0.451-7.132,3.883-7.132,7.968v27.946    l-28.132,7.032c-4.345,1.087-7.009,5.713-5.752,10.021c4.898,16.803,30.078,101.356,44.839,115.832    c2.302,2.261,5.739,2.917,8.717,1.669c0.033-0.014,0.063-0.034,0.096-0.049c6.714,7.407,14.786,13.389,23.717,17.659H341.512z     M401.37,468.695l-17.197-11.465l7.35-73.497h19.695l7.35,73.498L401.37,468.695z M392.284,367.7v-18.171h18.171V367.7H392.284z     M401.37,324.944c-21.269,0-40.948-11.213-51.841-29.395v-57.186h103.683v57.188C442.316,313.734,422.638,324.944,401.37,324.944z    "/>
	</g>
</g>
<g>
	<g>
		<path d="M375.716,256.535c-4.428,0-8.017,3.588-8.017,8.017v1.069c0,4.428,3.588,8.017,8.017,8.017    c4.428,0,8.017-3.588,8.017-8.017v-1.069C383.733,260.123,380.145,256.535,375.716,256.535z"/>
	</g>
</g>
<g>
	<g>
		<path d="M427.023,256.535c-4.428,0-8.017,3.588-8.017,8.017v1.069c0,4.428,3.588,8.017,8.017,8.017    c4.428,0,8.017-3.588,8.017-8.017v-1.069C435.04,260.123,431.452,256.535,427.023,256.535z"/>
	</g>
</g>
<g>
	<g>
		<path d="M114.906,273.637H97.804c-4.427,0-8.017,3.588-8.017,8.017c0,4.428,3.589,8.017,8.017,8.017h0.534v17.637    c0,4.428,3.589,8.017,8.017,8.017s8.017-3.588,8.017-8.017v-17.637h0.534c4.427,0,8.017-3.588,8.017-8.017    C122.923,277.226,119.334,273.637,114.906,273.637z"/>
	</g>
</g>
<g>
</g>
<g>
</g>
<g>
</g>
<g>
</g>
<g>
</g>
<g>
</g>
<g>
</g>
<g>
</g>
<g>
</g>
<g>
</g>
<g>
</g>
<g>
</g>
<g>
</g>
<g>
</g>
<g>
</g>
</svg>
