<?xml version="1.0" encoding="iso-8859-1"?>
<!-- Generator: Adobe Illustrator 19.0.0, SVG Export Plug-In . SVG Version: 6.00 Build 0)  -->
<svg xmlns="http://www.w3.org/2000/svg" xmlns:xlink="http://www.w3.org/1999/xlink" version="1.1" id="Layer_1" x="0px" y="0px" viewBox="0 0 512 512" style="enable-background:new 0 0 512 512;" xml:space="preserve">
<g>
	<g>
		<path d="M503.706,110.6c4.58,0,8.294-3.712,8.294-8.294V14.942c0-4.581-3.713-8.294-8.294-8.294H8.294    C3.713,6.649,0,10.361,0,14.942v358.289c0,4.581,3.713,8.294,8.294,8.294h228.559c-7.584,8.583-8.826,21.521-2.222,31.527    l23.292,35.29c2.525,3.822,7.669,4.876,11.491,2.353c3.823-2.523,4.877-7.668,2.353-11.492l-23.292-35.289    c-2.855-4.326-1.659-10.168,2.667-13.023l103.37-68.223c4.28-2.823,10.201-1.607,13.022,2.667l53.909,81.68l-119.058,78.579    l-10.028-15.193c-2.523-3.824-7.669-4.878-11.491-2.354c-3.823,2.523-4.877,7.668-2.353,11.491l14.596,22.116    c2.485,3.764,7.719,4.845,11.491,2.354l132.903-87.716c3.765-2.486,4.844-7.72,2.353-11.491l-15.362-23.276h79.212    c4.58,0,8.294-3.712,8.294-8.294V147.644c0-4.581-3.713-8.294-8.294-8.294c-4.58,0-8.294,3.712-8.294,8.294v207.142    L295.441,221.474L495.413,57.212v45.095C495.413,106.888,499.126,110.6,503.706,110.6z M16.587,57.212l199.973,164.264    L16.587,354.786V57.212z M31.263,364.937l198.75-132.495v25.853c-0.367,0.227-0.724,0.474-1.062,0.764    c-23.334,20.063-28.129,54.586-11.156,80.303l16.879,25.575H31.263z M256.31,367.605l-24.669-37.378    c-9.859-14.936-9.648-33.936-0.575-48.45c2.4,6.572,8.695,11.286,16.088,11.286h17.693c9.452,0,17.14-7.689,17.14-17.14v-13.23    c10.013,3.01,18.581,9.36,24.411,18.193l24.67,37.379L256.31,367.605z M246.6,275.923V178.61c0-0.304,0.248-0.553,0.553-0.553    h17.693c0.305,0,0.553,0.249,0.553,0.553v97.313c0,0.304-0.248,0.553-0.553,0.553h-17.693    C246.848,276.476,246.6,276.227,246.6,275.923z M480.737,364.939h-67.191l-32.168-48.74c-3.824-5.794-9.675-9.751-16.475-11.145    c-6.799-1.393-13.734-0.054-19.529,3.769l-0.462,0.305l-24.67-37.378c-8.906-13.496-22.476-22.761-38.255-26.168v-13.14    L480.737,364.939z M281.987,211.058V178.61c0-9.452-7.689-17.14-17.14-17.14h-17.693c-9.452,0-17.14,7.689-17.14,17.14v32.448    L16.587,35.745V23.236h478.825v12.51L281.987,211.058z"/>
	</g>
</g>
<g>
	<g>
		<path d="M358.786,426.507l-15.675-23.751c6.66-8.556,7.498-20.758,1.202-30.295c-3.824-5.793-9.675-9.751-16.475-11.143    c-6.8-1.394-13.736-0.054-19.53,3.769c-11.958,7.895-15.266,24.045-7.374,36.004v0.001c4.991,7.562,13.282,11.664,21.73,11.664    c2.207,0,4.422-0.296,6.595-0.868l15.682,23.759c1.595,2.416,4.236,3.726,6.93,3.726c1.568,0,3.155-0.443,4.562-1.372    C360.256,435.476,361.309,430.33,358.786,426.507z M327.803,394.621c-4.326,2.854-10.169,1.658-13.025-2.669    c-2.854-4.325-1.658-10.166,2.668-13.021c2.096-1.382,4.605-1.867,7.064-1.363c2.459,0.504,4.576,1.935,5.959,4.032    C333.325,385.923,332.129,391.765,327.803,394.621z"/>
	</g>
</g>
<g>
</g>
<g>
</g>
<g>
</g>
<g>
</g>
<g>
</g>
<g>
</g>
<g>
</g>
<g>
</g>
<g>
</g>
<g>
</g>
<g>
</g>
<g>
</g>
<g>
</g>
<g>
</g>
<g>
</g>
</svg>
