<?xml version="1.0" encoding="iso-8859-1"?>
<!-- Generator: Adobe Illustrator 19.0.0, SVG Export Plug-In . SVG Version: 6.00 Build 0)  -->
<svg xmlns="http://www.w3.org/2000/svg" xmlns:xlink="http://www.w3.org/1999/xlink" version="1.1" id="Layer_1" x="0px" y="0px" viewBox="0 0 512 512" style="enable-background:new 0 0 512 512;" xml:space="preserve">
<g>
	<g>
		<path d="M338.629,267.433l-17.102-17.102c-2.147-2.146-5.324-2.897-8.204-1.937l-18.076,6.025    c-1.353-4.097-3.131-7.935-5.279-11.431l16.318-10.878l12.455,12.455c3.131,3.13,8.207,3.13,11.337,0    c3.131-3.132,3.131-8.207,0-11.338l-17.102-17.102c-2.702-2.701-6.936-3.12-10.115-1.002l-23.531,15.687    c-1.074-0.859-2.179-1.665-3.32-2.406c3.203-4.217,5.108-9.469,5.108-15.162c0-13.851-11.268-25.119-25.119-25.119    c-13.851,0-25.117,11.27-25.117,25.121c0,5.692,1.906,10.945,5.108,15.162c-1.139,0.741-2.246,1.547-3.32,2.406l-23.53-15.687    c-3.179-2.12-7.413-1.701-10.115,1.002l-17.102,17.102c-3.131,3.132-3.131,8.207,0,11.338c3.131,3.13,8.207,3.13,11.337,0    l12.455-12.455l16.318,10.878c-2.148,3.495-3.925,7.334-5.279,11.431l-18.076-6.025c-2.88-0.961-6.057-0.209-8.204,1.937    l-17.102,17.102c-4.937,4.937-1.343,13.684,5.669,13.684c2.051,0,4.103-0.782,5.668-2.347l13.6-13.6l15.535,5.179    c-0.041,0.912-0.064,1.828-0.064,2.751c0,1.418,0.061,2.82,0.157,4.209l-5.658-2.828c-3.086-1.545-6.814-0.937-9.253,1.501    l-17.102,17.102c-2.919,2.919-3.113,7.74-0.427,10.878c2.997,3.501,8.503,3.72,11.763,0.461l13.017-13.017l11.934,5.967    c0.294,0.148,0.593,0.268,0.896,0.377c7.22,15.566,21.049,26.123,36.894,26.123s29.674-10.557,36.894-26.124    c0.301-0.108,0.602-0.229,0.896-0.376l11.934-5.967l13.017,13.017c3.26,3.259,8.766,3.041,11.763-0.461    c2.687-3.138,2.493-7.959-0.426-10.878l-17.102-17.102c-2.44-2.439-6.17-3.047-9.253-1.501l-5.658,2.828    c0.095-1.39,0.157-2.791,0.157-4.209c0-0.924-0.023-1.841-0.064-2.751l15.535-5.179l13.599,13.6    c3.26,3.259,8.766,3.041,11.763-0.461C341.742,275.173,341.548,270.352,338.629,267.433z M256,204.159    c5.01,0,9.086,4.076,9.086,9.086s-4.076,9.086-9.086,9.086s-9.086-4.076-9.086-9.086S250.99,204.159,256,204.159z M256,307.841    c-14.44,0-26.188-15.583-26.188-34.739S241.56,238.363,256,238.363s26.188,15.583,26.188,34.739    C282.188,292.258,270.44,307.841,256,307.841z"/>
	</g>
</g>
<g>
	<g>
		<path d="M503.983,247.983h-17.787c-1.052-31.181-8.234-61.232-21.421-89.435c-1.875-4.009-6.644-5.741-10.658-3.866    c-4.011,1.875-5.742,6.646-3.866,10.658c12.185,26.062,18.854,53.829,19.9,82.644h-35.299    c-4.092-92.357-78.477-166.744-170.835-170.835V41.851c63.33,2.316,121.624,31.996,160.925,82.265    c2.728,3.49,7.764,4.107,11.253,1.378c3.489-2.727,4.106-7.766,1.379-11.252c-42.362-54.185-105.258-86.114-173.557-88.437V8.017    C264.017,3.588,260.427,0,256,0s-8.017,3.588-8.017,8.017v17.79C189.462,27.796,134.732,51.51,93.121,93.121    c-41.612,41.611-65.326,96.342-67.315,154.862H8.017C3.589,247.983,0,251.572,0,256c0,4.428,3.589,8.017,8.017,8.017h17.79    c1.989,58.521,25.703,113.251,67.315,154.863c41.611,41.611,96.342,65.325,154.862,67.315v17.789c0,4.428,3.589,8.017,8.017,8.017    s8.017-3.588,8.017-8.017v-17.79c58.521-1.989,113.251-25.704,154.862-67.315c41.611-41.612,65.325-96.343,67.315-154.863h17.79    c4.427,0,8.017-3.588,8.017-8.017C512,251.57,508.411,247.983,503.983,247.983z M247.983,41.851v35.297    C155.626,81.239,81.24,155.627,77.148,247.983H41.853C45.986,136.174,136.174,45.986,247.983,41.851z M256,350.597    c-4.427,0-8.017,3.588-8.017,8.017v26.188h-9.086c-4.427,0-8.017,3.588-8.017,8.017c0,4.428,3.589,8.017,8.017,8.017h9.086v17.971    c-32.647-1.564-63.537-12.673-89.777-32.382c-3.54-2.657-8.565-1.943-11.224,1.596c-2.658,3.54-1.944,8.566,1.596,11.224    c29.039,21.81,63.257,34.039,99.406,35.614v35.288c-111.809-4.133-201.997-94.321-206.131-206.131h35.288    c1.577,36.157,13.809,70.382,35.63,99.426c2.659,3.54,7.684,4.253,11.224,1.594c3.54-2.658,4.253-7.684,1.594-11.224    c-19.718-26.245-30.832-57.14-32.396-89.796h17.971v9.086c0,4.428,3.589,8.017,8.017,8.017s8.017-3.588,8.017-8.017v-9.086h26.188    c4.427,0,8.017-3.588,8.017-8.017c0-4.428-3.589-8.017-8.017-8.017h-26.188v-9.086c0-4.428-3.589-8.017-8.017-8.017    s-8.017,3.588-8.017,8.017v9.086H93.193c4.065-83.516,71.275-150.726,154.791-154.791v17.972h-9.086    c-4.427,0-8.017,3.588-8.017,8.017s3.589,8.017,8.017,8.017h9.086v26.188c0,4.428,3.589,8.017,8.017,8.017    s8.017-3.588,8.017-8.017v-26.188h9.086c4.427,0,8.017-3.588,8.017-8.017s-3.589-8.017-8.017-8.017h-9.086V93.193    c83.516,4.065,150.726,71.275,154.791,154.791h-17.972v-9.086c0-4.428-3.589-8.017-8.017-8.017c-4.427,0-8.017,3.588-8.017,8.017    v9.086h-26.188c-4.427,0-8.017,3.588-8.017,8.017c0,4.428,3.589,8.017,8.017,8.017h26.188v9.086c0,4.428,3.589,8.017,8.017,8.017    c4.427,0,8.017-3.588,8.017-8.017v-9.086h17.972c-4.065,83.516-71.275,150.726-154.791,154.791v-17.972h9.086    c4.427,0,8.017-3.588,8.017-8.017c0-4.428-3.589-8.017-8.017-8.017h-9.086v-26.188C264.017,354.185,260.427,350.597,256,350.597z     M264.017,470.149v-35.297c92.358-4.091,166.743-78.477,170.835-170.835h35.297C466.014,375.826,375.826,466.014,264.017,470.149z    "/>
	</g>
</g>
<g>
</g>
<g>
</g>
<g>
</g>
<g>
</g>
<g>
</g>
<g>
</g>
<g>
</g>
<g>
</g>
<g>
</g>
<g>
</g>
<g>
</g>
<g>
</g>
<g>
</g>
<g>
</g>
<g>
</g>
</svg>
