<?xml version="1.0" encoding="iso-8859-1"?>
<!-- Generator: Adobe Illustrator 19.0.0, SVG Export Plug-In . SVG Version: 6.00 Build 0)  -->
<svg xmlns="http://www.w3.org/2000/svg" xmlns:xlink="http://www.w3.org/1999/xlink" version="1.1" id="Layer_1" x="0px" y="0px" viewBox="0 0 512 512" style="enable-background:new 0 0 512 512;" xml:space="preserve">
<g>
	<g>
		<path d="M502.862,343.026c-1.703-4.086-6.396-6.018-10.485-4.313c-4.086,1.704-6.018,6.397-4.313,10.485    c5.243,12.574,7.902,25.921,7.902,39.669c0,53.524-41.685,98.638-94.946,102.824H170.489c-4.428,0-8.017,3.588-8.017,8.017    s3.588,8.017,8.017,8.017H401.37c0.008,0,0.016-0.001,0.024-0.001c0.193-0.001,0.389-0.007,0.585-0.022    c0.068-0.005,0.136-0.013,0.204-0.018c0.003,0,0.008,0,0.011,0C463.784,502.884,512,450.739,512,388.867    C512,372.989,508.926,357.566,502.862,343.026z"/>
	</g>
</g>
<g>
	<g>
		<path d="M475.33,302.542c-22.296-21.397-51.599-33.181-82.511-33.181c-21.708,0-42.425,5.693-60.718,16.585    c-4.371-57.031-52.173-102.096-110.305-102.096c-61.002,0-110.63,49.629-110.63,110.63c0,9.781,1.255,19.366,3.743,28.648    c-6.965-1.636-14.112-2.461-21.38-2.461C41.956,320.668,0,362.624,0,414.196s41.956,93.528,93.528,93.528h34.205    c4.428,0,8.017-3.588,8.017-8.017c0-4.428-3.588-8.017-8.017-8.017H93.528c-42.731,0-77.495-34.764-77.495-77.495    s34.764-77.495,77.495-77.495c10.801,0,21.276,2.197,31.135,6.528c6.553,2.881,13.45-4.03,10.559-10.578    c-5.324-12.054-8.023-24.897-8.023-38.171c0-52.161,42.436-94.597,94.597-94.597s94.597,42.436,94.597,94.597    c0,4.136-1.168,8.791,1.98,12.115c2.809,2.967,7.559,3.319,10.773,0.793c18.311-14.389,40.328-21.994,63.673-21.994    c26.753,0,52.114,10.198,71.41,28.715c3.195,3.067,8.27,2.962,11.335-0.233C478.628,310.681,478.524,305.607,475.33,302.542z"/>
	</g>
</g>
<g>
	<g>
		<path d="M221.795,286.464c-23.281,0-42.221,18.941-42.221,42.221c0,13.41,6.45,26.017,17.102,33.926v60.137    c0,4.428,3.588,8.017,8.017,8.017h34.205c4.428,0,8.017-3.588,8.017-8.017V362.61c10.653-7.909,17.102-20.515,17.102-33.926    C264.017,305.404,245.076,286.464,221.795,286.464z M234.882,351.365c-2.476,1.433-4.001,4.077-4.001,6.938v56.428H212.71v-56.428    c0-2.861-1.525-5.505-4.001-6.938c-8.082-4.676-13.101-13.368-13.101-22.68c0-14.441,11.747-26.188,26.188-26.188    s26.188,11.747,26.188,26.188C247.983,337.997,242.964,346.688,234.882,351.365z"/>
	</g>
</g>
<g>
	<g>
		<path d="M402.816,79.255c-48.355-48.351-112.641-74.98-181.02-74.98S89.13,30.904,40.775,79.255    c-3.131,3.132-3.131,8.207,0,11.338c3.132,3.13,8.207,3.132,11.339,0.001c45.324-45.323,105.585-70.285,169.682-70.285    s124.357,24.962,169.682,70.285c3.261,3.259,8.767,3.042,11.764-0.461C405.927,86.995,405.734,82.174,402.816,79.255z"/>
	</g>
</g>
<g>
	<g>
		<path d="M360.49,121.581c-37.047-37.046-86.302-57.448-138.694-57.448S120.148,84.536,83.101,121.581    c-3.131,3.132-3.131,8.207,0,11.338c3.132,3.13,8.207,3.13,11.338,0c34.019-34.018,79.247-52.752,127.357-52.752    c48.11,0,93.338,18.734,127.355,52.753c1.566,1.564,3.618,2.347,5.669,2.347C361.831,135.267,365.427,126.522,360.49,121.581z"/>
	</g>
</g>
<g>
	<g>
		<path d="M318.161,163.907c-25.741-25.74-59.964-39.916-96.366-39.916s-70.626,14.177-96.367,39.917    c-2.918,2.919-3.113,7.74-0.425,10.878c2.997,3.502,8.503,3.719,11.764,0.461c22.711-22.714,52.908-35.222,85.028-35.222    c32.119,0,62.318,12.508,85.03,35.22c3.13,3.13,8.206,3.129,11.337-0.001C321.293,172.113,321.293,167.037,318.161,163.907z"/>
	</g>
</g>
<g>
</g>
<g>
</g>
<g>
</g>
<g>
</g>
<g>
</g>
<g>
</g>
<g>
</g>
<g>
</g>
<g>
</g>
<g>
</g>
<g>
</g>
<g>
</g>
<g>
</g>
<g>
</g>
<g>
</g>
</svg>
