<?xml version="1.0" encoding="iso-8859-1"?>
<!-- Generator: Adobe Illustrator 19.0.0, SVG Export Plug-In . SVG Version: 6.00 Build 0)  -->
<svg xmlns="http://www.w3.org/2000/svg" xmlns:xlink="http://www.w3.org/1999/xlink" version="1.1" id="Layer_1" x="0px" y="0px" viewBox="0 0 512 512" style="enable-background:new 0 0 512 512;" xml:space="preserve">
<g>
	<g>
		<path d="M503.706,291.94c4.581,0,8.294-3.712,8.294-8.294V167.111c0-6.856-8.243-10.769-13.555-6.412    c-10.79,8.854-33.687,23.888-65.82,25.086c-37.468,1.392-64.271-17.083-74.059-25.091c-3.057-2.501-7.451-2.501-10.505,0    c-1.454,1.19-2.968,2.342-4.515,3.471v-6.031h27.461c4.581,0,8.294-3.712,8.294-8.294V87.361h44.786    c4.581,0,8.294-3.712,8.294-8.294V8.294c0-4.581-3.712-8.294-8.294-8.294H96.76c-4.581,0-8.294,3.712-8.294,8.294v62.479H43.68    c-4.581,0-8.294,3.712-8.294,8.294v62.479H8.294c-4.581,0-8.294,3.712-8.294,8.294v70.773c0,4.581,3.712,8.294,8.294,8.294h53.633    v54.186h-35.94c-4.581,0-8.294,3.712-8.294,8.294v70.773c0,4.581,3.712,8.294,8.294,8.294h18.246v54.186H17.14    c-4.581,0-8.294,3.712-8.294,8.294v70.773c0,4.581,3.712,8.294,8.294,8.294h327.326c1.108,0,8.561,0,8.847,0    s0.571-0.016,0.854-0.044c23.738-2.457,59.092-10.888,92.712-37.095c43.565-33.962,59.362-78.45,64.899-101.947    c0.147-0.624,0.221-1.263,0.221-1.903v-43.684c0-4.581-3.712-8.294-8.294-8.294s-8.294,3.712-8.294,8.294v42.706    c-5.231,21.599-19.739,61.349-58.732,91.745c-30.115,23.476-61.802,31.241-83.367,33.587    c-21.566-2.347-53.251-10.112-83.368-33.587c-38.992-30.396-53.5-70.146-58.731-91.745V183.196    c16.11,9.989,34.363,16.448,53.22,18.51c20.772,2.271,41.898-0.866,61.231-8.739c9.791-3.988,19.118-9.154,27.659-15.387    c14.071,10.213,42.32,26.155,79.918,24.781c26.677-0.994,47.807-10.259,62.171-19.165v100.449    C495.413,288.227,499.125,291.94,503.706,291.94z M281.987,489.668c3.731,2.098,7.446,4.002,11.129,5.745h-11.129V489.668z     M362.713,141.546h-54.186V87.361h54.186V141.546z M361.607,16.587h54.186v54.186h-54.186V16.587z M299.68,16.587h45.339v54.186    H299.68V16.587z M237.754,16.587h45.339v54.186h-45.339V16.587z M175.827,16.587h45.339v54.186h-45.339V16.587z M105.054,353.866    V299.68h45.339v54.186H105.054z M115.006,370.454v54.186H60.821v-54.186H115.006z M132.7,228.907v54.186H78.514v-54.186H132.7z     M87.361,212.32v-54.186H132.7v54.186H87.361z M131.594,370.454h45.339v54.186h-45.339V370.454z M166.981,353.866V299.68h27.646    v54.186H166.981z M149.287,283.093v-54.186h45.339v54.186H149.287z M149.287,212.32v-54.186h45.339v54.186H149.287z     M168.086,141.546h-45.339V87.361h45.339V141.546z M105.054,16.587h54.186v54.186h-54.186V16.587z M51.974,87.361h54.186v54.186    H51.974V87.361z M16.587,212.32v-54.186h54.186v54.186H70.22H16.587z M34.281,353.866V299.68h54.186v54.186H34.281z     M79.62,495.413H25.434v-54.186H79.62V495.413z M141.546,495.413H96.207v-54.186h45.339V495.413z M203.473,495.413h-45.339    v-54.186h45.339V495.413z M220.06,441.227h6.082h0.614c8.684,11.597,19.504,23.12,32.991,33.634    c1.884,1.469,3.774,2.873,5.666,4.232c-0.003,0.095-0.014,0.189-0.014,0.285v16.035H220.06V441.227z M215.716,424.639h-22.195    v-54.186h1.106v0.557c0,0.64,0.074,1.278,0.221,1.903C197.851,385.656,203.884,404.575,215.716,424.639z M184.674,141.546V87.361    h45.339v54.186H184.674z M256.553,183.706c-20.589-4.17-36.061-13.557-45.339-20.614v-4.959h45.339V183.706z M246.6,141.546    V87.361h45.339v54.186H246.6z M274.002,185.785c-0.29-0.011-0.574-0.031-0.861-0.044v-27.607h53.818v16.035    c0,0.011,0.001,0.023,0.002,0.034C314.469,180.384,296.163,186.627,274.002,185.785z"/>
	</g>
</g>
<g>
	<g>
		<path d="M466.148,216.248c-12.224,3.32-24.892,4.999-37.558,4.999c-25.069,0-49.03-6.309-71.218-18.753    c-2.52-1.412-5.594-1.412-8.115,0c-22.187,12.444-46.149,18.753-71.218,18.753c-12.666,0-25.333-1.681-37.558-4.999    c-5.194-1.408-10.467,2.631-10.467,8.004v41.702c0,4.581,3.712,8.294,8.294,8.294s8.294-3.712,8.294-8.294V234.72    c10.343,2.07,20.89,3.114,31.438,3.114c26.422,0,51.721-6.278,75.275-18.668c23.554,12.39,48.855,18.668,75.275,18.668    c10.547,0,21.095-1.045,31.438-3.114v130.825c-4.486,16.262-16.186,45.784-45.101,68.325    c-22.186,17.295-45.557,23.614-61.611,25.843c-16.055-2.229-39.424-8.548-61.611-25.843    c-28.915-22.541-40.616-52.063-45.101-68.325v-55.914c-0.001-4.583-3.713-8.295-8.295-8.295s-8.294,3.712-8.294,8.294v57.02    c0,0.721,0.094,1.44,0.28,2.136c4.807,18.031,17.85,52.16,51.211,78.167c25.635,19.982,52.617,26.992,70.738,29.354    c0.71,0.093,1.435,0.093,2.144,0c18.121-2.362,45.102-9.372,70.738-29.354c33.361-26.007,46.404-60.136,51.211-78.167    c0.186-0.697,0.28-1.414,0.28-2.136V224.252C476.614,218.879,471.342,214.838,466.148,216.248z"/>
	</g>
</g>
<g>
	<g>
		<path d="M361.607,332.496v-45.889c10.894,3.512,18.799,13.742,18.799,25.789c0,4.581,3.712,8.294,8.294,8.294    s8.294-3.712,8.294-8.294c0-21.25-15.255-38.994-35.387-42.881v-10.198c0-4.581-3.712-8.294-8.294-8.294s-8.294,3.712-8.294,8.294    v10.199c-20.132,3.887-35.387,21.631-35.387,42.881c0,21.498,18.282,28.442,35.387,32.981v45.889    c-10.894-3.512-18.799-13.743-18.799-25.79c0-4.581-3.712-8.294-8.294-8.294c-4.581,0-8.294,3.712-8.294,8.294    c0,21.25,15.255,38.994,35.387,42.881v10.199c0,4.581,3.712,8.294,8.294,8.294s8.294-3.712,8.294-8.294v-10.199    c20.132-3.887,35.387-21.631,35.387-42.881C396.994,343.979,378.712,337.035,361.607,332.496z M345.019,328.13    c-12.726-3.765-18.799-7.577-18.799-15.733c0-12.047,7.906-22.278,18.799-25.789V328.13z M361.607,391.266v-41.522    c12.726,3.765,18.799,7.577,18.799,15.733C380.406,377.524,372.5,387.755,361.607,391.266z"/>
	</g>
</g>
<g>
</g>
<g>
</g>
<g>
</g>
<g>
</g>
<g>
</g>
<g>
</g>
<g>
</g>
<g>
</g>
<g>
</g>
<g>
</g>
<g>
</g>
<g>
</g>
<g>
</g>
<g>
</g>
<g>
</g>
</svg>
