<?xml version="1.0" encoding="iso-8859-1"?>
<!-- Generator: Adobe Illustrator 19.0.0, SVG Export Plug-In . SVG Version: 6.00 Build 0)  -->
<svg xmlns="http://www.w3.org/2000/svg" xmlns:xlink="http://www.w3.org/1999/xlink" version="1.1" id="Layer_1" x="0px" y="0px" viewBox="0 0 512 512" style="enable-background:new 0 0 512 512;" xml:space="preserve">
<g>
	<g>
		<path d="M503.983,371.975h-34.739V89.253c0-13.851-11.268-25.119-25.119-25.119H67.875c-13.851,0-25.119,11.268-25.119,25.119    v282.722H8.017c-4.427,0-8.017,3.588-8.017,8.017v42.756c0,13.851,11.268,25.119,25.119,25.119h94.776    c4.427,0,8.017-3.588,8.017-8.017c0-4.428-3.589-8.017-8.017-8.017H25.119c-5.01,0-9.086-4.076-9.086-9.086v-34.739h197.745    v17.637c0,9.136,7.432,16.568,16.568,16.568h51.307c9.136,0,16.568-7.432,16.568-16.568v-17.637h197.745v34.739    c0,5.01-4.076,9.086-9.086,9.086H161.224c-4.427,0-8.017,3.588-8.017,8.017c0,4.428,3.589,8.017,8.017,8.017h325.657    c13.851,0,25.119-11.268,25.119-25.119v-42.756C512,375.563,508.412,371.975,503.983,371.975z M282.188,405.645    c0,0.294-0.241,0.534-0.534,0.534h-51.307c-0.295,0-0.534-0.241-0.534-0.534v-17.637h52.376V405.645z M453.211,123.992h-60.037    c-4.428,0-8.017,3.588-8.017,8.017c0,4.428,3.588,8.017,8.017,8.017h60.037v231.95H58.789v-231.95h291.273    c4.428,0,8.017-3.588,8.017-8.017c0-4.428-3.588-8.017-8.017-8.017H58.789V89.253c0-5.01,4.076-9.086,9.086-9.086h376.25    c5.01,0,9.086,4.076,9.086,9.086V123.992z"/>
	</g>
</g>
<g>
	<g>
		<path d="M264.551,89.787h-17.102c-4.427,0-8.017,3.588-8.017,8.017s3.589,8.017,8.017,8.017h17.102    c4.428,0,8.017-3.588,8.017-8.017S268.98,89.787,264.551,89.787z"/>
	</g>
</g>
<g>
	<g>
		<path d="M398.79,280.581c-2.598-2.903-64.545-71.078-142.79-71.078s-140.192,68.175-142.79,71.078    c-2.726,3.044-2.726,7.651,0,10.695c2.599,2.903,64.545,71.078,142.79,71.078s140.192-68.175,142.79-71.078    C401.517,288.232,401.517,283.626,398.79,280.581z M256,346.322c-58.849,0-109.639-44.723-125.63-60.399    c15.964-15.682,66.656-60.386,125.63-60.386c58.853,0,109.645,44.728,125.63,60.399C365.666,301.617,314.975,346.322,256,346.322z    "/>
	</g>
</g>
<g>
	<g>
		<path d="M256,226.605c-32.711,0-59.324,26.612-59.324,59.324s26.612,59.324,59.324,59.324s59.324-26.612,59.324-59.324    S288.711,226.605,256,226.605z M256,329.219c-23.871,0-43.29-19.42-43.29-43.29s19.42-43.29,43.29-43.29s43.29,19.42,43.29,43.29    S279.871,329.219,256,329.219z"/>
	</g>
</g>
<g>
	<g>
		<path d="M303.994,169.527c-12.819-12.821-29.864-19.881-47.994-19.881s-35.175,7.06-47.994,19.881    c-3.131,3.131-3.13,8.207,0,11.337c3.132,3.13,8.207,3.131,11.338-0.001c9.791-9.791,22.809-15.184,36.657-15.184    s26.867,5.393,36.657,15.184c3.261,3.26,8.765,3.042,11.763-0.459C307.107,177.266,306.914,172.446,303.994,169.527z"/>
	</g>
</g>
<g>
	<g>
		<path d="M285.853,187.667c-7.974-7.975-18.576-12.367-29.855-12.367c-11.276-0.001-21.878,4.39-29.853,12.365    c-2.919,2.919-3.113,7.74-0.426,10.878c2.997,3.501,8.503,3.72,11.763,0.461c4.947-4.947,11.523-7.671,18.518-7.671    c6.995,0,13.571,2.725,18.516,7.67c3.131,3.131,8.207,3.132,11.337,0.001C288.984,195.873,288.984,190.796,285.853,187.667z"/>
	</g>
</g>
<g>
</g>
<g>
</g>
<g>
</g>
<g>
</g>
<g>
</g>
<g>
</g>
<g>
</g>
<g>
</g>
<g>
</g>
<g>
</g>
<g>
</g>
<g>
</g>
<g>
</g>
<g>
</g>
<g>
</g>
</svg>
