<?xml version="1.0" encoding="iso-8859-1"?>
<!-- Generator: Adobe Illustrator 19.0.0, SVG Export Plug-In . SVG Version: 6.00 Build 0)  -->
<svg xmlns="http://www.w3.org/2000/svg" xmlns:xlink="http://www.w3.org/1999/xlink" version="1.1" id="Layer_1" x="0px" y="0px" viewBox="0 0 511.999 511.999" style="enable-background:new 0 0 511.999 511.999;" xml:space="preserve">
<g>
	<g>
		<path d="M84.964,331.96c-4.427,0-8.015,3.588-8.015,8.015v1.069c0,4.428,3.589,8.015,8.015,8.015c4.427,0,8.015-3.588,8.015-8.015    v-1.069C92.979,335.548,89.39,331.96,84.964,331.96z"/>
	</g>
</g>
<g>
	<g>
		<path d="M136.263,331.96c-4.427,0-8.015,3.588-8.015,8.015v1.069c0,4.428,3.589,8.015,8.015,8.015    c4.427,0,8.015-3.588,8.015-8.015v-1.069C144.278,335.548,140.689,331.96,136.263,331.96z"/>
	</g>
</g>
<g>
	<g>
		<path d="M187.561,331.96c-4.427,0-8.015,3.588-8.015,8.015v1.069c0,4.428,3.589,8.015,8.015,8.015    c4.427,0,8.015-3.588,8.015-8.015v-1.069C195.577,335.548,191.988,331.96,187.561,331.96z"/>
	</g>
</g>
<g>
	<g>
		<path d="M238.86,331.96c-4.427,0-8.015,3.588-8.015,8.015v1.069c0,4.428,3.589,8.015,8.015,8.015c4.427,0,8.015-3.588,8.015-8.015    v-1.069C246.876,335.548,243.287,331.96,238.86,331.96z"/>
	</g>
</g>
<g>
	<g>
		<path d="M477.017,249.197c-30.367-30.367-74.186-41.93-115.412-30.773L204.965,61.782c-1.503-1.503-3.542-2.347-5.667-2.347    H126.75c-4.427,0-8.015,3.588-8.015,8.015v72.547c0,2.126,0.844,4.164,2.348,5.667l18.136,18.138    c1.503,1.503,3.542,2.347,5.667,2.347h51.833v51.833c0,4.504,4.12,8.622,8.624,8.622h51.833v46.574H16.565    C7.431,273.18,0,280.611,0,289.745v102.598c0,9.134,7.431,16.565,16.565,16.565h86.032c4.427,0,8.015-3.588,8.015-8.015    s-3.589-8.015-8.015-8.015H16.565c-0.295,0-0.534-0.24-0.534-0.534V289.745c0-0.294,0.239-0.534,0.534-0.534H264.51    c0.037,0,0.074-0.005,0.112-0.005l9.624,9.624H37.94c-6.777,0-12.29,5.514-12.29,12.29v59.849c0,6.777,5.514,12.29,12.29,12.29    h246.521c1.508,3.27,3.159,6.482,4.969,9.619H144.812c-4.427,0-8.015,3.588-8.015,8.015s3.589,8.015,8.015,8.015h154.431    c0.405,0,0.8-0.04,1.189-0.098c2.519,3.08,5.208,6.054,8.063,8.909c23.231,23.23,53.746,34.845,84.26,34.845    c30.514,0,61.03-11.615,84.261-34.845c3.13-3.131,3.13-8.206,0-11.336c-3.13-3.129-8.206-3.129-11.335,0    c-40.211,40.211-105.638,40.211-145.851,0c-27.288-27.288-37.035-67.13-25.437-103.979c0.897-2.85,0.135-5.961-1.978-8.075    l-19.21-19.21V218.59c0-4.428-3.589-8.015-8.015-8.015h-52.441v-52.44c0-2.126-0.844-4.164-2.348-5.669    c-1.503-1.503-3.542-2.347-5.667-2.347h-56.529l-13.441-13.441V75.466h61.211l157.652,157.652    c2.113,2.112,5.224,2.875,8.074,1.978c36.85-11.596,76.693-1.849,103.98,25.438c27.741,27.741,37.315,68.129,24.984,105.405    c-1.39,4.203,0.89,8.737,5.092,10.127c4.201,1.389,8.737-0.889,10.127-5.092C520.131,327.91,509.07,281.248,477.017,249.197z     M278.427,367.228H41.68V314.86h233.364C272.231,332.553,273.457,350.418,278.427,367.228z"/>
	</g>
</g>
<g>
	<g>
		<path d="M452.835,345.928c-6.358-6.359-14.813-9.862-23.804-9.862c-8.992,0-17.447,3.502-23.805,9.861    c-6.359,6.358-9.86,14.813-9.86,23.805c0,8.992,3.501,17.446,9.86,23.804c0,0.001,0,0.001,0,0.001    c6.563,6.563,15.183,9.844,23.804,9.844s17.242-3.282,23.805-9.845c6.359-6.358,9.86-14.811,9.86-23.804    S459.194,352.285,452.835,345.928z M441.499,382.201c-6.876,6.877-18.063,6.876-24.938,0v0.001    c-3.33-3.331-5.165-7.76-5.165-12.47s1.835-9.139,5.165-12.47c3.331-3.33,7.759-5.165,12.469-5.165    c4.71,0,9.138,1.835,12.469,5.166c3.33,3.33,5.165,7.759,5.165,12.469S444.831,378.871,441.499,382.201z"/>
	</g>
</g>
<g>
	<g>
		<path d="M337.968,243.15l-42.319-42.319c-3.129-3.128-8.205-3.128-11.335,0.001c-3.13,3.131-3.13,8.206,0,11.336l42.319,42.319    c3.26,3.259,8.765,3.041,11.761-0.461C341.081,250.889,340.886,246.069,337.968,243.15z"/>
	</g>
</g>
<g>
	<g>
		<path d="M271.466,176.648L198.919,104.1c-3.13-3.128-8.206-3.128-11.335,0.001c-3.13,3.131-3.13,8.206,0,11.336l72.547,72.548    c3.26,3.259,8.765,3.041,11.761-0.461C274.579,184.387,274.385,179.567,271.466,176.648z"/>
	</g>
</g>
<g>
	<g>
		<path d="M415.524,297.866c-3.13-3.129-8.206-3.129-11.335,0l-38.474,38.474c-4.938,4.938-1.343,13.683,5.667,13.683    c2.051,0,4.103-0.782,5.667-2.347l38.474-38.474C418.654,306.07,418.654,300.996,415.524,297.866z"/>
	</g>
</g>
<g>
	<g>
		<path d="M381.325,280.766c-3.13-3.129-8.206-3.129-11.335,0l-17.1,17.1c-2.919,2.919-3.112,7.739-0.426,10.876    c2.997,3.5,8.502,3.719,11.761,0.46l17.1-17.1C384.455,288.971,384.455,283.896,381.325,280.766z"/>
	</g>
</g>
<g>
</g>
<g>
</g>
<g>
</g>
<g>
</g>
<g>
</g>
<g>
</g>
<g>
</g>
<g>
</g>
<g>
</g>
<g>
</g>
<g>
</g>
<g>
</g>
<g>
</g>
<g>
</g>
<g>
</g>
</svg>
