<?xml version="1.0" encoding="iso-8859-1"?>
<!-- Generator: Adobe Illustrator 19.0.0, SVG Export Plug-In . SVG Version: 6.00 Build 0)  -->
<svg xmlns="http://www.w3.org/2000/svg" xmlns:xlink="http://www.w3.org/1999/xlink" version="1.1" id="Layer_1" x="0px" y="0px" viewBox="0 0 511.998 511.998" style="enable-background:new 0 0 511.998 511.998;" xml:space="preserve">
<g>
	<g>
		<path d="M382.187,225.167h52.524c14.007,0,25.402-11.395,25.402-25.402v-35.694c29.257-3.972,51.885-29.1,51.885-59.429    c0-30.563-48.116-93.083-53.602-100.112c-3.195-4.091-9.586-4.091-12.781,0c-5.486,7.028-53.602,69.549-53.602,100.112    c0,30.329,22.628,55.458,51.885,59.429v35.694c0,5.066-4.122,9.188-9.188,9.188h-61.19L290.769,54.125    c-7.553-14.133-21.631-22.571-37.656-22.571c-16.025,0-30.103,8.438-37.656,22.571l-4.085,7.642    c-2.11,3.949-0.619,8.861,3.329,10.971c3.952,2.111,8.861,0.619,10.972-3.328l4.083-7.642    c4.686-8.765,13.417-13.999,23.356-13.999c9.939,0,18.67,5.234,23.356,13.999l33.571,62.809h-40.448l-9.33-17.455    c-2.996-5.606-11.302-5.606-14.3,0l-9.33,17.455h-40.448l12.191-22.81c2.111-3.949,0.62-8.86-3.328-10.971    c-3.951-2.111-8.86-0.619-10.97,3.328L5.093,447.713c-7.139,13.356-6.753,29.086,1.033,42.078    c7.786,12.991,21.476,20.745,36.622,20.745h314.135c4.478,0,8.107-3.629,8.107-8.107c0-4.478-3.629-8.107-8.107-8.107H335.81    l19.04-35.671h40.435l-10.963,20.539c-2.109,3.949-0.615,8.861,3.335,10.968c3.949,2.109,8.862,0.616,10.968-3.335l15.038-28.173    h20.961c6.004,0,9.988-6.617,7.149-11.928l-6.368-11.913h40.447l10.981,20.547c4.429,8.285,4.189,18.041-0.641,26.099    s-13.322,12.868-22.716,12.868h-54.707c-4.478,0-8.107,3.629-8.107,8.107c0,4.478,3.629,8.107,8.107,8.107h54.709    c15.146,0,28.836-7.756,36.622-20.745c7.786-12.992,8.173-28.721,1.033-42.078L382.187,225.167z M408.229,104.641    c0-18.464,27.469-59.569,43.778-81.687c16.309,22.118,43.778,63.223,43.778,81.687c0,24.14-19.639,43.778-43.778,43.778    S408.229,128.781,408.229,104.641z M439.455,366.709h-40.447l-28.31-52.966h40.447L439.455,366.709z M383.412,261.857l9.273,17.35    l9.792,18.321h-40.447l-10.918-20.427l-8.148-15.245H383.412z M374.747,245.643h-40.447l-10.945-20.476h40.448L374.747,245.643z     M355.137,208.953h-40.448l-8.698-16.276h40.448L355.137,208.953z M318.706,140.791l18.145,33.948l0.921,1.723h-40.448    l-13.765-25.752l-5.301-9.919H318.706z M187.519,140.791h40.448l-5.301,9.919l-13.765,25.752h-40.448L187.519,140.791z     M159.789,192.677h40.448l-28.311,52.966h-40.447L159.789,192.677z M112.717,280.744l10.095-18.887h40.447l-8.148,15.245    l-10.918,20.427h-40.446L112.717,280.744z M95.081,313.742h40.447l-28.31,52.966H66.771L95.081,313.742z M58.105,382.923h40.447    l-10.994,20.57l-8.071,15.101H39.04L58.105,382.923z M42.747,494.321c-9.393,0.001-17.885-4.809-22.715-12.866    c-4.83-8.057-5.069-17.813-0.641-26.099l10.981-20.547h40.447l-6.368,11.913c-2.839,5.311,1.146,11.928,7.149,11.928h22.738    l-19.04,35.671H42.747z M93.679,494.322l19.039-35.671h40.435l-19.04,35.671H93.679z M152.491,494.322l19.041-35.671h43.873    l-19.04,35.671H152.491z M214.745,494.322l19.039-35.671h40.435l-19.04,35.671H214.745z M317.431,494.322h-43.874l19.041-35.671    h43.873L317.431,494.322z M85.128,442.438v-0.001l167.985-314.294l43.192,80.81h-25.897c-14.007,0-25.402,11.395-25.402,25.402    v18.234c-33.023,3.134-61.734,25.195-72.937,56.892c-1.492,4.221,0.721,8.853,4.942,10.345c4.22,1.493,8.853-0.721,10.345-4.942    c9.826-27.801,36.252-46.479,65.756-46.479c38.444,0,69.721,31.277,69.721,69.721s-31.277,69.721-69.721,69.721    c-32.788,0-60.748-22.296-67.992-54.218c-0.991-4.366-5.337-7.098-9.702-6.112c-4.366,0.991-7.102,5.334-6.112,9.701    c4.243,18.692,14.833,35.658,29.82,47.772c15.214,12.298,34.388,19.071,53.986,19.071c47.385,0,85.935-38.55,85.935-85.935    c0-44.651-34.232-81.442-77.828-85.542v-18.229c0-5.066,4.122-9.188,9.188-9.188h34.563l116.128,217.27H85.128z M426.74,418.594    l-8.071-15.101l-10.994-20.57h40.447l19.066,35.671H426.74z"/>
	</g>
</g>
<g>
	<g>
		<path d="M458.041,55.989c-1.538-1.714-3.731-2.693-6.034-2.693s-4.496,0.978-6.034,2.693c-4.678,5.212-28.016,32.06-28.016,48.652    c0,18.775,15.275,34.05,34.05,34.05s34.05-15.275,34.05-34.05C486.057,88.049,462.719,61.201,458.041,55.989z M452.007,122.477    c-9.834,0-17.836-8.001-17.836-17.836c0-5.705,8.439-19.031,17.838-30.711c9.399,11.67,17.833,24.99,17.833,30.711    C469.842,114.476,461.841,122.477,452.007,122.477z"/>
	</g>
</g>
<g>
	<g>
		<path d="M253.113,295.428c-4.478,0-8.107,3.629-8.107,8.107v43.238c0,4.477,3.629,8.107,8.107,8.107    c4.478,0,8.107-3.629,8.107-8.107v-43.238C261.22,299.057,257.591,295.428,253.113,295.428z"/>
	</g>
</g>
<g>
	<g>
		<path d="M253.113,363.528c-4.478,0-8.107,3.629-8.107,8.107v1.081c0,4.477,3.629,8.107,8.107,8.107    c4.478,0,8.107-3.629,8.107-8.107v-1.081C261.22,367.156,257.591,363.528,253.113,363.528z"/>
	</g>
</g>
<g>
</g>
<g>
</g>
<g>
</g>
<g>
</g>
<g>
</g>
<g>
</g>
<g>
</g>
<g>
</g>
<g>
</g>
<g>
</g>
<g>
</g>
<g>
</g>
<g>
</g>
<g>
</g>
<g>
</g>
</svg>
