<?xml version="1.0" encoding="iso-8859-1"?>
<!-- Generator: Adobe Illustrator 19.0.0, SVG Export Plug-In . SVG Version: 6.00 Build 0)  -->
<svg xmlns="http://www.w3.org/2000/svg" xmlns:xlink="http://www.w3.org/1999/xlink" version="1.1" id="Layer_1" x="0px" y="0px" viewBox="0 0 512 512" style="enable-background:new 0 0 512 512;" xml:space="preserve">
<g>
	<g>
		<path d="M505.12,222.41l-48.457-6.922c-1.702-8.442-3.921-16.698-6.629-24.732l38.507-30.226    c3.138-2.464,3.987-6.859,1.992-10.314l-25.653-44.432c-1.993-3.454-6.221-4.918-9.929-3.431l-45.546,18.281    c-5.634-6.377-11.657-12.4-18.034-18.034l18.281-45.546c1.487-3.703,0.024-7.934-3.431-9.929l-44.432-25.653    c-3.456-1.995-7.85-1.147-10.314,1.992l-30.226,38.507c-8.034-2.709-16.29-4.928-24.732-6.629l-6.922-48.457    C289.027,2.933,285.645,0,281.656,0h-51.307c-3.989,0-7.372,2.933-7.937,6.883L215.49,55.34    c-8.442,1.702-16.698,3.921-24.732,6.629l-30.225-38.507c-2.464-3.138-6.859-3.988-10.314-1.992l-44.433,25.653    c-3.455,1.995-4.918,6.226-3.431,9.929l18.281,45.547c-6.377,5.634-12.4,11.657-18.034,18.034l-45.546-18.281    c-3.703-1.487-7.933-0.025-9.929,3.431l-25.653,44.432c-1.995,3.455-1.146,7.851,1.992,10.314l38.507,30.226    c-2.709,8.034-4.928,16.29-6.629,24.731l-48.457,6.923c-3.951,0.567-6.885,3.949-6.885,7.938v51.307    c0,3.989,2.934,7.371,6.883,7.937l48.457,6.923c1.702,8.441,3.921,16.698,6.629,24.732L23.464,351.47    c-3.138,2.464-3.987,6.859-1.992,10.314l25.653,44.432c1.969,3.411,6.27,4.901,9.929,3.431l45.546-18.281    c5.634,6.377,11.657,12.4,18.034,18.034l-18.281,45.547c-1.486,3.703-0.023,7.934,3.431,9.929l44.433,25.653    c3.413,1.971,7.883,1.104,10.314-1.992l30.225-38.506c8.034,2.709,16.29,4.928,24.732,6.629l6.922,48.457    c0.564,3.95,3.946,6.883,7.937,6.883h51.307c3.989,0,7.371-2.933,7.937-6.883l6.922-48.457c8.442-1.702,16.698-3.921,24.732-6.629    l30.226,38.506c2.432,3.097,6.901,3.965,10.314,1.992l44.432-25.653c3.455-1.995,4.918-6.226,3.431-9.929l-18.281-45.546    c6.377-5.634,12.4-11.657,18.034-18.034l45.546,18.281c3.659,1.469,7.96-0.019,9.929-3.431l25.654-44.432    c1.995-3.455,1.145-7.851-1.992-10.314l-38.507-30.225c2.709-8.034,4.928-16.29,6.629-24.732l48.457-6.923    c3.95-0.564,6.883-3.946,6.883-7.937v-51.307C512.002,226.357,509.069,222.975,505.12,222.41z M52.717,279.94l-36.681-5.24V237.3    l36.681-5.241c-0.919,7.856-1.408,15.842-1.408,23.941S51.798,272.085,52.717,279.94z M359.791,38.833l32.391,18.7l-13.83,34.458    c-12.751-9.537-26.652-17.613-41.445-24.003L359.791,38.833z M237.302,16.033h37.401l5.241,36.681    c-7.856-0.919-15.842-1.408-23.941-1.408s-16.085,0.488-23.94,1.408L237.302,16.033z M119.824,57.533l32.391-18.701l22.886,29.157    c-14.793,6.39-28.694,14.466-41.445,24.003L119.824,57.533z M38.835,152.211l18.7-32.391l34.459,13.83    c-9.537,12.752-17.613,26.653-24.003,41.445L38.835,152.211z M57.535,392.178l-18.7-32.39l29.156-22.886    c6.39,14.793,14.466,28.694,24.003,41.445L57.535,392.178z M152.214,473.167l-32.391-18.7l13.832-34.458    c12.751,9.537,26.652,17.613,41.445,24.003L152.214,473.167z M274.702,495.967h-37.401l-5.241-36.681    c7.856,0.919,15.842,1.408,23.941,1.408s16.085-0.489,23.94-1.408L274.702,495.967z M392.18,454.467l-32.391,18.7l-22.886-29.155    c14.794-6.391,28.694-14.466,41.445-24.003L392.18,454.467z M256.002,444.66c-104.027,0-188.66-84.633-188.66-188.66    s84.633-188.66,188.66-188.66s188.66,84.633,188.66,188.66S360.029,444.66,256.002,444.66z M473.169,359.789l-18.7,32.391    l-34.458-13.83c9.537-12.751,17.613-26.653,24.003-41.445L473.169,359.789z M444.013,175.099    c-6.39-14.793-14.466-28.694-24.003-41.445l34.459-13.831l18.7,32.391L444.013,175.099z M495.969,274.7l-36.681,5.241    c0.919-7.856,1.408-15.842,1.408-23.941s-0.489-16.085-1.408-23.94l36.681,5.24V274.7z"/>
	</g>
</g>
<g>
	<g>
		<path d="M256.002,111.165c-79.862,0-144.835,64.973-144.835,144.835s64.973,144.835,144.835,144.835    c47.952,0,92.722-23.686,119.761-63.36c2.494-3.659,1.549-8.646-2.11-11.139c-3.66-2.493-8.647-1.549-11.139,2.11    c-24.05,35.287-63.867,56.355-106.512,56.355c-71.022,0-128.802-57.78-128.802-128.802s57.78-128.802,128.802-128.802    S384.804,184.978,384.804,256c0,10.908-1.365,21.745-4.058,32.207c-1.103,4.288,1.478,8.659,5.767,9.762    c4.292,1.101,8.659-1.48,9.762-5.767c3.026-11.768,4.562-23.948,4.562-36.202C400.837,176.138,335.865,111.165,256.002,111.165z"/>
	</g>
</g>
<g>
	<g>
		<path d="M333.41,179.587c-1.298-0.073-3.105-0.13-5.319-0.199c-14.635-0.454-53.512-1.66-66.421-14.569    c-3.132-3.13-8.207-3.13-11.338,0c-12.909,12.909-51.786,14.115-66.421,14.569c-2.213,0.067-4.021,0.125-5.319,0.199    c-4.247,0.238-7.569,3.751-7.569,8.004v25.653c0,4.428,3.589,8.017,8.017,8.017c4.427,0,8.017-3.588,8.017-8.017V195.33    c17.18-0.563,50.362-2.2,68.944-14.579c18.583,12.379,51.763,14.014,68.944,14.579v84.463    c-5.765,11.491-13.487,21.606-22.979,30.088c-16.091,14.381-33.594,20.679-45.965,23.432c-12.37-2.753-29.873-9.05-45.965-23.432    c-9.492-8.484-17.216-18.599-22.979-30.088V256c0.001-4.428-3.588-8.017-8.016-8.017s-8.017,3.588-8.017,8.017v25.653    c0,1.201,0.27,2.388,0.791,3.472c6.759,14.068,16.023,26.419,27.537,36.71c19.468,17.399,40.672,24.574,55.034,27.528    c0.533,0.111,1.074,0.165,1.615,0.165s1.083-0.056,1.616-0.165c14.361-2.954,35.565-10.129,55.033-27.528    c11.513-10.29,20.778-22.641,27.538-36.71c0.519-1.084,0.79-2.27,0.79-3.472v-94.063    C340.979,183.338,337.658,179.824,333.41,179.587z"/>
	</g>
</g>
<g>
	<g>
		<path d="M256.002,213.779c-13.851,0-25.119,11.268-25.119,25.119c0,11.048,7.172,20.446,17.102,23.8v27.507    c0,4.428,3.589,8.017,8.017,8.017c4.428,0,8.017-3.588,8.017-8.017v-27.507c9.93-3.354,17.102-12.752,17.102-23.8    C281.121,225.047,269.853,213.779,256.002,213.779z M256.002,247.983c-5.01,0-9.086-4.076-9.086-9.086s4.076-9.086,9.086-9.086    s9.086,4.076,9.086,9.086S261.012,247.983,256.002,247.983z"/>
	</g>
</g>
<g>
</g>
<g>
</g>
<g>
</g>
<g>
</g>
<g>
</g>
<g>
</g>
<g>
</g>
<g>
</g>
<g>
</g>
<g>
</g>
<g>
</g>
<g>
</g>
<g>
</g>
<g>
</g>
<g>
</g>
</svg>
