<?xml version="1.0" encoding="iso-8859-1"?>
<!-- Generator: Adobe Illustrator 19.0.0, SVG Export Plug-In . SVG Version: 6.00 Build 0)  -->
<svg xmlns="http://www.w3.org/2000/svg" xmlns:xlink="http://www.w3.org/1999/xlink" version="1.1" id="Layer_1" x="0px" y="0px" viewBox="0 0 512 512" style="enable-background:new 0 0 512 512;" xml:space="preserve">
<g>
	<g>
		<path d="M457.218,218.074H254.42V74.272C254.42,33.318,221.102,0,180.148,0h-84.28C54.915,0,21.597,33.318,21.597,74.272v75.852    c0,13.07,10.633,23.704,23.704,23.704s23.704-10.634,23.704-23.704V74.272c0-14.813,12.051-26.864,26.864-26.864h84.28    c14.813,0,26.864,12.051,26.864,26.864v33.712c0,4.365,3.538,7.901,7.901,7.901s7.901-3.537,7.901-7.901V74.272    c0-23.527-19.14-42.667-42.667-42.667h-84.28c-23.527,0-42.667,19.14-42.667,42.667v75.852c0,4.357-3.544,7.901-7.901,7.901    c-4.357,0-7.901-3.544-7.901-7.901V74.272c0-32.24,26.229-58.469,58.469-58.469h84.28c32.24,0,58.469,26.229,58.469,58.469    v143.802h-15.802v-67.951c0-4.365-3.538-7.901-7.901-7.901s-7.901,3.537-7.901,7.901v67.951h-2.634    c-18.298,0-33.185,14.887-33.185,33.185v227.556c0,18.298,14.887,33.185,33.185,33.185h185.416c4.364,0,7.901-3.537,7.901-7.901    c0-4.365-3.538-7.901-7.901-7.901H204.379c-9.585,0-17.383-7.798-17.383-17.383v-34.239h287.605v34.239    c0,9.585-7.798,17.383-17.383,17.383h-25.284c-4.364,0-7.901,3.537-7.901,7.901c0,4.365,3.538,7.901,7.901,7.901h25.284    c18.298,0,33.185-14.887,33.185-33.185V293.399v-42.14C490.403,232.961,475.516,218.074,457.218,218.074z M186.996,301.3h44.661    l-44.661,44.661V301.3z M186.996,428.774v-60.746c0.487-0.308,0.949-0.667,1.373-1.091l65.637-65.636h61.931L188.463,428.774    H186.996z M210.812,428.774l126.1-126.099c0.425-0.424,0.784-0.887,1.091-1.374h62.213L272.743,428.774H210.812z M474.601,411.391    v0.703v16.68h-95.229l95.229-95.229V411.391z M474.601,311.196L358.133,427.663c-0.347,0.347-0.649,0.721-0.918,1.11h-62.124    l126.89-126.89c0.188-0.188,0.362-0.382,0.527-0.584h52.092V311.196z M474.601,285.498H186.996v-34.239    c0-9.585,7.798-17.383,17.383-17.383h252.839c9.585,0,17.383,7.798,17.383,17.383V285.498z"/>
	</g>
</g>
<g>
	<g>
		<path d="M366.379,142.222c-13.651,0-24.757,11.106-24.757,24.757s11.106,24.757,24.757,24.757    c13.651,0,24.757-11.106,24.757-24.757S380.03,142.222,366.379,142.222z M366.379,175.934c-4.938,0-8.955-4.017-8.955-8.955    s4.017-8.955,8.955-8.955c4.938,0,8.955,4.017,8.955,8.955S371.317,175.934,366.379,175.934z"/>
	</g>
</g>
<g>
	<g>
		<path d="M437.52,95.837c-19.001-19.001-44.266-29.466-71.141-29.466c-26.874,0-52.139,10.465-71.141,29.467    c-3.086,3.087-3.086,8.089,0,11.174c3.086,3.085,8.089,3.085,11.174,0c16.017-16.018,37.314-24.839,59.966-24.839    c22.652,0,43.95,8.821,59.967,24.839c3.213,3.212,8.64,2.997,11.594-0.454C440.589,103.465,440.397,98.714,437.52,95.837z"/>
	</g>
</g>
<g>
	<g>
		<path d="M419.642,113.717c-14.225-14.226-33.141-22.062-53.263-22.062c-20.121,0-39.036,7.836-53.263,22.062    c-3.086,3.086-3.086,8.089,0,11.173s8.089,3.086,11.173-0.001c11.243-11.241,26.191-17.432,42.089-17.432    c15.899,0,30.847,6.191,42.089,17.433c1.542,1.543,3.565,2.315,5.587,2.315C420.964,127.205,424.51,118.585,419.642,113.717z"/>
	</g>
</g>
<g>
	<g>
		<path d="M401.765,131.596c-9.453-9.453-22.019-14.657-35.386-14.657c-13.366,0-25.932,5.204-35.384,14.656    c-3.086,3.086-3.086,8.089,0,11.173c3.086,3.087,8.089,3.086,11.174,0.001c6.467-6.467,15.065-10.029,24.21-10.029    c9.145,0,17.743,3.562,24.21,10.029c3.045,3.044,8.13,3.044,11.174,0C404.851,139.683,404.85,134.68,401.765,131.596z"/>
	</g>
</g>
<g>
</g>
<g>
</g>
<g>
</g>
<g>
</g>
<g>
</g>
<g>
</g>
<g>
</g>
<g>
</g>
<g>
</g>
<g>
</g>
<g>
</g>
<g>
</g>
<g>
</g>
<g>
</g>
<g>
</g>
</svg>
