<?xml version="1.0" encoding="iso-8859-1"?>
<!-- Generator: Adobe Illustrator 19.0.0, SVG Export Plug-In . SVG Version: 6.00 Build 0)  -->
<svg xmlns="http://www.w3.org/2000/svg" xmlns:xlink="http://www.w3.org/1999/xlink" version="1.1" id="Layer_1" x="0px" y="0px" viewBox="0 0 512 512" style="enable-background:new 0 0 512 512;" xml:space="preserve">
<g>
	<g>
		<path d="M268.827,230.881h-17.102c-4.427,0-8.017,3.588-8.017,8.017s3.589,8.017,8.017,8.017h0.534V256    c0,4.428,3.589,8.017,8.017,8.017s8.017-3.588,8.017-8.017v-9.086h0.534c4.427,0,8.017-3.588,8.017-8.017    S273.254,230.881,268.827,230.881z"/>
	</g>
</g>
<g>
	<g>
		<path d="M121.005,330.29c-1.475-4.175-6.057-6.364-10.229-4.887c-4.175,1.475-6.363,6.055-4.887,10.229    c0.665,1.88,1.002,3.858,1.002,5.879c0,9.725-7.912,17.637-17.637,17.637s-17.638-7.912-17.638-17.637    c0-2.021,0.337-3.999,1.002-5.879c1.475-4.174-0.713-8.754-4.888-10.229c-4.172-1.475-8.754,0.713-10.229,4.887    c-1.272,3.6-1.918,7.374-1.918,11.221c0,18.566,15.105,33.67,33.67,33.67s33.67-15.105,33.67-33.67    C122.923,337.665,122.277,333.89,121.005,330.29z"/>
	</g>
</g>
<g>
	<g>
		<path d="M89.253,307.841c-4.427,0-8.017,3.588-8.017,8.017v17.102c0,4.428,3.589,8.017,8.017,8.017s8.017-3.588,8.017-8.017    v-17.102C97.269,311.43,93.68,307.841,89.253,307.841z"/>
	</g>
</g>
<g>
	<g>
		<path d="M140.56,145.37H37.946c-4.427,0-8.017,3.588-8.017,8.017v25.653c0,4.428,3.589,8.017,8.017,8.017H140.56    c4.427,0,8.017-3.588,8.017-8.017v-25.653C148.576,148.958,144.987,145.37,140.56,145.37z M132.543,171.023h-86.58v-9.62h86.58    V171.023z"/>
	</g>
</g>
<g>
	<g>
		<path d="M132.008,195.608c-4.427,0-8.017,3.588-8.017,8.017v1.069c0,4.428,3.589,8.017,8.017,8.017s8.017-3.588,8.017-8.017    v-1.069C140.025,199.196,136.436,195.608,132.008,195.608z"/>
	</g>
</g>
<g>
	<g>
		<path d="M132.008,221.261c-4.427,0-8.017,3.588-8.017,8.017v1.069c0,4.428,3.589,8.017,8.017,8.017s8.017-3.588,8.017-8.017    v-1.069C140.025,224.849,136.436,221.261,132.008,221.261z"/>
	</g>
</g>
<g>
	<g>
		<path d="M422.747,135.749h68.409c9.136,0,16.568-7.432,16.568-16.568V16.568C507.724,7.432,500.292,0,491.157,0h-68.409    c-9.136,0-16.568,7.432-16.568,16.568v43.29h-51.841c-4.427,0-8.017,3.588-8.017,8.017v180.109H314.78    c5.516-20.926,5.67-40.001,4.799-52.402c-0.436-6.207-7.818-9.595-12.806-5.852c-8.061,6.045-16.519,6.948-20.843,6.948    c-10.078,0-17.384-4.353-20.843-6.947c-2.851-2.14-6.77-2.14-9.621,0c-3.459,2.594-10.766,6.947-20.843,6.947    c-4.325,0-12.783-0.903-20.843-6.948c-4.989-3.742-12.372-0.357-12.806,5.852c-0.87,12.402-0.715,31.478,4.8,52.402H174.23    v-120.25c0-13.851-11.268-25.119-25.119-25.119H29.395c-13.851,0-25.119,11.268-25.119,25.119v171.023    c0,4.428,3.589,8.017,8.017,8.017c4.427,0,8.017-3.588,8.017-8.017V127.733c0-5.01,4.076-9.086,9.086-9.086h119.716    c5.01,0,9.086,4.076,9.086,9.086v256.534c0,5.01-4.076,9.086-9.086,9.086H29.395c-5.01,0-9.086-4.076-9.086-9.086v-42.756    c0-4.428-3.589-8.017-8.017-8.017c-4.427,0-8.017,3.588-8.017,8.017v42.756c0,13.851,11.268,25.119,25.119,25.119h119.716    c13.851,0,25.119-11.268,25.119-25.119v-120.25h36.775c4.078,10.357,9.644,20.86,17.191,30.98    c7.648,10.255,16.821,19.43,27.266,27.273c2.821,2.116,6.806,2.116,9.626,0c10.445-7.842,19.618-17.018,27.266-27.273    c7.547-10.119,13.112-20.624,17.191-30.98h36.775v180.109c0,4.428,3.589,8.017,8.017,8.017h51.841v43.29    c0,9.136,7.432,16.568,16.568,16.568h68.409c9.136,0,16.568-7.432,16.568-16.568V392.818c0-9.136-7.432-16.568-16.568-16.568    h-68.409c-9.136,0-16.568,7.432-16.568,16.568v43.29h-43.825V264.017h43.825v43.29c0,9.136,7.432,16.568,16.568,16.568h68.409    c9.136,0,16.568-7.432,16.568-16.568V204.693c0-9.136-7.432-16.568-16.568-16.568h-68.409c-9.136,0-16.568,7.432-16.568,16.568    v43.29h-43.825V75.891h43.825v43.29C406.18,128.317,413.612,135.749,422.747,135.749z M422.213,16.568    c0-0.294,0.239-0.534,0.534-0.534h68.409c0.295,0,0.534,0.241,0.534,0.534v102.614c0,0.294-0.239,0.534-0.534,0.534h-68.409    c-0.295,0-0.534-0.24-0.534-0.534V16.568z M279.503,285.413c-5.534,7.419-11.984,14.205-19.227,20.23    c-7.243-6.025-13.694-12.81-19.227-20.23c-19.544-26.205-24.115-55.573-24.426-76.013c7.328,2.762,13.921,3.311,17.999,3.311    c11.053,0,19.826-3.584,25.653-6.974c5.828,3.392,14.6,6.974,25.654,6.974c4.078,0,10.67-0.549,17.999-3.311    C303.619,229.838,299.047,259.207,279.503,285.413z M422.213,392.818c0-0.294,0.239-0.534,0.534-0.534h68.409    c0.295,0,0.534,0.24,0.534,0.534v102.614c0,0.294-0.239,0.534-0.534,0.534h-68.409c-0.295,0-0.534-0.241-0.534-0.534V392.818z     M422.213,204.693c0-0.294,0.239-0.534,0.534-0.534h68.409c0.295,0,0.534,0.24,0.534,0.534v102.614    c0,0.294-0.239,0.534-0.534,0.534h-68.409c-0.295,0-0.534-0.241-0.534-0.534V204.693z"/>
	</g>
</g>
<g>
	<g>
		<path d="M474.054,34.205H439.85c-4.427,0-8.017,3.588-8.017,8.017c0,4.428,3.589,8.017,8.017,8.017h34.205    c4.427,0,8.017-3.588,8.017-8.017C482.071,37.793,478.482,34.205,474.054,34.205z"/>
	</g>
</g>
<g>
	<g>
		<path d="M475.123,76.96h-1.069c-4.427,0-8.017,3.588-8.017,8.017c0,4.428,3.589,8.017,8.017,8.017h1.069    c4.427,0,8.017-3.588,8.017-8.017C483.14,80.549,479.551,76.96,475.123,76.96z"/>
	</g>
</g>
<g>
	<g>
		<path d="M440.919,76.96h-1.069c-4.427,0-8.017,3.588-8.017,8.017c0,4.428,3.589,8.017,8.017,8.017h1.069    c4.427,0,8.017-3.588,8.017-8.017C448.935,80.549,445.346,76.96,440.919,76.96z"/>
	</g>
</g>
<g>
	<g>
		<path d="M474.054,222.33H439.85c-4.427,0-8.017,3.588-8.017,8.017s3.589,8.017,8.017,8.017h34.205    c4.427,0,8.017-3.588,8.017-8.017S478.482,222.33,474.054,222.33z"/>
	</g>
</g>
<g>
	<g>
		<path d="M475.123,265.086h-1.069c-4.427,0-8.017,3.588-8.017,8.017c0,4.428,3.589,8.017,8.017,8.017h1.069    c4.427,0,8.017-3.588,8.017-8.017C483.14,268.674,479.551,265.086,475.123,265.086z"/>
	</g>
</g>
<g>
	<g>
		<path d="M440.919,265.086h-1.069c-4.427,0-8.017,3.588-8.017,8.017c0,4.428,3.589,8.017,8.017,8.017h1.069    c4.427,0,8.017-3.588,8.017-8.017C448.935,268.674,445.346,265.086,440.919,265.086z"/>
	</g>
</g>
<g>
	<g>
		<path d="M474.054,410.455H439.85c-4.427,0-8.017,3.588-8.017,8.017c0,4.428,3.589,8.017,8.017,8.017h34.205    c4.427,0,8.017-3.588,8.017-8.017C482.071,414.043,478.482,410.455,474.054,410.455z"/>
	</g>
</g>
<g>
	<g>
		<path d="M475.123,453.211h-1.069c-4.427,0-8.017,3.588-8.017,8.017c0,4.428,3.589,8.017,8.017,8.017h1.069    c4.427,0,8.017-3.588,8.017-8.017C483.14,456.799,479.551,453.211,475.123,453.211z"/>
	</g>
</g>
<g>
	<g>
		<path d="M440.919,453.211h-1.069c-4.427,0-8.017,3.588-8.017,8.017c0,4.428,3.589,8.017,8.017,8.017h1.069    c4.427,0,8.017-3.588,8.017-8.017C448.935,456.799,445.346,453.211,440.919,453.211z"/>
	</g>
</g>
<g>
	<g>
		<path d="M332.456,115.408c-19.28-19.279-44.914-29.897-72.18-29.897s-52.901,10.618-72.181,29.898    c-3.131,3.132-3.131,8.207,0,11.338c3.131,3.13,8.207,3.13,11.338,0c16.251-16.253,37.86-25.202,60.844-25.202    c22.983,0,44.592,8.95,60.844,25.202c3.26,3.259,8.766,3.041,11.763-0.461C335.57,123.148,335.375,118.328,332.456,115.408z"/>
	</g>
</g>
<g>
	<g>
		<path d="M308.27,139.596c-12.819-12.82-29.864-19.88-47.994-19.88s-35.175,7.06-47.994,19.881c-3.131,3.131-3.131,8.207,0,11.337    c3.131,3.13,8.207,3.131,11.337-0.001c9.791-9.791,22.81-15.184,36.658-15.184s26.867,5.393,36.658,15.184    c1.565,1.566,3.617,2.348,5.668,2.348C309.611,153.281,313.209,144.536,308.27,139.596z"/>
	</g>
</g>
<g>
	<g>
		<path d="M284.083,163.782c-6.36-6.359-14.815-9.862-23.809-9.862c-8.994,0-17.448,3.502-23.807,9.862    c-3.131,3.131-3.131,8.207,0,11.337c3.132,3.131,8.207,3.132,11.338,0.001c3.332-3.331,7.76-5.166,12.471-5.166    s9.14,1.835,12.471,5.166c3.262,3.259,8.765,3.041,11.763-0.461C287.196,171.522,287.001,166.7,284.083,163.782z"/>
	</g>
</g>
<g>
</g>
<g>
</g>
<g>
</g>
<g>
</g>
<g>
</g>
<g>
</g>
<g>
</g>
<g>
</g>
<g>
</g>
<g>
</g>
<g>
</g>
<g>
</g>
<g>
</g>
<g>
</g>
<g>
</g>
</svg>
