<?xml version="1.0" encoding="iso-8859-1"?>
<!-- Generator: Adobe Illustrator 19.0.0, SVG Export Plug-In . SVG Version: 6.00 Build 0)  -->
<svg xmlns="http://www.w3.org/2000/svg" xmlns:xlink="http://www.w3.org/1999/xlink" version="1.1" id="Layer_1" x="0px" y="0px" viewBox="0 0 512 512" style="enable-background:new 0 0 512 512;" xml:space="preserve">
<g>
	<g>
		<path d="M316.855,373.945h-0.544v-44.026c0-33.267-27.064-60.331-60.331-60.331c-33.267,0-60.331,27.064-60.331,60.331v44.026    h-0.544c-14.086,0-25.546,11.46-25.546,25.546v104.357c0,4.504,3.649,8.153,8.153,8.153h156.535c4.504,0,8.153-3.649,8.153-8.153    V399.49C342.401,385.404,330.941,373.945,316.855,373.945z M211.955,329.919c0-24.276,19.75-44.025,44.026-44.025    c24.276,0,44.025,19.75,44.025,44.025v44.026h-88.051V329.919z M326.095,495.694H185.866V399.49c0-5.095,4.145-9.24,9.24-9.24    h121.749c5.095,0,9.24,4.145,9.24,9.24V495.694z"/>
	</g>
</g>
<g>
	<g>
		<path d="M255.98,400.034c-14.086,0-25.546,11.46-25.546,25.546c0,11.236,7.294,20.793,17.393,24.204v10.581    c0,4.504,3.649,8.153,8.153,8.153c4.504,0,8.153-3.649,8.153-8.153v-10.581c10.099-3.411,17.393-12.969,17.393-24.204    C281.526,411.494,270.066,400.034,255.98,400.034z M255.98,434.82c-5.095,0-9.24-4.145-9.24-9.24c0-5.095,4.145-9.24,9.24-9.24    c5.095,0,9.24,4.145,9.24,9.24C265.22,430.675,261.075,434.82,255.98,434.82z"/>
	</g>
</g>
<g>
	<g>
		<path d="M482.185,105.322c-0.482-5.431-2.899-10.567-6.753-14.422c-10.468-10.467-21.727-20.247-33.464-29.068    c-3.6-2.707-8.711-1.981-11.415,1.619c-2.706,3.6-1.981,8.711,1.619,11.415c11.126,8.363,21.802,17.637,31.729,27.564    c2.725,2.723,2.723,7.268,0,9.991s-7.268,2.725-9.991,0.001c-52.867-52.869-123.16-81.985-197.93-81.985    s-145.061,29.117-197.93,81.985c-2.51,2.511-6.64,2.74-9.411,0.52c-3.237-2.596-3.52-7.575-0.581-10.511    c55.537-55.539,129.377-86.126,207.921-86.126c49.142,0,97.638,12.254,140.245,35.439c3.957,2.151,8.906,0.69,11.059-3.264    c2.151-3.956,0.69-8.906-3.264-11.059C359.028,12.94,307.837,0,255.98,0C173.083,0,95.146,32.282,36.528,90.9    c-7.434,7.436-8.981,19.324-3.621,28.393c4.743,8.022,14.027,12.518,23.256,11.29c5.057-0.673,9.811-3.022,13.417-6.63    c49.788-49.789,115.987-77.21,186.4-77.21s136.612,27.421,186.398,77.209c6.911,6.914,17.736,8.802,26.573,4.591    C477.707,124.369,483.041,114.97,482.185,105.322z"/>
	</g>
</g>
<g>
	<g>
		<path d="M426.843,169.361c-0.482-5.431-2.898-10.568-6.752-14.422c-43.836-43.834-102.117-67.975-164.111-67.975    c-12.239,0-24.521,0.956-36.505,2.838c-4.449,0.7-7.488,4.871-6.789,9.319c0.7,4.449,4.883,7.483,9.319,6.789    c11.151-1.752,22.581-2.642,33.975-2.642c57.636,0,111.824,22.444,152.579,63.201c2.724,2.724,2.722,7.268-0.001,9.991    c-2.724,2.724-7.268,2.724-9.992,0c-38.087-38.085-88.725-59.059-142.586-59.059s-104.499,20.975-142.587,59.06    c-2.51,2.512-6.64,2.739-9.411,0.52c-3.238-2.595-3.52-7.575-0.582-10.511c20.871-20.872,45.146-36.948,72.153-47.782    c4.179-1.676,6.207-6.423,4.531-10.603c-1.677-4.18-6.424-6.208-10.603-4.531c-29.06,11.66-55.173,28.948-77.611,51.386    c-6.914,6.911-8.802,17.736-4.591,26.573c4.173,8.756,13.573,14.087,23.22,13.232c5.431-0.482,10.568-2.897,14.422-6.752    c35.008-35.007,81.552-54.286,131.058-54.286s96.049,19.279,131.057,54.285c6.913,6.911,17.735,8.802,26.572,4.59    C422.364,188.408,427.697,179.009,426.843,169.361z"/>
	</g>
</g>
<g>
	<g>
		<path d="M371.498,233.402c-0.482-5.431-2.898-10.568-6.752-14.422c-29.054-29.052-67.68-45.053-108.766-45.053    s-79.712,16-108.765,45.052c-7.436,7.434-8.982,19.324-3.622,28.393c4.743,8.021,14.028,12.516,23.256,11.289    c5.056-0.673,9.81-3.021,13.416-6.628c20.226-20.225,47.115-31.362,75.714-31.362c28.599,0,55.488,11.138,75.712,31.362    c6.913,6.911,17.735,8.802,26.572,4.589C367.019,252.45,372.352,243.05,371.498,233.402z M353.216,240.502    c-2.723,2.725-7.269,2.723-9.992,0c-23.304-23.303-54.288-36.137-87.243-36.137c-32.955,0-63.938,12.834-87.243,36.137    c-2.51,2.51-6.64,2.739-9.411,0.52c-3.238-2.595-3.519-7.575-0.581-10.511c25.973-25.974,60.504-40.277,97.234-40.277    c36.73,0,71.263,14.303,97.235,40.277C355.94,233.234,355.94,237.78,353.216,240.502z"/>
	</g>
</g>
<g>
</g>
<g>
</g>
<g>
</g>
<g>
</g>
<g>
</g>
<g>
</g>
<g>
</g>
<g>
</g>
<g>
</g>
<g>
</g>
<g>
</g>
<g>
</g>
<g>
</g>
<g>
</g>
<g>
</g>
</svg>
