<?xml version="1.0" encoding="iso-8859-1"?>
<!-- Generator: Adobe Illustrator 19.0.0, SVG Export Plug-In . SVG Version: 6.00 Build 0)  -->
<svg xmlns="http://www.w3.org/2000/svg" xmlns:xlink="http://www.w3.org/1999/xlink" version="1.1" id="Layer_1" x="0px" y="0px" viewBox="0 0 512 512" style="enable-background:new 0 0 512 512;" xml:space="preserve">
<g>
	<g>
		<path d="M503.983,153.386c4.428,0,8.017-3.588,8.017-8.017V16.568C512,7.432,504.568,0,495.432,0H84.977    c-9.136,0-16.568,7.432-16.568,16.568v120.25H16.568C7.432,136.818,0,144.25,0,153.386v265.086    c0,9.136,7.432,16.568,16.568,16.568h25.653c4.428,0,8.017-3.588,8.017-8.017c0-4.428-3.588-8.017-8.017-8.017H16.568    c-0.294,0-0.534-0.241-0.534-0.534V246.914h411.524v171.557c0,0.294-0.241,0.534-0.534,0.534H323.875V401.37    c0-13.851-11.268-25.119-25.119-25.119h-0.534v-43.29c0-32.711-26.612-59.324-59.324-59.324s-59.324,26.612-59.324,59.324v43.29    h-0.534c-13.851,0-25.119,11.268-25.119,25.119v17.637H84.977c-4.428,0-8.017,3.588-8.017,8.017c0,4.428,3.588,8.017,8.017,8.017    h68.944v68.944c0,4.428,3.588,8.017,8.017,8.017h153.921c4.428,0,8.017-3.588,8.017-8.017V435.04h103.148    c9.136,0,16.568-7.432,16.568-16.568v-120.25h51.841c9.136,0,16.568-7.432,16.568-16.568v-94.063c0-4.428-3.588-8.017-8.017-8.017    c-4.428,0-8.017,3.588-8.017,8.017v94.063c0,0.294-0.241,0.534-0.534,0.534h-51.841V153.386c0-9.136-7.432-16.568-16.568-16.568    H84.443v-26.722h411.524v35.273C495.967,149.798,499.555,153.386,503.983,153.386z M195.608,332.96    c0-23.871,19.42-43.29,43.29-43.29s43.29,19.42,43.29,43.29v43.29h-86.58V332.96z M307.841,495.967H169.954V401.37    c0-5.01,4.076-9.086,9.086-9.086h119.716c5.01,0,9.086,4.076,9.086,9.086V495.967z M427.023,152.852    c0.294,0,0.534,0.24,0.534,0.534v77.495H16.033v-77.495c0-0.294,0.241-0.534,0.534-0.534H427.023z M84.443,94.063V16.568    c0-0.294,0.241-0.534,0.534-0.534h410.455c0.294,0,0.534,0.241,0.534,0.534v77.495H84.443z"/>
	</g>
</g>
<g>
	<g>
		<path d="M444.125,34.205c-13.851,0-25.119,11.268-25.119,25.119c0,13.851,11.268,25.119,25.119,25.119    c13.851,0,25.119-11.268,25.119-25.119C469.244,45.473,457.976,34.205,444.125,34.205z M444.125,68.409    c-5.01,0-9.086-4.076-9.086-9.086c0-5.01,4.076-9.086,9.086-9.086c5.01,0,9.086,4.076,9.086,9.086    C453.211,64.333,449.135,68.409,444.125,68.409z"/>
	</g>
</g>
<g>
	<g>
		<path d="M375.716,34.205c-13.851,0-25.119,11.268-25.119,25.119c0,13.851,11.268,25.119,25.119,25.119    c13.851,0,25.119-11.268,25.119-25.119C400.835,45.473,389.567,34.205,375.716,34.205z M375.716,68.409    c-5.01,0-9.086-4.076-9.086-9.086c0-5.01,4.076-9.086,9.086-9.086c5.01,0,9.086,4.076,9.086,9.086    C384.802,64.333,380.726,68.409,375.716,68.409z"/>
	</g>
</g>
<g>
	<g>
		<path d="M307.307,34.205c-13.851,0-25.119,11.268-25.119,25.119c0,13.851,11.268,25.119,25.119,25.119    c13.851,0,25.119-11.268,25.119-25.119C332.426,45.473,321.158,34.205,307.307,34.205z M307.307,68.409    c-5.01,0-9.086-4.076-9.086-9.086c0-5.01,4.076-9.086,9.086-9.086c5.01,0,9.086,4.076,9.086,9.086    C316.393,64.333,312.317,68.409,307.307,68.409z"/>
	</g>
</g>
<g>
	<g>
		<path d="M375.716,171.023c-13.851,0-25.119,11.268-25.119,25.119s11.268,25.119,25.119,25.119    c13.851,0,25.119-11.268,25.119-25.119S389.567,171.023,375.716,171.023z M375.716,205.228c-5.01,0-9.086-4.076-9.086-9.086    s4.076-9.086,9.086-9.086c5.01,0,9.086,4.076,9.086,9.086S380.726,205.228,375.716,205.228z"/>
	</g>
</g>
<g>
	<g>
		<path d="M307.307,171.023c-13.851,0-25.119,11.268-25.119,25.119s11.268,25.119,25.119,25.119    c13.851,0,25.119-11.268,25.119-25.119S321.158,171.023,307.307,171.023z M307.307,205.228c-5.01,0-9.086-4.076-9.086-9.086    s4.076-9.086,9.086-9.086c5.01,0,9.086,4.076,9.086,9.086S312.317,205.228,307.307,205.228z"/>
	</g>
</g>
<g>
	<g>
		<path d="M238.898,171.023c-13.851,0-25.119,11.268-25.119,25.119s11.268,25.119,25.119,25.119s25.119-11.268,25.119-25.119    S252.748,171.023,238.898,171.023z M238.898,205.228c-5.01,0-9.086-4.076-9.086-9.086s4.076-9.086,9.086-9.086    s9.086,4.076,9.086,9.086S243.908,205.228,238.898,205.228z"/>
	</g>
</g>
<g>
	<g>
		<path d="M392.818,273.637h-85.511c-4.428,0-8.017,3.588-8.017,8.017c0,4.428,3.588,8.017,8.017,8.017h85.511    c4.428,0,8.017-3.588,8.017-8.017C400.835,277.225,397.247,273.637,392.818,273.637z"/>
	</g>
</g>
<g>
	<g>
		<path d="M392.818,307.841h-51.307c-4.428,0-8.017,3.588-8.017,8.017c0,4.428,3.588,8.017,8.017,8.017h51.307    c4.428,0,8.017-3.588,8.017-8.017C400.835,311.43,397.247,307.841,392.818,307.841z"/>
	</g>
</g>
<g>
	<g>
		<path d="M238.898,401.904c-13.851,0-25.119,11.268-25.119,25.119c0,11.048,7.172,20.446,17.102,23.8v27.507    c0,4.428,3.588,8.017,8.017,8.017s8.017-3.588,8.017-8.017v-27.507c9.93-3.354,17.102-12.752,17.102-23.8    C264.017,413.172,252.748,401.904,238.898,401.904z M238.898,436.109c-5.01,0-9.086-4.076-9.086-9.086    c0-5.01,4.076-9.086,9.086-9.086s9.086,4.076,9.086,9.086C247.983,432.033,243.908,436.109,238.898,436.109z"/>
	</g>
</g>
<g>
</g>
<g>
</g>
<g>
</g>
<g>
</g>
<g>
</g>
<g>
</g>
<g>
</g>
<g>
</g>
<g>
</g>
<g>
</g>
<g>
</g>
<g>
</g>
<g>
</g>
<g>
</g>
<g>
</g>
</svg>
