<?xml version="1.0" encoding="iso-8859-1"?>
<!-- Generator: Adobe Illustrator 19.0.0, SVG Export Plug-In . SVG Version: 6.00 Build 0)  -->
<svg xmlns="http://www.w3.org/2000/svg" xmlns:xlink="http://www.w3.org/1999/xlink" version="1.1" id="Layer_1" x="0px" y="0px" viewBox="0 0 512 512" style="enable-background:new 0 0 512 512;" xml:space="preserve">
<g>
	<g>
		<path d="M333.444,346.33c-24.713,20.264-72.528,20.562-73.003,20.563c-48.55,0-88.049-39.498-88.049-88.049    c0-48.55,39.498-88.049,88.049-88.049c50.83,0,83.674,30.268,83.674,77.111c0,17.816-9.921,35.451-26.539,47.175    c-10.695,7.544-20.926,10.027-25.125,8.536c-5.402-1.924-2.169-14.079-1.82-15.323l29.981-79.042    c1.607-4.236-0.524-8.973-4.761-10.58c-4.234-1.606-8.973,0.524-10.58,4.761l-4.724,12.453    c-3.672-8.505-9.613-14.883-17.376-18.431c-11.078-5.064-24.086-3.579-36.628,4.18c-11.497,7.113-21.406,18.857-27.902,33.067    c-6.496,14.211-8.892,29.389-6.749,42.737c2.34,14.563,9.728,25.371,20.805,30.434c4.318,1.974,8.93,2.952,13.693,2.952    c7.455,0,15.283-2.399,22.936-7.134c1.327-0.82,2.628-1.71,3.91-2.65c1.131,8.023,5.279,15.028,13.71,18.03    c10.28,3.662,25.639-0.395,40.085-10.586c20.97-14.792,33.488-37.44,33.488-60.582c0-55.937-40.219-93.517-100.08-93.517    c-57.597,0-104.455,46.858-104.455,104.455s46.858,104.455,104.455,104.455c2.198,0.002,54.132-0.272,83.409-24.28    c3.503-2.873,4.014-8.043,1.142-11.546C342.115,343.969,336.946,343.459,333.444,346.33z M282.306,283.805    c-5.164,11.298-12.839,20.509-21.612,25.937c-4.475,2.768-13.178,6.869-21.175,3.212c-7.998-3.655-10.592-12.919-11.427-18.115    c-1.636-10.186,0.307-22.017,5.471-33.314c5.164-11.298,12.839-20.508,21.612-25.937c6.181-3.824,14.183-6.407,21.175-3.211    c7.999,3.655,10.593,12.919,11.427,18.114C289.587,261.749,287.007,273.523,282.306,283.805z"/>
	</g>
</g>
<g>
	<g>
		<path d="M381.106,206.645c-10.053-22.312-25.963-40.928-46.008-53.833c-22.855-14.713-50.734-22.174-82.86-22.174    c-83.228,0-150.94,66.24-150.94,147.659c0,36.028,13.412,70.728,37.766,97.704c24.094,26.689,57.134,43.967,93.038,48.651    c0.36,0.047,0.718,0.07,1.071,0.07c4.058,0,7.585-3.011,8.125-7.142c0.586-4.492-2.58-8.61-7.073-9.195    c-66.427-8.668-116.52-64.594-116.52-130.088c0-72.373,60.352-131.253,134.534-131.253c73.103,0,102.747,41.564,113.911,66.341    c17.571,38.995,13.216,88.311-10.132,114.713c-3.001,3.395-2.683,8.578,0.71,11.58c3.395,3.001,8.577,2.682,11.58-0.71    C396.107,307.531,401.49,251.883,381.106,206.645z"/>
	</g>
</g>
<g>
	<g>
		<path d="M423.912,217.544c-1.06-4.404-5.492-7.118-9.894-6.057c-4.405,1.06-7.117,5.49-6.057,9.894    c2.874,11.952,4.332,24.294,4.332,36.684c0,75.017-52.754,139.663-128.287,157.206c-4.413,1.026-7.16,5.434-6.135,9.846    c0.879,3.788,4.253,6.348,7.983,6.348c0.615,0,1.239-0.069,1.863-0.214c39.476-9.168,75.257-31.204,100.75-62.051    c26.32-31.846,40.233-70.277,40.233-111.135C428.699,244.383,427.088,230.749,423.912,217.544z"/>
	</g>
</g>
<g>
	<g>
		<path d="M412.029,388.159c-3.371-3.03-8.558-2.754-11.585,0.616c-35.202,39.155-85.566,61.61-138.181,61.61    c-71.583,0-135.58-39.982-167.016-104.343c-1.988-4.07-6.903-5.76-10.972-3.77c-4.071,1.988-5.76,6.901-3.771,10.972    c16.379,33.534,41.703,61.882,73.236,81.98c32.4,20.653,69.926,31.567,108.523,31.567c57.262-0.001,112.073-24.438,150.382-67.047    C415.674,396.374,415.399,391.189,412.029,388.159z"/>
	</g>
</g>
<g>
	<g>
		<path d="M408.451,174.732c-34.849-51.581-92.768-82.375-154.937-82.375c-103.031,0-186.852,83.822-186.852,186.852    c0,7.394,0.436,14.84,1.298,22.134c0.493,4.172,4.035,7.242,8.137,7.242c0.32,0,0.645-0.02,0.972-0.058    c4.5-0.53,7.717-4.609,7.185-9.109c-0.786-6.657-1.185-13.457-1.185-20.21c-0.001-93.983,76.46-170.446,170.445-170.446    c56.711,0,109.549,28.096,141.342,75.153c2.535,3.755,7.635,4.74,11.389,2.206C410,183.585,410.986,178.486,408.451,174.732z"/>
	</g>
</g>
<g>
	<g>
		<path d="M425.078,137.832c-25.585-35.341-61.047-62.212-102.554-77.707c-4.241-1.582-8.97,0.571-10.554,4.816    c-1.584,4.245,0.571,8.97,4.816,10.554c78.934,29.467,131.968,104.009,131.968,185.484c0,21.3-3.479,42.258-10.341,62.291    c-1.794,5.236,2.216,10.864,7.761,10.864c3.408,0,6.593-2.142,7.76-5.548c7.449-21.749,11.225-44.495,11.225-67.607    C465.16,216.638,451.3,174.054,425.078,137.832z"/>
	</g>
</g>
<g>
	<g>
		<path d="M286.079,47.976c-11.071-1.518-22.396-2.288-33.659-2.288c-63.892,0-123.97,24.224-169.169,68.211    c-45.259,44.046-70.184,102.624-70.184,164.945s24.926,120.899,70.184,164.945C128.45,487.776,188.528,512,252.42,512    c4.53,0,8.203-3.672,8.203-8.203c0-4.532-3.673-8.203-8.203-8.203c-122.933,0-222.947-97.233-222.947-216.749    S129.487,62.094,252.42,62.094c10.52,0,21.094,0.719,31.431,2.136c4.481,0.608,8.625-2.523,9.241-7.013    C293.708,52.729,290.568,48.591,286.079,47.976z"/>
	</g>
</g>
<g>
	<g>
		<path d="M478.337,142.202c-18.886-34.875-46.322-65.379-79.342-88.218c-3.725-2.576-8.837-1.646-11.413,2.079    c-2.577,3.726-1.646,8.837,2.079,11.414c63.94,44.224,102.112,116.221,102.112,192.591c0,115.567-88.137,215.815-205.014,233.188    c-4.482,0.666-7.574,4.84-6.908,9.32c0.606,4.073,4.107,6.998,8.104,6.998c0.401,0,0.808-0.03,1.216-0.09    c60.354-8.971,115.737-38.866,155.95-84.179c40.664-45.824,63.058-104.505,63.058-165.238    C508.18,219.011,497.862,178.254,478.337,142.202z"/>
	</g>
</g>
<g>
	<g>
		<path d="M370.145,31.495C331.085,10.892,286.944,0,242.492,0c-49.049,0-97.176,13.118-139.178,37.935    C62.546,62.023,28.511,96.444,4.89,137.475c-3.083,5.356,0.886,12.297,7.102,12.297c2.838,0.001,5.599-1.474,7.117-4.11    C65.007,65.934,150.602,16.407,242.492,16.407c41.793,0,83.289,10.236,119.999,29.601c4.008,2.114,8.969,0.578,11.083-3.429    C375.688,38.572,374.153,33.609,370.145,31.495z"/>
	</g>
</g>
<g>
</g>
<g>
</g>
<g>
</g>
<g>
</g>
<g>
</g>
<g>
</g>
<g>
</g>
<g>
</g>
<g>
</g>
<g>
</g>
<g>
</g>
<g>
</g>
<g>
</g>
<g>
</g>
<g>
</g>
</svg>
