<?xml version="1.0" encoding="iso-8859-1"?>
<!-- Generator: Adobe Illustrator 19.0.0, SVG Export Plug-In . SVG Version: 6.00 Build 0)  -->
<svg xmlns="http://www.w3.org/2000/svg" xmlns:xlink="http://www.w3.org/1999/xlink" version="1.1" id="Layer_1" x="0px" y="0px" viewBox="0 0 512.001 512.001" style="enable-background:new 0 0 512.001 512.001;" xml:space="preserve">
<g>
	<g>
		<path d="M357.59,127.942c-0.198-0.116-0.4-0.217-0.604-0.314c-0.995-37.292-7.539-84.071-39.491-109.543    C294.967,0.123,262.87-4.414,222.083,4.585c-43.462-9.107-75.576-4.675-98.135,13.529c-29.624,23.903-35.87,65.96-36.718,109.527    c-0.112,0.058-0.227,0.109-0.338,0.173c-10.313,5.943-16.721,17.022-16.721,28.916c0.001,15.739,11.032,29.325,26.338,32.606    c6.097,15.454,15.062,29.777,26.611,42.23c3.847,4.148,10.876,2.912,13.104-2.275c22.097,23.493,52.914,37.038,85.905,37.038    c32.99,0,63.807-13.545,85.905-37.038c2.225,5.18,9.26,6.423,13.104,2.275c11.554-12.458,20.522-26.79,26.62-42.252    c0.19-0.03,0.378-0.055,0.568-0.098c15.167-3.536,25.761-16.894,25.761-32.486C374.086,144.943,367.765,133.913,357.59,127.942z     M86.056,156.728c0-2.407,0.506-4.748,1.434-6.899c0.45,6.086,1.305,12.103,2.556,18.013    C87.541,164.798,86.056,160.909,86.056,156.728z M307.372,182.673h-41.563c-15.036,0-27.267-12.233-27.267-27.267v-7.677h68.83    V182.673z M307.372,131.844H230.6c-4.386,0-7.942,3.555-7.942,7.942v15.619c0,23.794,19.357,43.151,43.151,43.151h41.563v6.053    c-19.018,28.726-50.758,45.835-85.244,45.835c-34.487,0-66.227-17.108-85.244-45.836v-6.052h41.563    c23.794,0,43.151-19.357,43.151-43.151v-15.619c0-4.387-3.556-7.942-7.942-7.942h-76.772v-13.603    c7.515-5.522,22.521-14.038,42.425-12.884c18.42,1.073,31.538,9.922,37.717,15.101c2.951,2.474,7.253,2.474,10.204,0    c6.179-5.179,19.297-14.029,37.718-15.101c19.893-1.158,34.91,7.363,42.424,12.884V131.844z M136.885,182.673v-34.945h68.83v7.677    c0,15.035-12.232,27.267-27.267,27.267H136.885z M323.256,202.775v-88.404c0-2.359-1.048-4.596-2.861-6.105    c-7.039-5.858-25.653-18.902-51.776-18.902c-1.506,0-3.039,0.043-4.595,0.135c-18.762,1.093-33.085,8.625-41.896,14.858    c-8.81-6.234-23.133-13.765-41.894-14.858c-28.535-1.669-48.927,12.571-56.372,18.767c-1.813,1.509-2.861,3.745-2.861,6.105    v88.404c-11.714-18.762-18.002-40.492-18.002-62.989c0-41.713,3.674-87.321,30.924-109.309    c18.619-15.024,47.731-18.387,86.527-9.998c1.137,0.244,2.315,0.239,3.448-0.021c36.661-8.378,64.819-5,83.695,10.047    c22.654,18.06,33.665,53.806,33.665,109.282C341.258,162.282,334.97,184.014,323.256,202.775z M354.205,167.876    c1.254-5.919,2.11-11.945,2.562-18.039c0.928,2.151,1.435,4.49,1.435,6.893C358.201,160.94,356.72,164.832,354.205,167.876z"/>
	</g>
</g>
<g>
	<g>
		<path d="M357.672,385.989c-4.386,0-7.942,3.555-7.942,7.942v102.187H127.352c5.135-3.232,10.303-7.037,15.354-11.551    c11.407-10.195,20.585-22.431,27.28-36.368c0.516-1.074,0.784-2.249,0.784-3.439v-93.186c0-4.213-3.291-7.694-7.498-7.929    c-1.286-0.072-3.077-0.129-5.269-0.197c-13.709-0.426-48.872-1.523-63.475-12.449v-21.782c0-14.306,11.639-25.944,25.944-25.944    h29.121l65.529,122.867c2.933,5.499,11.082,5.5,14.015,0l65.529-122.867h29.121c14.305,0,25.944,11.638,25.944,25.944v42.357    c0,4.387,3.556,7.942,7.942,7.942c4.386,0,7.942-3.555,7.942-7.942v-42.357c0.001-23.065-18.763-41.829-41.827-41.829H120.471    c-23.063,0-41.828,18.764-41.828,41.828v21.782c-14.604,10.927-49.768,12.023-63.475,12.449c-2.192,0.067-3.984,0.124-5.269,0.197    c-4.207,0.236-7.498,3.716-7.498,7.929v25.414c0,4.387,3.556,7.942,7.942,7.942s7.942-3.555,7.942-7.942v-17.748    c17.02-0.558,49.893-2.179,68.301-14.443c18.408,12.263,51.281,13.884,68.301,14.443v83.676    c-5.71,11.382-13.362,21.404-22.765,29.808c-15.941,14.248-33.281,20.486-45.536,23.214c-12.255-2.728-29.595-8.966-45.536-23.214    c-9.403-8.405-17.055-18.425-22.765-29.808v-23.571c0-4.387-3.556-7.942-7.942-7.942c-4.386,0-7.942,3.555-7.942,7.942v25.414    c0,1.19,0.268,2.366,0.784,3.439c6.696,13.937,15.873,26.172,27.28,36.368c19.262,17.216,40.239,24.326,54.466,27.26    c0.534,0.113,1.088,0.176,1.655,0.176h271.086c4.386,0,7.942-3.555,7.942-7.942V393.931    C365.613,389.544,362.058,385.989,357.672,385.989z M222.129,385.524l-9.007-16.888c0.001-0.041,0.006-0.08,0.006-0.121v-42.887    h18.002v42.887c0,0.041,0.005,0.08,0.006,0.121L222.129,385.524z M247.013,318.473l7.041-35.202h22.609l-29.65,55.594V318.473z     M237.855,283.272l-5.295,26.473h-20.864l-5.295-26.473H237.855z M190.203,283.272l7.041,35.202v20.392l-29.65-55.594H190.203z"/>
	</g>
</g>
<g>
	<g>
		<path d="M222.129,419.873c-4.386,0-7.942,3.555-7.942,7.942v1.059c0,4.387,3.556,7.942,7.942,7.942s7.942-3.555,7.942-7.942    v-1.059C230.07,423.428,226.515,419.873,222.129,419.873z"/>
	</g>
</g>
<g>
	<g>
		<path d="M222.129,445.288c-4.386,0-7.942,3.555-7.942,7.942v1.059c0,4.387,3.556,7.942,7.942,7.942s7.942-3.555,7.942-7.942    v-1.059C230.07,448.843,226.515,445.288,222.129,445.288z"/>
	</g>
</g>
<g>
	<g>
		<path d="M222.129,470.702c-4.386,0-7.942,3.555-7.942,7.942v1.059c0,4.387,3.556,7.942,7.942,7.942s7.942-3.555,7.942-7.942    v-1.059C230.07,474.257,226.515,470.702,222.129,470.702z"/>
	</g>
</g>
<g>
	<g>
		<path d="M86.585,376.457c-4.386,0-7.942,3.555-7.942,7.942v42.357c0,4.386,3.556,7.942,7.942,7.942    c4.386,0,7.942-3.555,7.942-7.942v-42.357C94.527,380.012,90.972,376.457,86.585,376.457z"/>
	</g>
</g>
<g>
	<g>
		<path d="M86.585,444.229c-4.386,0-7.942,3.555-7.942,7.942v1.059c0,4.387,3.556,7.942,7.942,7.942    c4.386,0,7.942-3.555,7.942-7.942v-1.059C94.527,447.784,90.972,444.229,86.585,444.229z"/>
	</g>
</g>
<g>
	<g>
		<path d="M507.301,235.827l-16.943-16.943c-2.127-2.126-5.273-2.869-8.127-1.919l-17.908,5.969    c-1.341-4.059-3.102-7.863-5.23-11.324l16.166-10.777l12.339,12.339c3.102,3.101,8.13,3.101,11.231,0    c3.102-3.103,3.102-8.13,0-11.232l-16.943-16.943c-2.677-2.676-6.87-3.092-10.021-0.992l-23.311,15.541    c-1.064-0.851-2.159-1.65-3.289-2.384c3.174-4.177,5.061-9.382,5.061-15.021c0-10.945-7.105-20.255-16.943-23.578V12.715    c0-4.387-3.556-7.942-7.942-7.942c-4.386,0-7.942,3.555-7.942,7.942v145.851c-9.837,3.323-16.943,12.633-16.943,23.578    c0,5.639,1.888,10.843,5.061,15.021c-1.129,0.734-2.225,1.532-3.289,2.384l-23.311-15.541c-3.148-2.1-7.345-1.684-10.021,0.992    l-16.943,16.943c-3.102,3.103-3.102,8.13,0,11.232c3.102,3.101,8.13,3.101,11.231,0l12.339-12.339l16.166,10.777    c-2.128,3.462-3.888,7.265-5.23,11.324l-17.908-5.969c-2.854-0.951-6.001-0.208-8.127,1.919l-16.943,16.943    c-3.102,3.103-3.102,8.13,0,11.232c1.55,1.55,3.583,2.325,5.616,2.325s4.065-0.775,5.615-2.325l13.473-13.473l15.391,5.131    c-0.04,0.903-0.064,1.811-0.064,2.726c0,1.405,0.06,2.793,0.156,4.17l-5.605-2.802c-3.058-1.529-6.751-0.929-9.167,1.487    l-16.943,16.943c-3.102,3.103-3.102,8.13,0,11.232c1.55,1.55,3.583,2.325,5.616,2.325s4.065-0.775,5.615-2.325l12.896-12.896    l11.823,5.911c0.291,0.146,0.588,0.266,0.887,0.373c7.153,15.421,20.852,25.88,36.55,25.88s29.397-10.458,36.55-25.88    c0.299-0.107,0.596-0.227,0.887-0.373l11.823-5.911l12.896,12.896c3.23,3.229,8.684,3.013,11.654-0.456    c2.662-3.109,2.469-7.885-0.423-10.777l-16.943-16.943c-2.417-2.417-6.112-3.017-9.167-1.487l-5.605,2.802    c0.094-1.377,0.156-2.765,0.156-4.17c0-0.915-0.023-1.823-0.064-2.726l15.391-5.13l13.473,13.473    c3.23,3.229,8.684,3.013,11.654-0.455C510.385,243.495,510.193,238.719,507.301,235.827z M425.443,173.143    c4.963,0,9.001,4.038,9.001,9.001s-4.038,9.001-9.001,9.001c-4.963,0-9.001-4.039-9.001-9.001    C416.442,177.18,420.48,173.143,425.443,173.143z M425.443,275.859c-14.305,0-25.944-15.438-25.944-34.415    s11.639-34.415,25.944-34.415c14.305,0,25.944,15.438,25.944,34.415S439.748,275.859,425.443,275.859z"/>
	</g>
</g>
<g>
</g>
<g>
</g>
<g>
</g>
<g>
</g>
<g>
</g>
<g>
</g>
<g>
</g>
<g>
</g>
<g>
</g>
<g>
</g>
<g>
</g>
<g>
</g>
<g>
</g>
<g>
</g>
<g>
</g>
</svg>
