<?xml version="1.0" encoding="iso-8859-1"?>
<!-- Generator: Adobe Illustrator 19.0.0, SVG Export Plug-In . SVG Version: 6.00 Build 0)  -->
<svg xmlns="http://www.w3.org/2000/svg" xmlns:xlink="http://www.w3.org/1999/xlink" version="1.1" id="Layer_1" x="0px" y="0px" viewBox="0 0 512 512" style="enable-background:new 0 0 512 512;" xml:space="preserve">
<g>
	<g>
		<path d="M505.928,290.989l-14.254-3.564c2.133-13.143,3.224-26.565,3.224-39.966c0-66.096-25.739-128.236-72.476-174.973    S313.545,0.011,247.449,0.011c-54.845,0-106.796,17.572-150.242,50.816c-3.517,2.69-4.186,7.723-1.494,11.238    c2.69,3.517,7.721,4.186,11.238,1.494c17.598-13.466,36.692-24.176,56.85-31.997c-13.751,11.235-26.495,25.326-37.871,42.092    c-11.176,16.472-20.567,34.852-28.047,54.625H49.053c8.088-13.439,17.579-26.129,28.41-37.848    c3.006-3.252,2.806-8.323-0.446-11.329c-3.25-3.005-8.322-2.804-11.329,0.446C23.329,125.379,0,185.012,0,247.46    c0,66.096,25.739,128.236,72.476,174.973c46.737,46.736,108.876,72.476,174.973,72.476c36.115,0,70.876-7.615,103.382-22.593    l45.406,37.838c2.936,2.448,7.328,2.448,10.266,0l102.614-85.511c1.828-1.523,2.884-3.78,2.884-6.159V298.767    C512,295.089,509.497,291.882,505.928,290.989z M205.705,24.638c-9.803,12.499-18.683,29.575-26.272,50.822    c-5.699,15.959-10.51,33.723-14.366,52.818H115.1C135.183,78.403,167.462,40.743,205.705,24.638z M109.214,144.312h52.894    c-4.963,29.543-7.749,61.771-8.135,95.131H93.096C93.876,205.364,99.594,173.135,109.214,144.312z M153.973,255.477    c0.386,33.36,3.172,65.588,8.135,95.132h-52.894c-9.62-28.823-15.339-61.052-16.118-95.132H153.973z M40.246,144.312h52.089    c-9.318,29.579-14.553,61.795-15.277,95.131H16.186C17.331,206.06,25.599,173.702,40.246,144.312z M16.187,255.477h60.87    c0.725,33.337,5.959,65.552,15.277,95.132H40.336C25.923,321.785,17.354,289.556,16.187,255.477z M49.154,366.641h48.729    c7.48,19.772,16.869,38.153,28.047,54.625c11.291,16.639,23.928,30.648,37.561,41.842    C115.598,444.397,75.416,410.172,49.154,366.641z M115.101,366.641h49.966c3.856,19.096,8.667,36.86,14.366,52.818    c7.588,21.246,16.469,38.323,26.272,50.822C167.462,454.177,135.183,416.517,115.101,366.641z M239.432,477.465    c-16.255-5.622-32.266-28.022-44.9-63.397c-5.135-14.378-9.517-30.315-13.102-47.426h58.002V477.465z M239.432,350.608h-61.067    c-5.095-29.36-7.963-61.622-8.359-95.132h69.426V350.608z M239.432,239.443h-69.425c0.394-33.51,3.262-65.771,8.359-95.131h61.066    V239.443z M239.432,128.278H181.43c3.585-17.111,7.968-33.048,13.103-47.426c12.634-35.375,28.645-57.776,44.9-63.397V128.278z     M478.71,239.443h-60.87c-0.725-33.337-5.959-65.552-15.277-95.131h51.998C468.975,173.135,477.544,205.364,478.71,239.443z     M478.713,255.477c-0.323,9.413-1.199,18.803-2.643,28.048l-58.768-14.692c0.26-4.431,0.439-8.89,0.538-13.356H478.713z     M445.744,128.278h-48.729c-7.48-19.772-16.869-38.153-28.047-54.625c-11.291-16.639-23.928-30.648-37.561-41.842    C379.3,50.524,419.482,84.747,445.744,128.278z M340.925,239.443c-0.386-33.36-3.172-65.588-8.135-95.131h52.894    c9.62,28.824,15.339,61.052,16.118,95.131H340.925z M401.8,255.475v0.001c-0.074,3.215-0.189,6.426-0.351,9.624    c-0.68-0.006-1.361,0.068-2.026,0.234l-59.23,14.807c0.392-8.159,0.622-16.406,0.718-24.667H401.8z M379.797,128.278h-49.966    c-3.856-19.096-8.667-36.86-14.366-52.818c-7.588-21.246-16.469-38.323-26.272-50.822    C327.435,40.742,359.715,78.403,379.797,128.278z M255.466,17.455c16.255,5.621,32.266,28.022,44.9,63.397    c5.135,14.378,9.517,30.315,13.102,47.426h-58.002V17.455z M255.466,144.312h61.067c5.095,29.36,7.963,61.622,8.359,95.131    h-69.426V144.312z M284.593,475.922c8.657-9.514,16.674-22.534,23.893-38.895l28.6,23.833    C320.164,467.991,302.62,473.025,284.593,475.922z M401.37,493.56l-94.597-78.831v-30.451c0-4.428-3.588-8.017-8.017-8.017    c-4.428,0-8.017,3.588-8.017,8.017v34.205c0,2.379,1.056,4.636,2.884,6.159l2.01,1.675    c-11.737,28.125-25.976,46.124-40.167,51.129V366.641h26.188c4.428,0,8.017-3.588,8.017-8.017c0-4.428-3.588-8.017-8.017-8.017    h-26.188v-95.132h69.414c-0.115,9.646-0.445,19.257-0.972,28.738l-27.098,6.775c-3.569,0.893-6.072,4.099-6.072,7.777v34.205    c0,4.428,3.588,8.017,8.017,8.017c4.428,0,8.017-3.588,8.017-8.017v-27.946l94.597-23.649l94.597,23.649v109.704h0.001    L401.37,493.56z"/>
	</g>
</g>
<g>
	<g>
		<path d="M469.166,335.646c-3.853-4.405-9.194-7.046-15.033-7.435c-5.836-0.39-11.483,1.52-15.886,5.373l-50.627,44.298    l-11.477-15.301c-7.25-9.666-21.012-11.631-30.677-4.384c-9.666,7.25-11.633,21.012-4.384,30.677l25.653,34.205    c7.535,10.047,22.502,11.621,31.959,3.344l68.409-59.858c4.405-3.853,7.046-9.194,7.435-15.033    C474.929,345.692,473.02,340.049,469.166,335.646z M456.548,354.499l-68.41,59.859c-2.538,2.219-6.556,1.796-8.574-0.898    l-25.653-34.205c-1.783-2.377-1.47-5.83,0.714-7.846c2.523-2.328,6.634-1.955,8.693,0.791l16.663,22.217    c2.757,3.676,8.234,4.254,11.692,1.224l57.133-49.992c2.41-2.112,6.187-1.856,8.296,0.555    C459.211,348.616,458.96,352.389,456.548,354.499z"/>
	</g>
</g>
<g>
</g>
<g>
</g>
<g>
</g>
<g>
</g>
<g>
</g>
<g>
</g>
<g>
</g>
<g>
</g>
<g>
</g>
<g>
</g>
<g>
</g>
<g>
</g>
<g>
</g>
<g>
</g>
<g>
</g>
</svg>
