<?xml version="1.0" encoding="iso-8859-1"?>
<!-- Generator: Adobe Illustrator 19.0.0, SVG Export Plug-In . SVG Version: 6.00 Build 0)  -->
<svg xmlns="http://www.w3.org/2000/svg" xmlns:xlink="http://www.w3.org/1999/xlink" version="1.1" id="Layer_1" x="0px" y="0px" viewBox="0 0 512 512" style="enable-background:new 0 0 512 512;" xml:space="preserve">
<g>
	<g>
		<path d="M465.407,169.62h-31.935V93.71c0-51.672-42.037-93.71-93.71-93.71H263.8c-4.338,0-7.853,3.515-7.853,7.853    c0,4.338,3.515,7.853,7.853,7.853h75.962c43.011,0,78.004,34.993,78.004,78.004v75.91h-21.988V93.71    c0-30.888-25.129-56.016-56.016-56.016H172.237c-30.888,0-56.016,25.129-56.016,56.016v75.91H94.233V93.71    c0-43.011,34.993-78.004,78.004-78.004h32.554c4.338,0,7.853-3.515,7.853-7.853c0-4.338-3.515-7.853-7.853-7.853h-32.554    c-51.672,0-93.71,42.037-93.71,93.71v75.91H46.593c-22.804,0-41.358,18.553-41.358,41.358v48.373    c0,34.074,6.771,67.241,20.126,98.578c12.898,30.267,31.312,57.445,54.73,80.777C127.548,485.993,189.992,512,256.015,512    c0.304,0,0.609-0.001,0.913-0.002c43.88-0.158,87.027-11.824,124.777-33.734c36.625-21.259,67.523-51.684,89.353-87.985    c2.235-3.717,1.033-8.542-2.684-10.777c-3.717-2.234-8.541-1.033-10.777,2.684c-42.782,71.151-117.821,113.807-200.727,114.108    c-0.288,0.001-0.565,0.002-0.853,0.002c-61.835,0-120.351-24.385-164.841-68.714c-45.293-45.128-70.235-104.873-70.235-168.23    v-48.373c0-14.145,11.507-25.652,25.652-25.652h418.814c14.145,0,25.652,11.507,25.652,25.652v50.258    c0,24.933-3.882,49.479-11.538,72.953c-1.345,4.123,0.907,8.555,5.031,9.9c4.12,1.344,8.555-0.906,9.9-5.031    c8.171-25.049,12.313-51.231,12.313-77.822v-50.258C506.765,188.173,488.211,169.62,465.407,169.62z M380.074,169.62H131.926    V93.71c0-22.227,18.083-40.311,40.311-40.311h167.526c22.228,0,40.311,18.083,40.311,40.311V169.62z"/>
	</g>
</g>
<g>
	<g>
		<path d="M415.149,253.382H96.851c-4.338,0-7.853,3.515-7.853,7.853c0,92.085,74.917,167.002,167.002,167.002    s167.002-74.917,167.002-167.002C423.002,256.897,419.487,253.382,415.149,253.382z M256,412.532    c-80.792,0-146.998-63.652-151.096-143.444h302.19C402.998,348.879,336.792,412.532,256,412.532z"/>
	</g>
</g>
<g>
	<g>
		<path d="M256,194.748c-13.568,0-24.605,11.038-24.605,24.605c0,13.568,11.038,24.605,24.605,24.605s24.605-11.038,24.605-24.605    C280.605,205.786,269.568,194.748,256,194.748z M256,228.254c-4.907,0-8.9-3.992-8.9-8.9c0-4.907,3.992-8.9,8.9-8.9    s8.9,3.992,8.9,8.9C264.9,224.261,260.907,228.254,256,228.254z"/>
	</g>
</g>
<g>
	<g>
		<path d="M256,437.661c-13.568,0-24.605,11.038-24.605,24.605c0,13.568,11.038,24.605,24.605,24.605s24.605-11.038,24.605-24.605    C280.605,448.698,269.568,437.661,256,437.661z M256,471.166c-4.907,0-8.9-3.992-8.9-8.9c0-4.907,3.992-8.9,8.9-8.9    s8.9,3.992,8.9,8.9C264.9,467.173,260.907,471.166,256,471.166z"/>
	</g>
</g>
<g>
	<g>
		<path d="M373.268,404.155c-13.568,0-24.605,11.038-24.605,24.605c0,13.567,11.038,24.605,24.605,24.605    s24.605-11.038,24.605-24.605C397.873,415.193,386.835,404.155,373.268,404.155z M373.268,437.661c-4.907,0-8.9-3.992-8.9-8.9    s3.992-8.9,8.9-8.9s8.9,3.992,8.9,8.9S378.175,437.661,373.268,437.661z"/>
	</g>
</g>
<g>
	<g>
		<path d="M448.654,312.016c-13.567,0-24.605,11.038-24.605,24.605c0,13.568,11.038,24.605,24.605,24.605    c13.568,0,24.605-11.038,24.605-24.605C473.26,323.054,462.222,312.016,448.654,312.016z M448.654,345.521    c-4.907,0-8.9-3.992-8.9-8.9c0-4.907,3.992-8.9,8.9-8.9c4.907,0,8.9,3.992,8.9,8.9    C457.554,341.529,453.562,345.521,448.654,345.521z"/>
	</g>
</g>
<g>
	<g>
		<path d="M356.515,194.748c-13.568,0-24.605,11.038-24.605,24.605c0,13.568,11.038,24.605,24.605,24.605    s24.605-11.038,24.605-24.605C381.121,205.786,370.083,194.748,356.515,194.748z M356.515,228.254c-4.907,0-8.9-3.992-8.9-8.9    c0-4.907,3.992-8.9,8.9-8.9s8.9,3.992,8.9,8.9C365.415,224.261,361.423,228.254,356.515,228.254z"/>
	</g>
</g>
<g>
	<g>
		<path d="M457.031,194.748c-13.567,0-24.605,11.038-24.605,24.605c0,13.568,11.038,24.605,24.605,24.605    c13.568,0,24.605-11.038,24.605-24.605C481.636,205.786,470.598,194.748,457.031,194.748z M457.031,228.254    c-4.907,0-8.9-3.992-8.9-8.9c0-4.907,3.992-8.9,8.9-8.9c4.907,0,8.9,3.992,8.9,8.9    C465.93,224.261,461.938,228.254,457.031,228.254z"/>
	</g>
</g>
<g>
	<g>
		<path d="M138.732,404.155c-13.568,0-24.605,11.038-24.605,24.605c0,13.567,11.038,24.605,24.605,24.605    c13.567,0,24.605-11.038,24.605-24.605C163.337,415.193,152.3,404.155,138.732,404.155z M138.732,437.661    c-4.907,0-8.9-3.992-8.9-8.9s3.992-8.9,8.9-8.9c4.907,0,8.9,3.992,8.9,8.9S143.64,437.661,138.732,437.661z"/>
	</g>
</g>
<g>
	<g>
		<path d="M63.346,312.016c-13.567,0-24.605,11.038-24.605,24.605c0,13.568,11.038,24.605,24.605,24.605    c13.568,0,24.605-11.038,24.605-24.605C87.951,323.054,76.913,312.016,63.346,312.016z M63.346,345.521    c-4.907,0-8.9-3.992-8.9-8.9c0-4.907,3.992-8.9,8.9-8.9c4.907,0,8.9,3.992,8.9,8.9C72.245,341.529,68.253,345.521,63.346,345.521z    "/>
	</g>
</g>
<g>
	<g>
		<path d="M155.485,194.748c-13.568,0-24.605,11.038-24.605,24.605c0,13.568,11.038,24.605,24.605,24.605    c13.567,0,24.605-11.038,24.605-24.605C180.09,205.786,169.052,194.748,155.485,194.748z M155.485,228.254    c-4.907,0-8.9-3.992-8.9-8.9c0-4.907,3.992-8.9,8.9-8.9c4.907,0,8.9,3.992,8.9,8.9    C164.384,224.261,160.392,228.254,155.485,228.254z"/>
	</g>
</g>
<g>
	<g>
		<path d="M54.969,194.748c-13.567,0-24.605,11.038-24.605,24.605c0,13.568,11.038,24.605,24.605,24.605    c13.568,0,24.605-11.038,24.605-24.605C79.575,205.786,68.537,194.748,54.969,194.748z M54.969,228.254    c-4.907,0-8.9-3.992-8.9-8.9c0-4.907,3.992-8.9,8.9-8.9c4.907,0,8.9,3.992,8.9,8.9C63.869,224.261,59.877,228.254,54.969,228.254z    "/>
	</g>
</g>
<g>
	<g>
		<path d="M290.903,369.099c-9.872,8.096-29.236,9.911-35.855,9.927c-23.382,0-42.405-19.023-42.405-42.405    s19.023-42.405,42.405-42.405c10.352,0,19.149,2.599,25.844,7.297c-2.518,0.516-4.724,2.26-5.733,4.822    c-1.909-2.133-4.182-3.836-6.759-5.014c-6.806-3.111-15.002-2.239-22.488,2.394c-6.596,4.08-12.256,10.763-15.937,18.818    c-3.682,8.054-5.032,16.708-3.802,24.366c1.396,8.692,6.099,15.462,12.904,18.571c2.687,1.228,5.59,1.835,8.581,1.835    c3.941,0,8.032-1.061,11.981-3.136c1.5,3.21,4.08,5.851,8.05,7.264c6.542,2.33,15.583,0.095,24.187-5.973    c11.895-8.392,18.997-21.307,18.997-34.548c0-15.68-5.595-29-16.179-38.52c-10.094-9.08-23.803-13.879-39.647-13.879    c-32.042,0-58.11,26.068-58.11,58.11c0,32.042,26.068,58.11,58.11,58.11c1.2,0,29.552-0.153,45.814-13.488    c3.354-2.751,3.843-7.699,1.093-11.052C299.205,366.839,294.259,366.35,290.903,369.099z M264.571,334.227l-1.084,2.858    c-0.092,0.214-0.172,0.43-0.269,0.642c0,0,0,0,0,0.001c-2.37,5.189-5.985,9.56-9.915,11.992c-1.391,0.861-4.927,2.73-7.695,1.465    c-4.475-2.045-6.002-11.94-1.348-22.124c2.372-5.188,5.986-9.559,9.916-11.991c1.059-0.654,3.357-1.892,5.613-1.892    c0.711,0,1.418,0.124,2.08,0.426c2.765,1.264,3.667,5.161,3.926,6.779C266.368,325.932,265.913,330.105,264.571,334.227z     M290.043,311.256c3.325,5.481,5.126,12.116,5.126,19.654c0,10.707-7.505,17.902-10.732,20.498    c-4.518,3.636-8.79,5.078-10.716,5.246c-0.03-0.966,0.152-2.415,0.464-3.483l3.788-9.987c0.554-1.292,1.048-2.596,1.483-3.908    l10.349-27.283C289.896,311.749,289.975,311.504,290.043,311.256z"/>
	</g>
</g>
<g>
</g>
<g>
</g>
<g>
</g>
<g>
</g>
<g>
</g>
<g>
</g>
<g>
</g>
<g>
</g>
<g>
</g>
<g>
</g>
<g>
</g>
<g>
</g>
<g>
</g>
<g>
</g>
<g>
</g>
</svg>
