<?xml version="1.0" encoding="iso-8859-1"?>
<!-- Generator: Adobe Illustrator 19.0.0, SVG Export Plug-In . SVG Version: 6.00 Build 0)  -->
<svg xmlns="http://www.w3.org/2000/svg" xmlns:xlink="http://www.w3.org/1999/xlink" version="1.1" id="Layer_1" x="0px" y="0px" viewBox="0 0 512 512" style="enable-background:new 0 0 512 512;" xml:space="preserve">
<g>
	<g>
		<path d="M503.983,371.975h-34.739V191.332h0.534c4.427,0,8.017-3.588,8.017-8.017s-3.589-8.017-8.017-8.017h-0.534V89.253    c0-13.851-11.268-25.119-25.119-25.119H67.875c-13.851,0-25.119,11.268-25.119,25.119v86.046h-0.534    c-4.427,0-8.017,3.588-8.017,8.017s3.589,8.017,8.017,8.017h0.534v180.643H8.017c-4.427,0-8.017,3.588-8.017,8.017v42.756    c0,13.851,11.268,25.119,25.119,25.119h94.776c4.427,0,8.017-3.588,8.017-8.017c0-4.428-3.589-8.017-8.017-8.017H25.119    c-5.01,0-9.086-4.076-9.086-9.086v-34.739h197.745v17.637c0,9.136,7.432,16.568,16.568,16.568h51.307    c9.136,0,16.568-7.432,16.568-16.568v-17.637h197.745v34.739c0,5.01-4.076,9.086-9.086,9.086H161.224    c-4.427,0-8.017,3.588-8.017,8.017c0,4.428,3.589,8.017,8.017,8.017h325.657c13.851,0,25.119-11.268,25.119-25.119v-42.756    C512,375.563,508.411,371.975,503.983,371.975z M282.188,405.645c0,0.294-0.239,0.534-0.534,0.534h-51.307    c-0.295,0-0.534-0.241-0.534-0.534v-17.637h52.376V405.645z M453.211,371.975H58.789V191.332H76.96v0.534    c0,9.136,7.432,16.568,16.568,16.568h34.205c9.136,0,16.568-7.432,16.568-16.568v-0.534h18.171v0.534    c0,9.136,7.432,16.568,16.568,16.568h29.914l13.376,20.064v42.183c-9.93,3.354-17.102,12.752-17.102,23.8v59.858    c0,4.428,3.589,8.017,8.017,8.017h85.511c4.427,0,8.017-3.588,8.017-8.017v-59.858c0-11.048-7.172-20.446-17.102-23.8v-42.183    l13.376-20.064h29.914c9.136,0,16.568-7.432,16.568-16.568v-0.534h18.171v0.534c0,9.136,7.432,16.568,16.568,16.568h34.205    c9.136,0,16.568-7.432,16.568-16.568v-0.534h18.171V371.975z M93.528,175.299h-0.534v-0.534c0-0.294,0.239-0.534,0.534-0.534    h34.205c0.295,0,0.534,0.24,0.534,0.534v0.534h-0.534c-4.427,0-8.017,3.588-8.017,8.017s3.589,8.017,8.017,8.017h0.534v0.534    c0,0.294-0.239,0.534-0.534,0.534H93.528c-0.295,0-0.534-0.24-0.534-0.534v-0.534h0.534c4.427,0,8.017-3.588,8.017-8.017    S97.956,175.299,93.528,175.299z M179.04,175.299h-0.534v-0.534c0-0.294,0.239-0.534,0.534-0.534h34.205    c0.295,0,0.534,0.24,0.534,0.534v17.102c0,0.294-0.239,0.534-0.534,0.534H179.04c-0.295,0-0.534-0.24-0.534-0.534v-0.534h0.534    c4.427,0,8.017-3.588,8.017-8.017S183.467,175.299,179.04,175.299z M281.653,285.395c5.01,0,9.086,4.076,9.086,9.086v51.841    h-69.478V294.48c0-5.01,4.076-9.086,9.086-9.086H281.653z M238.363,269.361v-35.273h35.273v35.273H238.363z M332.96,191.332h0.534    v0.534c0,0.294-0.239,0.534-0.534,0.534h-34.205c-0.295,0-0.534-0.24-0.534-0.534v-17.102c0-0.294,0.239-0.534,0.534-0.534h34.205    c0.295,0,0.534,0.24,0.534,0.534v0.534h-0.534c-4.427,0-8.017,3.588-8.017,8.017S328.533,191.332,332.96,191.332z     M384.267,175.299h-0.534v-0.534c0-0.294,0.239-0.534,0.534-0.534h34.205c0.295,0,0.534,0.24,0.534,0.534v0.534h-0.534    c-4.427,0-8.017,3.588-8.017,8.017s3.589,8.017,8.017,8.017h0.534v0.534c0,0.294-0.239,0.534-0.534,0.534h-34.205    c-0.295,0-0.534-0.24-0.534-0.534v-0.534h0.534c4.427,0,8.017-3.588,8.017-8.017S388.695,175.299,384.267,175.299z     M453.211,123.992h-60.037c-4.427,0-8.017,3.588-8.017,8.017c0,4.428,3.589,8.017,8.017,8.017h60.037v35.273H435.04v-0.534    c0-9.136-7.432-16.568-16.568-16.568h-34.205c-9.136,0-16.568,7.432-16.568,16.568v0.534h-18.171v-0.534    c0-9.136-7.432-16.568-16.568-16.568h-34.205c-9.136,0-16.568,7.432-16.568,16.568v17.102c0,4.559,1.851,8.692,4.84,11.69    l-9.665,14.497h-42.727l-9.665-14.497c2.989-2.998,4.84-7.132,4.84-11.69v-17.102c0-9.136-7.432-16.568-16.568-16.568h-34.205    c-9.136,0-16.568,7.432-16.568,16.568v0.534H144.3v-0.534c0-9.136-7.432-16.568-16.568-16.568H93.527    c-9.136,0-16.568,7.432-16.568,16.568v0.534h-18.17v-35.273h291.273c4.427,0,8.017-3.588,8.017-8.017    c0-4.428-3.589-8.017-8.017-8.017H58.789V89.253c0-5.01,4.076-9.086,9.086-9.086h376.25c5.01,0,9.086,4.076,9.086,9.086V123.992z"/>
	</g>
</g>
<g>
	<g>
		<path d="M264.551,89.787h-17.102c-4.427,0-8.017,3.588-8.017,8.017s3.589,8.017,8.017,8.017h17.102    c4.427,0,8.017-3.588,8.017-8.017S268.979,89.787,264.551,89.787z"/>
	</g>
</g>
<g>
	<g>
		<path d="M264.551,295.015h-17.102c-4.427,0-8.017,3.588-8.017,8.017c0,4.428,3.589,8.017,8.017,8.017h0.561    c-0.012,0.177-0.027,0.354-0.027,0.534v17.102c0,4.428,3.589,8.017,8.017,8.017s8.017-3.588,8.017-8.017v-17.102    c0-0.181-0.015-0.357-0.027-0.534h0.561c4.427,0,8.017-3.588,8.017-8.017C272.568,298.603,268.979,295.015,264.551,295.015z"/>
	</g>
</g>
<g>
</g>
<g>
</g>
<g>
</g>
<g>
</g>
<g>
</g>
<g>
</g>
<g>
</g>
<g>
</g>
<g>
</g>
<g>
</g>
<g>
</g>
<g>
</g>
<g>
</g>
<g>
</g>
<g>
</g>
</svg>
