<?xml version="1.0" encoding="iso-8859-1"?>
<!-- Generator: Adobe Illustrator 19.0.0, SVG Export Plug-In . SVG Version: 6.00 Build 0)  -->
<svg xmlns="http://www.w3.org/2000/svg" xmlns:xlink="http://www.w3.org/1999/xlink" version="1.1" id="Layer_1" x="0px" y="0px" viewBox="0 0 512 512" style="enable-background:new 0 0 512 512;" xml:space="preserve">
<g>
	<g>
		<path d="M503.983,110.096c4.427,0,8.017-3.588,8.017-8.017V42.221C512,18.941,493.059,0,469.779,0H42.221    C18.941,0,0,18.941,0,42.221v333.495c0,23.281,18.941,42.221,42.221,42.221h175.646l-3.716,78.029H179.04    c-4.427,0-8.017,3.588-8.017,8.017c0,4.428,3.589,8.017,8.017,8.017H332.96c4.427,0,8.017-3.588,8.017-8.017    c0-4.428-3.589-8.017-8.017-8.017h-35.111l-3.715-78.029h175.645c23.281,0,42.221-18.941,42.221-42.221V144.835    c0-4.428-3.589-8.017-8.017-8.017c-4.427,0-8.017,3.588-8.017,8.017v205.762H16.033V67.34h479.933v34.739    C495.967,106.508,499.556,110.096,503.983,110.096z M230.202,495.967l3.715-78.029h44.162l3.717,78.029H230.202z M495.967,366.63    v9.086c0,14.441-11.748,26.188-26.188,26.188H42.221c-14.44,0-26.188-11.747-26.188-26.188v-9.086H495.967z M16.033,51.307v-9.086    c0-14.441,11.748-26.188,26.188-26.188h427.557c14.44,0,26.188,11.747,26.188,26.188v9.086H16.033z"/>
	</g>
</g>
<g>
	<g>
		<path d="M264.551,376.251h-17.102c-4.427,0-8.017,3.588-8.017,8.017c0,4.428,3.589,8.017,8.017,8.017h17.102    c4.427,0,8.017-3.588,8.017-8.017C272.568,379.839,268.979,376.251,264.551,376.251z"/>
	</g>
</g>
<g>
	<g>
		<path d="M360.559,111.404L257.945,85.751c-1.276-0.32-2.611-0.32-3.889,0l-102.614,25.653c-3.569,0.893-6.072,4.099-6.072,7.777    v44.893c0,4.428,3.589,8.017,8.017,8.017c4.427,0,8.017-3.588,8.017-8.017V125.44l94.597-23.649l94.597,23.649v109.703    l-94.597,78.831l-94.597-78.831v-30.45c-0.001-4.428-3.59-8.017-8.018-8.017s-8.017,3.588-8.017,8.017v34.205    c0,2.379,1.057,4.636,2.885,6.159l102.614,85.512c2.936,2.448,7.327,2.448,10.265,0l102.614-85.512    c1.828-1.523,2.885-3.78,2.885-6.159V119.182C366.632,115.504,364.128,112.297,360.559,111.404z"/>
	</g>
</g>
<g>
	<g>
		<path d="M256,145.37c-18.566,0-33.67,15.105-33.67,33.67c0,15.804,10.947,29.091,25.653,32.699v35.711    c0,4.428,3.589,8.017,8.017,8.017s8.017-3.588,8.017-8.017v-35.711c14.707-3.606,25.653-16.895,25.653-32.699    C289.67,160.474,274.566,145.37,256,145.37z M256,196.676c-9.725,0-17.637-7.912-17.637-17.637s7.912-17.637,17.637-17.637    s17.637,7.912,17.637,17.637S265.725,196.676,256,196.676z"/>
	</g>
</g>
<g>
</g>
<g>
</g>
<g>
</g>
<g>
</g>
<g>
</g>
<g>
</g>
<g>
</g>
<g>
</g>
<g>
</g>
<g>
</g>
<g>
</g>
<g>
</g>
<g>
</g>
<g>
</g>
<g>
</g>
</svg>
