<?xml version="1.0" encoding="iso-8859-1"?>
<!-- Generator: Adobe Illustrator 19.0.0, SVG Export Plug-In . SVG Version: 6.00 Build 0)  -->
<svg xmlns="http://www.w3.org/2000/svg" xmlns:xlink="http://www.w3.org/1999/xlink" version="1.1" id="Layer_1" x="0px" y="0px" viewBox="0 0 512 512" style="enable-background:new 0 0 512 512;" xml:space="preserve">
<g>
	<g>
		<path d="M409.921,290.739H102.079c-4.428,0-8.017,3.589-8.017,8.017v51.307c0,4.427,3.588,8.017,8.017,8.017h307.841    c4.428,0,8.017-3.589,8.017-8.017v-51.307C417.937,294.328,414.349,290.739,409.921,290.739z M401.904,342.046H110.096v-35.273    h291.808V342.046z"/>
	</g>
</g>
<g>
	<g>
		<path d="M221.795,376.251H102.079c-4.428,0-8.017,3.589-8.017,8.017v42.756c0,4.427,3.588,8.017,8.017,8.017h119.716    c4.428,0,8.017-3.589,8.017-8.017v-42.756C229.812,379.84,226.224,376.251,221.795,376.251z M213.779,419.006H110.096v-26.722    h103.683V419.006z"/>
	</g>
</g>
<g>
	<g>
		<path d="M350.063,376.251h-59.858c-4.428,0-8.017,3.589-8.017,8.017c0,4.427,3.588,8.017,8.017,8.017h59.858    c4.428,0,8.017-3.589,8.017-8.017C358.079,379.84,354.491,376.251,350.063,376.251z"/>
	</g>
</g>
<g>
	<g>
		<path d="M409.921,376.251h-25.653c-4.428,0-8.017,3.589-8.017,8.017c0,4.427,3.588,8.017,8.017,8.017h25.653    c4.428,0,8.017-3.589,8.017-8.017C417.937,379.84,414.349,376.251,409.921,376.251z"/>
	</g>
</g>
<g>
	<g>
		<path d="M273.102,171.023h-26.188v-9.62h26.188c4.428,0,8.017-3.589,8.017-8.017s-3.588-8.017-8.017-8.017h-9.086v-0.534    c0-4.427-3.588-8.017-8.017-8.017c-4.428,0-8.017,3.589-8.017,8.017v0.534h-9.086c-4.428,0-8.017,3.589-8.017,8.017v25.653    c0,4.427,3.588,8.017,8.017,8.017h26.188v9.62h-26.188c-4.428,0-8.017,3.589-8.017,8.017s3.588,8.017,8.017,8.017h9.086v0.534    c0,4.427,3.588,8.017,8.017,8.017c4.428,0,8.017-3.589,8.017-8.017v-0.534h9.086c4.428,0,8.017-3.589,8.017-8.017V179.04    C281.119,174.612,277.531,171.023,273.102,171.023z"/>
	</g>
</g>
<g>
	<g>
		<path d="M478.33,171.023H323.385c-3.982-33.659-32.673-59.858-67.385-59.858s-63.404,26.199-67.385,59.858H33.67    c-13.851,0-25.119,11.268-25.119,25.119v171.023c0,13.851,11.268,25.119,25.119,25.119h26.188v35.095    c0,4.427,3.588,8.017,8.017,8.017c4.428,0,8.017-3.589,8.017-8.017V273.102c0-0.295,0.241-0.534,0.534-0.534h264.73    c4.428,0,8.017-3.589,8.017-8.017s-3.588-8.017-8.017-8.017H76.426c-9.136,0-16.568,7.432-16.568,16.568v103.148H33.67    c-5.01,0-9.086-4.076-9.086-9.086V196.142c0-5.01,4.076-9.086,9.086-9.086h154.945c3.982,33.659,32.673,59.858,67.385,59.858    s63.404-26.199,67.385-59.858H478.33c5.01,0,9.086,4.076,9.086,9.086v171.023c0,5.01-4.076,9.086-9.086,9.086h-26.188V273.102    c0-9.136-7.432-16.568-16.568-16.568h-51.663c-4.428,0-8.017,3.589-8.017,8.017s3.588,8.017,8.017,8.017h51.663    c0.294,0,0.534,0.239,0.534,0.534v222.33c0,0.295-0.241,0.534-0.534,0.534H76.426c-0.294,0-0.534-0.239-0.534-0.534v-25.654    c0-4.427-3.588-8.017-8.017-8.017c-4.428,0-8.017,3.589-8.017,8.017v25.654c0,9.136,7.432,16.568,16.568,16.568h359.148    c9.136,0,16.568-7.432,16.568-16.568V392.284h26.188c13.851,0,25.119-11.268,25.119-25.119V196.142    C503.449,182.291,492.181,171.023,478.33,171.023z M256,230.881c-28.585,0-51.841-23.256-51.841-51.841    c0-28.585,23.256-51.841,51.841-51.841s51.841,23.256,51.841,51.841C307.841,207.625,284.585,230.881,256,230.881z"/>
	</g>
</g>
<g>
	<g>
		<path d="M382.601,52.44C348.784,18.623,303.823,0,256,0s-92.784,18.623-126.6,52.44c-3.131,3.131-3.131,8.207,0,11.337    c3.131,3.131,8.206,3.131,11.338,0C171.525,32.989,212.46,16.033,256,16.033c43.54,0,84.475,16.956,115.262,47.743    c3.261,3.26,8.766,3.041,11.764-0.46C385.712,60.18,385.519,55.358,382.601,52.44z"/>
	</g>
</g>
<g>
	<g>
		<path d="M358.414,76.626C331.058,49.27,294.685,34.205,256,34.205S180.942,49.27,153.586,76.626    c-3.132,3.131-3.132,8.206-0.001,11.337s8.207,3.131,11.337,0c24.33-24.327,56.675-37.724,91.078-37.724    c34.403,0,66.748,13.398,91.077,37.724c1.565,1.566,3.616,2.348,5.668,2.348C359.755,90.311,363.353,81.564,358.414,76.626z"/>
	</g>
</g>
<g>
	<g>
		<path d="M334.229,100.813C313.332,79.917,285.551,68.409,256,68.409c-29.551,0-57.332,11.508-78.229,32.402    c-3.131,3.131-3.131,8.206,0,11.337c3.131,3.131,8.206,3.131,11.338,0C206.977,94.283,230.732,84.443,256,84.443    s49.023,9.84,66.89,27.707c3.26,3.26,8.766,3.041,11.764-0.46C337.341,108.553,337.147,103.732,334.229,100.813z"/>
	</g>
</g>
<g>
</g>
<g>
</g>
<g>
</g>
<g>
</g>
<g>
</g>
<g>
</g>
<g>
</g>
<g>
</g>
<g>
</g>
<g>
</g>
<g>
</g>
<g>
</g>
<g>
</g>
<g>
</g>
<g>
</g>
</svg>
