<?xml version="1.0" encoding="iso-8859-1"?>
<!-- Generator: Adobe Illustrator 19.0.0, SVG Export Plug-In . SVG Version: 6.00 Build 0)  -->
<svg xmlns="http://www.w3.org/2000/svg" xmlns:xlink="http://www.w3.org/1999/xlink" version="1.1" id="Layer_1" x="0px" y="0px" viewBox="0 0 512 512" style="enable-background:new 0 0 512 512;" xml:space="preserve">
<g>
	<g>
		<path d="M486.881,0h-77.316c-4.428,0-8.017,3.589-8.017,8.017c0,4.427,3.588,8.017,8.017,8.017h35.095v274.706H289.67v-18.171    h43.29c4.428,0,8.017-3.589,8.017-8.017V161.937c0-13.851-11.268-25.119-25.119-25.119h-0.534v-43.29    c0-32.711-26.612-59.324-59.324-59.324s-59.324,26.612-59.324,59.324v17.102c0,4.427,3.588,8.017,8.017,8.017    s8.017-3.589,8.017-8.017V93.528c0-23.871,19.42-43.29,43.29-43.29s43.29,19.42,43.29,43.29v43.29H196.142    c-13.851,0-25.119,11.268-25.119,25.119v102.614c0,4.427,3.588,8.017,8.017,8.017h43.29v18.171H101.545v-26.188    c0-4.427-3.588-8.017-8.017-8.017s-8.017,3.589-8.017,8.017v26.188H25.119c-5.01,0-9.086-4.076-9.086-9.086V25.119    c0-5.01,4.076-9.086,9.086-9.086h60.392v205.762c0,4.427,3.588,8.017,8.017,8.017s8.017-3.589,8.017-8.017V16.033h265.62    c4.428,0,8.017-3.589,8.017-8.017c0-4.427-3.588-8.017-8.017-8.017H25.119C11.268,0,0,11.268,0,25.119v256.534    c0,13.851,11.268,25.119,25.119,25.119H222.33v84.559l-28.994-28.994c-15.628-15.629-41.057-15.627-56.688,0l-13.605,13.605    c-3.105,3.105-3.134,8.132-0.064,11.273l90.799,92.884v23.884c0,4.427,3.588,8.017,8.017,8.017s8.017-3.589,8.017-8.017v-27.152    c0-2.094-0.82-4.106-2.284-5.604l-87.541-89.553l7.999-8c9.378-9.376,24.636-9.377,34.012,0l42.68,42.68    c2.294,2.293,5.739,2.978,8.737,1.738c2.996-1.241,4.949-4.164,4.949-7.406V256c0-9.542,7.758-17.453,17.294-17.634    c4.587-0.099,9.013,1.703,12.416,5.043c3.536,3.47,5.564,8.269,5.564,13.169v112.234c0,4.427,3.588,8.017,8.017,8.017    c4.428,0,8.017-3.589,8.017-8.017l0.177-44.894c0-8.258,5.815-15.285,13.56-17.146h7.962c3.024,0.726,5.85,2.261,8.189,4.556    c3.512,3.446,5.532,8.207,5.557,13.074c-0.112,0.534-0.173,1.087-0.173,1.654v42.756c0,4.427,3.588,8.017,8.017,8.017    c4.428,0,8.017-3.589,8.017-8.017V343.86c0.052-0.246,0.095-0.496,0.124-0.75c1.055-9.108,8.824-15.792,17.969-15.572    c9.474,0.237,17.181,8.415,17.181,18.231v14.491v8.551c0,4.427,3.588,8.017,8.017,8.017c4.428,0,8.017-3.589,8.017-8.017v-8.551    c0-10.176,8.242-19.599,17.294-19.771c4.576-0.083,9.013,1.704,12.416,5.043c3.536,3.47,5.564,8.269,5.564,13.168v145.284    c0,4.427,3.588,8.017,8.017,8.017c4.428,0,8.017-3.589,8.017-8.017V358.7c0-9.176-3.779-18.148-10.367-24.612    c-6.501-6.378-14.991-9.81-23.951-9.629c-7.366,0.139-14.26,2.997-19.825,7.642c-5.123-11.809-16.634-20.258-29.978-20.59    c-7.076-0.175-13.679,1.796-19.188,5.351c-0.819-3.552-2.217-6.957-4.096-10.089h150.695c13.851,0,25.119-11.268,25.119-25.119    V25.119C512,11.268,500.732,0,486.881,0z M256,196.676c-5.01,0-9.086-4.076-9.086-9.086s4.076-9.086,9.086-9.086    s9.086,4.076,9.086,9.086S261.01,196.676,256,196.676z M289.669,256.534c-0.012-9.161-3.788-18.116-10.366-24.57    c-4.391-4.309-9.693-7.263-15.431-8.677c0.091-0.484,0.144-0.982,0.144-1.492v-10.405c9.93-3.354,17.102-12.752,17.102-23.8    c0-13.851-11.268-25.119-25.119-25.119s-25.119,11.268-25.119,25.119c0,11.048,7.172,20.446,17.102,23.8v10.405    c0,0.508,0.052,1.003,0.143,1.484c-14.743,3.586-25.797,16.987-25.797,32.721v0.534h-35.273v-94.597    c0-5.01,4.076-9.086,9.086-9.086h119.716c5.01,0,9.086,4.076,9.086,9.086v94.597H289.669z M495.967,281.653    c0,5.01-4.076,9.086-9.086,9.086h-26.188V16.033h26.188c5.01,0,9.086,4.076,9.086,9.086V281.653z"/>
	</g>
</g>
<g>
	<g>
		<path d="M50.772,128.267c-13.851,0-25.119,11.268-25.119,25.119s11.268,25.119,25.119,25.119    c13.851,0,25.119-11.268,25.119-25.119S64.623,128.267,50.772,128.267z M50.772,162.472c-5.01,0-9.086-4.076-9.086-9.086    s4.076-9.086,9.086-9.086c5.01,0,9.086,4.076,9.086,9.086S55.782,162.472,50.772,162.472z"/>
	</g>
</g>
<g>
	<g>
		<path d="M478.33,128.267c-4.428,0-8.017,3.589-8.017,8.017v34.205c0,4.427,3.588,8.017,8.017,8.017    c4.428,0,8.017-3.589,8.017-8.017v-34.205C486.347,131.857,482.758,128.267,478.33,128.267z"/>
	</g>
</g>
<g>
	<g>
		<path d="M150.505,113.513l-17.102-17.102c-3.132-3.131-8.207-3.131-11.338,0s-3.131,8.207,0,11.337l17.102,17.102    c1.566,1.565,3.618,2.348,5.669,2.348s4.104-0.782,5.669-2.348C153.634,121.72,153.634,116.643,150.505,113.513z"/>
	</g>
</g>
<g>
	<g>
		<path d="M170.489,85.511c-4.428,0-8.017,3.589-8.017,8.017v17.102c0,4.427,3.588,8.017,8.017,8.017s8.017-3.589,8.017-8.017    V93.528C178.505,89.101,174.917,85.511,170.489,85.511z"/>
	</g>
</g>
<g>
	<g>
		<path d="M144.835,136.818h-17.102c-4.428,0-8.017,3.589-8.017,8.017s3.588,8.017,8.017,8.017h17.102    c4.428,0,8.017-3.589,8.017-8.017S149.263,136.818,144.835,136.818z"/>
	</g>
</g>
<g>
</g>
<g>
</g>
<g>
</g>
<g>
</g>
<g>
</g>
<g>
</g>
<g>
</g>
<g>
</g>
<g>
</g>
<g>
</g>
<g>
</g>
<g>
</g>
<g>
</g>
<g>
</g>
<g>
</g>
</svg>
