<?xml version="1.0" encoding="iso-8859-1"?>
<!-- Generator: Adobe Illustrator 19.0.0, SVG Export Plug-In . SVG Version: 6.00 Build 0)  -->
<svg xmlns="http://www.w3.org/2000/svg" xmlns:xlink="http://www.w3.org/1999/xlink" version="1.1" id="Layer_1" x="0px" y="0px" viewBox="0 0 512 512" style="enable-background:new 0 0 512 512;" xml:space="preserve">
<g>
	<g>
		<path d="M503.983,213.423c4.428,0,8.017-3.589,8.017-8.017v-43.469c0-4.427-3.588-8.017-8.017-8.017h-51.841V50.772    c0-4.427-3.588-8.017-8.017-8.017H306.772V25.119C306.772,11.268,295.504,0,281.653,0H25.119C11.268,0,0,11.268,0,25.119v334.564    c0,4.427,3.589,8.017,8.017,8.017c4.427,0,8.017-3.589,8.017-8.017V101.545H145.37v147.757c-9.93,3.354-17.102,12.752-17.102,23.8    c0,5.692,1.906,10.945,5.108,15.162c-1.139,0.741-2.246,1.547-3.32,2.406l-23.53-15.687c-3.179-2.119-7.413-1.701-10.115,1.002    l-17.102,17.102c-3.131,3.131-3.131,8.207,0,11.337c3.131,3.131,8.207,3.131,11.337,0l12.455-12.455l16.318,10.878    c-2.148,3.494-3.925,7.334-5.279,11.431l-18.076-6.025c-2.88-0.96-6.057-0.211-8.204,1.937l-17.102,17.102    c-2.919,2.918-3.113,7.74-0.427,10.877c2.998,3.501,8.502,3.721,11.763,0.46l13.6-13.599l15.535,5.179    c-0.041,0.912-0.064,1.828-0.064,2.751c0,1.418,0.061,2.82,0.156,4.209l-5.657-2.828c-3.087-1.544-6.814-0.938-9.253,1.502    l-17.102,17.102c-2.919,2.918-3.113,7.74-0.426,10.877c2.998,3.501,8.502,3.721,11.763,0.46l13.017-13.017l11.934,5.968    c0.294,0.148,0.593,0.268,0.896,0.376c7.221,15.567,21.05,26.124,36.895,26.124s29.674-10.556,36.894-26.124    c0.301-0.108,0.602-0.229,0.896-0.376l11.934-5.968l13.017,13.017c3.261,3.261,8.765,3.041,11.763-0.46    c2.687-3.137,2.493-7.959-0.426-10.877l-17.102-17.102c-2.44-2.441-6.17-3.046-9.253-1.502l-5.657,2.828    c0.095-1.39,0.156-2.791,0.156-4.209c0-0.924-0.023-1.841-0.064-2.751l15.535-5.179l13.599,13.598    c3.261,3.261,8.765,3.041,11.763-0.46c2.687-3.137,2.493-7.959-0.426-10.877l-17.102-17.102c-2.147-2.147-5.324-2.896-8.204-1.937    l-18.076,6.025c-1.353-4.097-3.131-7.937-5.279-11.431l16.318-10.878l12.455,12.455c3.131,3.131,8.207,3.131,11.337,0    c3.131-3.131,3.131-8.207,0-11.337l-17.102-17.102c-2.702-2.702-6.935-3.122-10.115-1.002l-23.531,15.687    c-1.074-0.859-2.179-1.665-3.32-2.406c3.203-4.217,5.108-9.47,5.108-15.162c0-11.048-7.172-20.446-17.102-23.8V101.545h129.336    V444.66H16.033v-43.29c0-4.427-3.589-8.017-8.017-8.017c-4.427,0-8.017,3.589-8.017,8.017v85.512C0,500.732,11.268,512,25.119,512    h256.534c13.851,0,25.119-11.268,25.119-25.119v-26.188h197.211c4.428,0,8.017-3.589,8.017-8.017V256    c0-4.427-3.588-8.017-8.017-8.017c-4.428,0-8.017,3.589-8.017,8.017v188.66H306.772v-26.722h103.148    c4.428,0,8.017-3.589,8.017-8.017c0-23.87,19.42-43.29,43.29-43.29c4.428,0,8.017-3.589,8.017-8.017V256    c0-4.427-3.588-8.017-8.017-8.017c-23.87,0-43.29-19.42-43.29-43.29c0-4.427-3.588-8.017-8.017-8.017H306.772v-26.722h189.194    v35.452C495.967,209.833,499.555,213.423,503.983,213.423z M179.574,332.96c0,19.155-11.748,34.739-26.188,34.739    s-26.188-15.584-26.188-34.739s11.748-34.739,26.188-34.739S179.574,313.806,179.574,332.96z M162.472,273.102    c0,5.01-4.076,9.086-9.086,9.086s-9.086-4.076-9.086-9.086c0-5.01,4.076-9.086,9.086-9.086S162.472,268.092,162.472,273.102z     M290.739,486.881c0,5.01-4.076,9.086-9.086,9.086H25.119c-5.01,0-9.086-4.076-9.086-9.086v-26.188h274.706V486.881z     M290.739,85.511H16.033V25.119c0-5.01,4.076-9.086,9.086-9.086h256.534c5.01,0,9.086,4.076,9.086,9.086V85.511z M402.444,212.71    c3.569,26.314,24.454,47.199,50.767,50.767v87.66c-26.313,3.568-47.198,24.453-50.767,50.767h-95.671V273.102v-34.205V212.71    H402.444z M306.772,153.921v-7.839c4.602,1.465,8.683,4.182,11.824,7.839H306.772z M393.353,153.921h-55.984    c-5.674-12.832-17.116-21.797-30.596-24.364v-10.375v-17.637h35.813c3.569,26.314,24.454,47.199,50.767,50.767V153.921z     M436.109,153.921h-26.722v-9.086c0-4.427-3.588-8.017-8.017-8.017c-23.87,0-43.29-19.42-43.29-43.29    c0-4.427-3.588-8.017-8.017-8.017h-43.29V58.789h129.336V153.921z"/>
	</g>
</g>
<g>
	<g>
		<path d="M366.63,301.616V257.26c10.53,3.395,18.171,13.283,18.171,24.928c0,4.427,3.588,8.017,8.017,8.017    c4.428,0,8.017-3.589,8.017-8.017c0-20.54-14.745-37.691-34.205-41.449v-10.393c0-4.427-3.588-8.017-8.017-8.017    c-4.428,0-8.017,3.589-8.017,8.017v10.393c-19.459,3.757-34.205,20.909-34.205,41.449c0,20.781,17.671,27.492,34.205,31.879    v44.356c-10.53-3.394-18.171-13.283-18.171-24.928c0-4.427-3.588-8.017-8.017-8.017c-4.428,0-8.017,3.589-8.017,8.017    c0,20.54,14.745,37.691,34.205,41.448v9.324c0,4.427,3.588,8.017,8.017,8.017c4.428,0,8.017-3.589,8.017-8.017v-9.324    c19.459-3.757,34.205-20.909,34.205-41.448C400.835,312.713,383.164,306.003,366.63,301.616z M350.597,297.396    c-12.301-3.64-18.171-7.325-18.171-15.208c0-11.645,7.641-21.534,18.171-24.928V297.396z M366.63,358.422v-40.136    c12.301,3.64,18.171,7.325,18.171,15.208C384.802,345.139,377.16,355.029,366.63,358.422z"/>
	</g>
</g>
<g>
	<g>
		<path d="M153.386,25.653c-13.851,0-25.119,11.268-25.119,25.119c0,13.851,11.268,25.119,25.119,25.119    s25.119-11.268,25.119-25.119C178.505,36.922,167.237,25.653,153.386,25.653z M153.386,59.858c-5.01,0-9.086-4.076-9.086-9.086    c0-5.01,4.076-9.086,9.086-9.086s9.086,4.076,9.086,9.086C162.472,55.782,158.396,59.858,153.386,59.858z"/>
	</g>
</g>
<g>
	<g>
		<path d="M170.489,470.313h-34.205c-4.427,0-8.017,3.589-8.017,8.017c0,4.427,3.589,8.017,8.017,8.017h34.205    c4.427,0,8.017-3.589,8.017-8.017C178.505,473.903,174.916,470.313,170.489,470.313z"/>
	</g>
</g>
<g>
</g>
<g>
</g>
<g>
</g>
<g>
</g>
<g>
</g>
<g>
</g>
<g>
</g>
<g>
</g>
<g>
</g>
<g>
</g>
<g>
</g>
<g>
</g>
<g>
</g>
<g>
</g>
<g>
</g>
</svg>
