<?xml version="1.0" encoding="iso-8859-1"?>
<!-- Generator: Adobe Illustrator 19.0.0, SVG Export Plug-In . SVG Version: 6.00 Build 0)  -->
<svg xmlns="http://www.w3.org/2000/svg" xmlns:xlink="http://www.w3.org/1999/xlink" version="1.1" id="Layer_1" x="0px" y="0px" viewBox="0 0 512 512" style="enable-background:new 0 0 512 512;" xml:space="preserve">
<g>
	<g>
		<path d="M503.706,343.914c4.58,0,8.294-3.713,8.294-8.294V52.527c0-9.452-7.689-17.14-17.14-17.14H17.14    C7.689,35.387,0,43.075,0,52.527v406.946c0,9.452,7.689,17.14,17.14,17.14H494.86c9.452,0,17.14-7.689,17.14-17.14v-79.62    c0-4.58-3.713-8.294-8.294-8.294c-4.58,0-8.294,3.713-8.294,8.294v79.62c0,0.305-0.248,0.553-0.553,0.553H17.14    c-0.305,0-0.553-0.248-0.553-0.553V140.441h478.825V335.62C495.413,340.2,499.126,343.914,503.706,343.914z M16.587,123.853    V52.527c0-0.305,0.248-0.553,0.553-0.553H494.86c0.305,0,0.553,0.248,0.553,0.553v71.326H16.587z"/>
	</g>
</g>
<g>
	<g>
		<path d="M379.853,380.406c-4.312,0-8.378,1.062-11.961,2.928l-46.072-39.353c8.361-12.538,13.247-27.581,13.247-43.748    c0-6.81-0.866-13.422-2.493-19.731l19.664-6.554c4.735,4.949,11.396,8.039,18.768,8.039c14.329,0,25.987-11.658,25.987-25.987    c0-14.329-11.658-25.987-25.987-25.987S345.019,241.671,345.019,256c0,0.952,0.055,1.891,0.155,2.817l-18.44,6.147    c-11.81-23.59-35.06-40.493-62.441-43.361v-11.755c10.273-3.47,17.693-13.193,17.693-24.622c0-14.329-11.658-25.987-25.987-25.987    c-14.329,0-25.987,11.659-25.987,25.988c0,11.43,7.42,21.152,17.693,24.622v11.755c-31.482,3.298-57.512,25.147-66.955,54.385    l-31.474-11.554c-0.222-14.14-11.786-25.576-25.977-25.576c-14.329,0-25.987,11.658-25.987,25.987    c0,14.329,11.658,25.987,25.987,25.987c8.569,0,16.179-4.171,20.916-10.587l33.108,12.153c-0.254,2.578-0.39,5.19-0.39,7.833    c0,23.586,10.394,44.78,26.827,59.278l-21.393,30.445c-1.923-0.456-3.926-0.703-5.987-0.703    c-14.329,0-25.987,11.658-25.987,25.987s11.658,25.987,25.987,25.987s25.987-11.658,25.987-25.987    c0-6.252-2.221-11.995-5.912-16.484l20.82-29.629C228.729,375.592,241.936,379.3,256,379.3c21.472,0,40.961-8.616,55.224-22.556    l45.136,38.554c-1.597,3.367-2.494,7.128-2.494,11.095c0,14.329,11.658,25.987,25.987,25.987    c14.329,0,25.987-11.658,25.987-25.987C405.84,392.064,394.182,380.406,379.853,380.406z M371.006,246.6    c5.183,0,9.4,4.217,9.4,9.4c0,5.183-4.217,9.4-9.4,9.4s-9.4-4.216-9.4-9.4C361.607,250.817,365.823,246.6,371.006,246.6z     M132.652,265.789c-0.208,0.374-0.398,0.762-0.55,1.177c-0.271,0.738-0.422,1.488-0.479,2.235    c-1.574,2.996-4.712,5.046-8.324,5.046c-5.183,0-9.4-4.217-9.4-9.4c0-5.183,4.217-9.4,9.4-9.4c5.183,0,9.4,4.217,9.4,9.4    C132.7,265.165,132.683,265.479,132.652,265.789z M176.38,424.639c-5.183,0-9.4-4.216-9.4-9.4s4.217-9.4,9.4-9.4    c1.15,0,2.247,0.218,3.267,0.597c0.255,0.232,0.522,0.456,0.812,0.659c0.648,0.456,1.342,0.79,2.056,1.037    c1.995,1.725,3.266,4.267,3.266,7.106C185.78,420.423,181.563,424.639,176.38,424.639z M246.6,185.227c0-5.183,4.217-9.4,9.4-9.4    s9.4,4.217,9.4,9.4c0,5.183-4.216,9.4-9.4,9.4S246.6,190.41,246.6,185.227z M256,362.713c-34.451,0-62.479-28.028-62.479-62.479    c0-34.451,28.028-62.48,62.479-62.48s62.479,28.028,62.479,62.48C318.479,334.684,290.451,362.713,256,362.713z M379.853,415.793    c-5.183,0-9.4-4.217-9.4-9.4s4.217-9.4,9.4-9.4s9.4,4.216,9.4,9.4S385.036,415.793,379.853,415.793z"/>
	</g>
</g>
<g>
	<g>
		<path d="M255.632,256.553c-4.58,0-8.294,3.713-8.294,8.294v44.233c0,4.58,3.713,8.294,8.294,8.294c4.58,0,8.294-3.713,8.294-8.294    v-44.233C263.925,260.266,260.212,256.553,255.632,256.553z"/>
	</g>
</g>
<g>
	<g>
		<path d="M255.632,327.326c-4.58,0-8.294,3.713-8.294,8.294v1.474c0,4.58,3.713,8.294,8.294,8.294c4.58,0,8.294-3.713,8.294-8.294    v-1.474C263.925,331.039,260.212,327.326,255.632,327.326z"/>
	</g>
</g>
<g>
	<g>
		<path d="M450.626,61.927c-14.329,0-25.987,11.658-25.987,25.987c0,14.329,11.658,25.987,25.987,25.987    c14.329,0,25.987-11.658,25.987-25.987C476.613,73.584,464.956,61.927,450.626,61.927z M450.626,97.313    c-5.183,0-9.4-4.217-9.4-9.4c0-5.183,4.217-9.4,9.4-9.4s9.4,4.217,9.4,9.4C460.026,93.097,455.809,97.313,450.626,97.313z"/>
	</g>
</g>
<g>
	<g>
		<path d="M379.853,61.927c-14.329,0-25.987,11.658-25.987,25.987c0,14.329,11.658,25.987,25.987,25.987    c14.329,0,25.987-11.658,25.987-25.987C405.84,73.584,394.182,61.927,379.853,61.927z M379.853,97.313c-5.183,0-9.4-4.217-9.4-9.4    c0-5.183,4.217-9.4,9.4-9.4s9.4,4.217,9.4,9.4C389.253,93.097,385.036,97.313,379.853,97.313z"/>
	</g>
</g>
<g>
	<g>
		<path d="M309.08,61.927c-14.329,0-25.987,11.658-25.987,25.987c0,14.329,11.658,25.987,25.987,25.987    c14.329,0,25.987-11.658,25.987-25.987C335.067,73.584,323.409,61.927,309.08,61.927z M309.08,97.313c-5.183,0-9.4-4.217-9.4-9.4    c0-5.183,4.216-9.4,9.4-9.4s9.4,4.217,9.4,9.4C318.479,93.097,314.263,97.313,309.08,97.313z"/>
	</g>
</g>
<g>
	<g>
		<path d="M149.84,88.466H43.68c-4.58,0-8.294,3.713-8.294,8.294c0,4.58,3.713,8.294,8.294,8.294h106.16    c4.58,0,8.294-3.713,8.294-8.294C158.134,92.18,154.421,88.466,149.84,88.466z"/>
	</g>
</g>
<g>
	<g>
		<path d="M220.613,88.466h-26.54c-4.58,0-8.294,3.713-8.294,8.294c0,4.58,3.713,8.294,8.294,8.294h26.54    c4.58,0,8.294-3.713,8.294-8.294C228.907,92.18,225.194,88.466,220.613,88.466z"/>
	</g>
</g>
<g>
	<g>
		<path d="M468.32,168.086h-88.466c-4.58,0-8.294,3.713-8.294,8.294c0,4.58,3.713,8.294,8.294,8.294h88.466    c4.58,0,8.294-3.713,8.294-8.294C476.613,171.8,472.9,168.086,468.32,168.086z"/>
	</g>
</g>
<g>
	<g>
		<path d="M468.32,203.473h-53.08c-4.58,0-8.294,3.713-8.294,8.294c0,4.58,3.713,8.294,8.294,8.294h53.08    c4.58,0,8.294-3.713,8.294-8.294C476.613,207.186,472.9,203.473,468.32,203.473z"/>
	</g>
</g>
<g>
</g>
<g>
</g>
<g>
</g>
<g>
</g>
<g>
</g>
<g>
</g>
<g>
</g>
<g>
</g>
<g>
</g>
<g>
</g>
<g>
</g>
<g>
</g>
<g>
</g>
<g>
</g>
<g>
</g>
</svg>
