<?xml version="1.0" encoding="iso-8859-1"?>
<!-- Generator: Adobe Illustrator 19.0.0, SVG Export Plug-In . SVG Version: 6.00 Build 0)  -->
<svg xmlns="http://www.w3.org/2000/svg" xmlns:xlink="http://www.w3.org/1999/xlink" version="1.1" id="Layer_1" x="0px" y="0px" viewBox="0 0 512 512" style="enable-background:new 0 0 512 512;" xml:space="preserve">
<g>
	<g>
		<path d="M503.983,247.983h-0.677c-1.995-63.09-27.492-122.115-72.334-166.956C386.13,36.186,327.107,10.689,264.017,8.693V8.017    C264.017,3.589,260.427,0,256,0s-8.017,3.589-8.017,8.017v0.677c-63.09,1.996-122.115,27.492-166.956,72.334    C36.186,125.87,10.689,184.893,8.693,247.983H8.017C3.589,247.983,0,251.573,0,256s3.589,8.017,8.017,8.017h0.677    c1.996,63.09,27.492,122.115,72.334,166.956s103.865,70.339,166.956,72.334v0.677c0,4.427,3.589,8.017,8.017,8.017    s8.017-3.589,8.017-8.017v-0.677c63.09-1.995,122.115-27.492,166.956-72.334s70.339-103.865,72.334-166.956h0.677    c4.427,0,8.017-3.589,8.017-8.017S508.411,247.983,503.983,247.983z M256,50.238c21.511,0,42.66,3.322,62.805,9.769    l-20.875,57.355c-13.279-4.023-27.354-6.196-41.93-6.196s-28.651,2.173-41.93,6.196L193.21,60.047    C213.014,53.687,234.11,50.238,256,50.238z M394.639,214.07l57.366-20.88c6.42,20.078,9.757,41.223,9.757,62.809    c0,21.89-3.449,42.986-9.809,62.79l-57.314-20.861c4.023-13.279,6.196-27.355,6.196-41.93S398.662,227.349,394.639,214.07z     M446.453,333.85c-20.9,50.942-61.661,91.704-112.603,112.603l-20.859-57.311c34.107-14.656,61.496-42.044,76.151-76.151    L446.453,333.85z M256,384.802c-15.184,0-29.976-2.618-43.91-7.67c-0.052-0.02-0.102-0.046-0.154-0.065    c-0.093-0.034-0.187-0.057-0.281-0.087c-11.172-4.097-21.787-9.764-31.594-16.935c-3.574-2.613-8.59-1.835-11.203,1.739    c-2.613,3.574-1.834,8.59,1.739,11.203c8.92,6.522,18.441,11.923,28.397,16.196l-20.844,57.269    c-50.941-20.899-91.703-61.66-112.602-112.602l57.282-20.849c3.866,9.015,8.648,17.675,14.356,25.846    c2.535,3.63,7.535,4.516,11.162,1.982c3.63-2.535,4.517-7.532,1.982-11.162c-15.133-21.665-23.132-47.138-23.132-73.667    c0-71.022,57.78-128.802,128.802-128.802S384.802,184.978,384.802,256S327.022,384.802,256,384.802z M117.361,214.071    c-4.023,13.279-6.196,27.355-6.196,41.929c0,14.37,2.109,28.46,6.177,41.936l-57.294,20.853    c-6.361-19.803-9.81-40.899-9.81-62.789s3.449-42.986,9.809-62.79L117.361,214.071z M65.547,178.15    c20.9-50.942,61.661-91.704,112.603-112.603l20.859,57.311c-34.107,14.656-61.496,42.044-76.151,76.151L65.547,178.15z     M247.983,24.738v9.626c-23.431,0.837-45.946,5.32-66.996,12.907c-0.29,0.071-0.578,0.153-0.865,0.258    c-0.277,0.1-0.543,0.217-0.802,0.344C118.604,70.315,70.315,118.604,47.875,179.321c-0.127,0.259-0.244,0.525-0.344,0.802    c-0.104,0.286-0.187,0.574-0.258,0.864c-7.588,21.05-12.071,43.566-12.908,66.997h-9.626    C28.889,126.742,126.742,28.889,247.983,24.738z M247.983,487.262C126.742,483.111,28.889,385.258,24.738,264.017h9.626    c0.837,23.431,5.32,45.947,12.908,66.997c0.071,0.29,0.153,0.577,0.258,0.864c0.066,0.182,0.158,0.344,0.236,0.517    c22.394,60.851,70.744,109.256,131.555,131.732c0.259,0.127,0.525,0.244,0.802,0.344c0.28,0.102,0.562,0.182,0.844,0.25    c21.055,7.592,43.578,12.077,67.015,12.914V487.262z M256,461.762c-21.89,0-42.986-3.449-62.79-9.809l20.851-57.287    c13.461,4.061,27.542,6.17,41.939,6.17c14.575,0,28.651-2.173,41.93-6.196l20.86,57.314    C298.986,458.313,277.89,461.762,256,461.762z M264.017,487.262v-9.626c23.438-0.837,45.96-5.322,67.015-12.914    c0.283-0.07,0.564-0.149,0.844-0.25c0.277-0.101,0.543-0.217,0.802-0.344c60.811-22.476,109.161-70.88,131.555-131.732    c0.077-0.174,0.17-0.337,0.236-0.517c0.104-0.286,0.187-0.574,0.258-0.864c7.588-21.05,12.071-43.566,12.908-66.997h9.626    C483.111,385.258,385.258,483.111,264.017,487.262z M477.637,247.983c-1.928-54.131-23.325-105.241-60.774-144.68    c-3.05-3.212-8.124-3.341-11.333-0.294c-3.211,3.05-3.342,8.124-0.294,11.335c17.824,18.771,31.719,40.396,41.28,63.783    l-57.374,20.882c-14.656-34.107-42.044-61.496-76.151-76.151l20.879-57.364c12.083,4.942,23.724,11.046,34.767,18.283    c3.702,2.425,8.672,1.392,11.099-2.311c2.427-3.703,1.393-8.673-2.311-11.099c-14.313-9.381-29.554-17-45.435-22.789    c-0.039-0.015-0.074-0.033-0.113-0.048c-0.033-0.012-0.067-0.019-0.1-0.031c-21.633-7.861-44.456-12.319-67.758-13.151v-9.609    c121.241,4.151,219.094,102.003,223.245,223.245H477.637z"/>
	</g>
</g>
<g>
</g>
<g>
</g>
<g>
</g>
<g>
</g>
<g>
</g>
<g>
</g>
<g>
</g>
<g>
</g>
<g>
</g>
<g>
</g>
<g>
</g>
<g>
</g>
<g>
</g>
<g>
</g>
<g>
</g>
</svg>
