<?xml version="1.0" encoding="iso-8859-1"?>
<!-- Generator: Adobe Illustrator 19.0.0, SVG Export Plug-In . SVG Version: 6.00 Build 0)  -->
<svg xmlns="http://www.w3.org/2000/svg" xmlns:xlink="http://www.w3.org/1999/xlink" version="1.1" id="Layer_1" x="0px" y="0px" viewBox="0 0 512 512" style="enable-background:new 0 0 512 512;" xml:space="preserve">
<g>
	<g>
		<path d="M486.881,273.637H325.349l4.573-4.116c33.433-5.542,63.807-18.644,85.748-37.025    c23.52-19.704,36.473-44.763,36.473-70.558c0-23.758-10.591-46.356-30.626-65.352c-3.213-3.046-8.287-2.911-11.333,0.302    c-3.047,3.213-2.912,8.287,0.301,11.333c16.763,15.892,25.625,34.468,25.625,53.716c0,21.273-10.628,41.422-30.737,58.269    c-20.247,16.964-48.758,28.986-80.277,33.851c-1.541,0.238-2.981,0.92-4.141,1.964l-65.488,58.94v-54.998    c0-3.794-2.658-7.068-6.371-7.846c-28.895-6.062-54.751-18.384-72.801-34.697c-18.012-16.278-27.531-35.463-27.531-55.481    c0-52.161,64.452-94.597,143.673-94.597c30.196,0,59.117,6.157,83.637,17.805c3.994,1.899,8.781,0.199,10.68-3.801    c1.899-3.999,0.199-8.781-3.802-10.681C356.296,58,324.996,51.307,292.435,51.307c-42.103,0-81.791,11.162-111.753,31.432    c-30.924,20.919-47.954,49.045-47.954,79.199c0,24.676,11.346,47.975,32.814,67.377c19.053,17.219,44.495,29.962,73.889,37.059    v7.264H25.119C11.268,273.637,0,284.905,0,298.756v136.818c0,13.851,11.268,25.119,25.119,25.119h461.762    c13.851,0,25.119-11.268,25.119-25.119V298.756C512,284.905,500.732,273.637,486.881,273.637z M495.967,435.574    c0,5.01-4.076,9.086-9.086,9.086H25.119c-5.01,0-9.086-4.076-9.086-9.086V298.756c0-5.01,4.076-9.086,9.086-9.086h214.313v9.62    H42.221c-9.136,0-16.568,7.432-16.568,16.568v102.614c0,9.136,7.432,16.568,16.568,16.568h289.67c4.428,0,8.017-3.589,8.017-8.017    c0-4.427-3.588-8.017-8.017-8.017H42.221c-0.294,0-0.534-0.239-0.534-0.534V315.858c0-0.295,0.241-0.534,0.534-0.534h197.211    v17.637c0,6.779,8.314,10.517,13.38,5.959l26.881-24.192c0.935,0.383,1.957,0.596,3.029,0.596h187.056    c0.294,0,0.534,0.239,0.534,0.534v102.614c0,0.295-0.24,0.534-0.534,0.534h-94.063c-4.428,0-8.017,3.589-8.017,8.017    s3.588,8.017,8.017,8.017h94.063c9.136,0,16.568-7.432,16.568-16.568V315.858c0-9.136-7.432-16.568-16.568-16.568H296.845    l10.895-9.806c0.549,0.12,1.119,0.186,1.705,0.186h177.436c5.01,0,9.086,4.076,9.086,9.086V435.574z"/>
	</g>
</g>
<g>
	<g>
		<path d="M114.906,359.148h-10.255l5.033-15.101c1.4-4.201-0.869-8.74-5.07-10.141c-4.203-1.4-8.741,0.869-10.141,5.071    l-5.221,15.664l-5.222-15.664c-1.401-4.201-5.94-6.471-10.141-5.071c-4.201,1.4-6.47,5.94-5.07,10.141l5.033,15.101H63.599    c-4.428,0-8.017,3.589-8.017,8.017c0,4.427,3.588,8.017,8.017,8.017h10.255l-5.033,15.101c-1.328,3.984,0.746,8.435,4.648,9.986    c4.224,1.678,9.127-0.609,10.563-4.915l5.222-15.664l5.222,15.664c1.439,4.315,6.334,6.582,10.563,4.915    c3.906-1.539,5.973-6.009,4.648-9.986l-5.033-15.101h10.255c4.428,0,8.017-3.589,8.017-8.017    C122.923,362.738,119.334,359.148,114.906,359.148z"/>
	</g>
</g>
<g>
	<g>
		<path d="M226.071,359.148h-10.255l5.033-15.101c1.4-4.201-0.869-8.74-5.07-10.141c-4.204-1.4-8.741,0.869-10.141,5.071    l-5.222,15.664l-5.221-15.664c-1.401-4.201-5.94-6.471-10.141-5.071c-4.201,1.4-6.47,5.94-5.07,10.141l5.033,15.101h-10.255    c-4.428,0-8.017,3.589-8.017,8.017c0,4.427,3.588,8.017,8.017,8.017h10.255l-5.033,15.101c-1.328,3.984,0.746,8.435,4.648,9.986    c4.224,1.678,9.127-0.609,10.563-4.915l5.222-15.664l5.222,15.664c1.439,4.315,6.334,6.582,10.563,4.915    c3.906-1.539,5.973-6.009,4.648-9.986l-5.033-15.101h10.255c4.428,0,8.017-3.589,8.017-8.017    C234.088,362.738,230.499,359.148,226.071,359.148z"/>
	</g>
</g>
<g>
	<g>
		<path d="M337.236,359.148h-10.255l5.033-15.101c1.4-4.201-0.869-8.74-5.07-10.141c-4.203-1.4-8.74,0.869-10.141,5.071    l-5.222,15.664l-5.222-15.664c-1.401-4.201-5.939-6.471-10.141-5.071c-4.201,1.4-6.47,5.94-5.07,10.141l5.033,15.101h-10.255    c-4.428,0-8.017,3.589-8.017,8.017c0,4.427,3.588,8.017,8.017,8.017h10.255l-5.033,15.101c-1.328,3.984,0.746,8.435,4.648,9.986    c4.224,1.678,9.127-0.609,10.563-4.915l5.222-15.664l5.222,15.664c1.439,4.315,6.334,6.582,10.563,4.915    c3.906-1.539,5.973-6.009,4.648-9.986l-5.033-15.101h10.255c4.428,0,8.017-3.589,8.017-8.017    C345.253,362.738,341.664,359.148,337.236,359.148z"/>
	</g>
</g>
<g>
	<g>
		<path d="M448.401,359.148h-10.255l5.033-15.101c1.4-4.201-0.869-8.74-5.07-10.141c-4.204-1.4-8.741,0.869-10.141,5.071    l-5.222,15.664l-5.222-15.664c-1.401-4.201-5.939-6.471-10.141-5.071c-4.201,1.4-6.47,5.94-5.07,10.141l5.033,15.101h-10.255    c-4.428,0-8.017,3.589-8.017,8.017c0,4.427,3.588,8.017,8.017,8.017h10.255l-5.033,15.101c-1.328,3.984,0.746,8.435,4.648,9.986    c4.224,1.678,9.127-0.609,10.563-4.915l5.222-15.664l5.222,15.664c1.439,4.315,6.334,6.582,10.563,4.915    c3.906-1.539,5.973-6.009,4.648-9.986l-5.033-15.101h10.255c4.428,0,8.017-3.589,8.017-8.017    C456.418,362.738,452.829,359.148,448.401,359.148z"/>
	</g>
</g>
<g>
	<g>
		<path d="M247.449,119.716c-18.566,0-33.67,18.941-33.67,42.221s15.105,42.221,33.67,42.221s33.67-18.941,33.67-42.221    S266.014,119.716,247.449,119.716z M247.449,188.125c-9.56,0-17.637-11.993-17.637-26.188s8.077-26.188,17.637-26.188    s17.637,11.993,17.637,26.188S257.009,188.125,247.449,188.125z"/>
	</g>
</g>
<g>
	<g>
		<path d="M375.716,119.716c-18.566,0-33.67,18.941-33.67,42.221s15.105,42.221,33.67,42.221c18.566,0,33.67-18.941,33.67-42.221    S394.282,119.716,375.716,119.716z M375.716,188.125c-9.56,0-17.637-11.993-17.637-26.188s8.077-26.188,17.637-26.188    s17.637,11.993,17.637,26.188S385.276,188.125,375.716,188.125z"/>
	</g>
</g>
<g>
	<g>
		<path d="M298.756,119.716c-4.428,0-8.017,3.589-8.017,8.017v68.409c0,4.427,3.588,8.017,8.017,8.017    c4.428,0,8.017-3.589,8.017-8.017v-68.409C306.772,123.305,303.184,119.716,298.756,119.716z"/>
	</g>
</g>
<g>
	<g>
		<path d="M196.142,119.716c-4.428,0-8.017,3.589-8.017,8.017v68.409c0,4.427,3.588,8.017,8.017,8.017s8.017-3.589,8.017-8.017    v-68.409C204.159,123.305,200.57,119.716,196.142,119.716z"/>
	</g>
</g>
<g>
	<g>
		<path d="M324.409,119.716c-4.428,0-8.017,3.589-8.017,8.017v68.409c0,4.427,3.588,8.017,8.017,8.017    c4.428,0,8.017-3.589,8.017-8.017v-68.409C332.426,123.305,328.838,119.716,324.409,119.716z"/>
	</g>
</g>
<g>
</g>
<g>
</g>
<g>
</g>
<g>
</g>
<g>
</g>
<g>
</g>
<g>
</g>
<g>
</g>
<g>
</g>
<g>
</g>
<g>
</g>
<g>
</g>
<g>
</g>
<g>
</g>
<g>
</g>
</svg>
