<?xml version="1.0" encoding="iso-8859-1"?>
<!-- Generator: Adobe Illustrator 19.0.0, SVG Export Plug-In . SVG Version: 6.00 Build 0)  -->
<svg xmlns="http://www.w3.org/2000/svg" xmlns:xlink="http://www.w3.org/1999/xlink" version="1.1" id="Layer_1" x="0px" y="0px" viewBox="0 0 512 512" style="enable-background:new 0 0 512 512;" xml:space="preserve">
<g>
	<g>
		<path d="M400.995,2.244c-8.317-3.894-18.251-2.613-25.306,3.267l-53.08,44.233c-5.61,4.675-8.778,11.776-8.545,19.072    c0.241,7.527,4.187,14.63,10.404,18.869c3.322,2.266,7.209,3.638,11.21,4.002c6.321,0.57,12.496-1.348,17.375-5.413l14.083-11.736    v130.594c0,13.11,10.666,23.775,23.775,23.775s23.775-10.666,23.775-23.775V23.775C414.687,14.591,409.314,6.141,400.995,2.244z     M398.099,205.132c0,3.963-3.225,7.188-7.188,7.188s-7.188-3.225-7.188-7.188V56.83c0-6.871-8.297-10.792-13.604-6.372    L342.433,73.53c-4.819,4.018-12.328,0.075-11.761-6.172c0.174-1.912,1.083-3.641,2.558-4.871l53.08-44.233    c2.132-1.776,5.134-2.167,7.65-0.987c2.515,1.178,4.139,3.733,4.139,6.509V205.132z"/>
	</g>
</g>
<g>
	<g>
		<path d="M189.229,285.338c-8.317-3.895-18.251-2.613-25.306,3.267l-53.08,44.233c-7.548,6.292-10.501,16.923-7.203,26.202    c3.262,9.18,12.028,15.546,21.755,15.83c5.768,0.168,11.46-1.809,15.891-5.502l14.083-11.736v130.593    c0,13.11,10.666,23.775,23.775,23.775c13.11,0,23.775-10.666,23.775-23.775V306.868    C202.92,297.685,197.547,289.234,189.229,285.338z M186.333,488.225c0,3.963-3.225,7.188-7.188,7.188s-7.188-3.225-7.188-7.188    V339.923c0-6.871-8.297-10.792-13.604-6.372l-27.687,23.072c-3.006,2.507-7.625,2.09-10.123-0.921    c-2.501-3.015-2.093-7.611,0.92-10.123l53.08-44.233c2.132-1.777,5.134-2.166,7.65-0.987c2.515,1.178,4.139,3.732,4.139,6.509    V488.225z"/>
	</g>
</g>
<g>
	<g>
		<path d="M176.38,0C113.27,0,61.927,51.344,61.927,114.454c0,22.632,6.597,44.517,19.078,63.291    c2.537,3.814,7.683,4.85,11.498,2.315c3.814-2.536,4.851-7.684,2.316-11.498c-10.666-16.043-16.304-34.753-16.304-54.107    c0-53.963,43.903-97.866,97.866-97.866s97.866,43.903,97.866,97.866c0,53.964-43.903,97.866-97.866,97.866    c-17.21,0-34.129-4.526-48.931-13.09c-3.961-2.294-9.037-0.94-11.333,3.026c-2.293,3.964-0.939,9.038,3.026,11.333    c17.323,10.021,37.116,15.319,57.238,15.319c63.11,0,114.454-51.344,114.454-114.454S239.49,0,176.38,0z"/>
	</g>
</g>
<g>
	<g>
		<path d="M176.38,35.387c-43.597,0-79.067,35.47-79.067,79.067s35.47,79.067,79.067,79.067s79.067-35.47,79.067-79.067    S219.978,35.387,176.38,35.387z M176.38,176.933c-34.451,0-62.479-28.028-62.479-62.479c0-34.451,28.028-62.479,62.479-62.479    c34.451,0,62.479,28.028,62.479,62.479S210.831,176.933,176.38,176.933z"/>
	</g>
</g>
<g>
	<g>
		<path d="M442.017,376.532c-1.835-4.197-6.725-6.113-10.92-4.279c-4.198,1.835-6.113,6.723-4.278,10.921    c4.424,10.125,6.667,20.914,6.667,32.066c0,44.208-35.965,80.173-80.173,80.173s-80.173-35.966-80.173-80.174    s35.965-80.173,80.173-80.173c17.509,0,34.14,5.54,48.096,16.022c3.663,2.75,8.862,2.01,11.612-1.651    c2.75-3.663,2.012-8.861-1.651-11.612c-9.749-7.323-20.583-12.634-32.07-15.821v-30.618c0-4.58-3.712-8.294-8.294-8.294h-9.4v-9.4    c0-14.329-11.658-25.987-25.987-25.987h-50.75l3.535-3.535c3.239-3.239,3.239-8.491,0-11.728c-3.24-3.239-8.491-3.239-11.73,0    l-3.535,3.534v-6.517c0-4.58-3.712-8.294-8.294-8.294c-4.581,0-8.294,3.713-8.294,8.294v6.517l-3.534-3.534    c-3.24-3.239-8.491-3.239-11.73,0c-3.239,3.239-3.239,8.491,0,11.728l3.535,3.535h-6.518c-4.581,0-8.294,3.713-8.294,8.294    c0,4.58,3.712,8.294,8.294,8.294h6.517l-3.535,3.535c-3.239,3.239-3.239,8.491,0,11.728c1.62,1.619,3.743,2.43,5.865,2.43    c2.122,0,4.245-0.809,5.865-2.43l3.534-3.534v6.517c0,4.58,3.712,8.294,8.294,8.294c4.581,0,8.294-3.713,8.294-8.294v-6.517    l3.534,3.534c1.62,1.619,3.743,2.43,5.865,2.43c2.122,0,4.245-0.809,5.865-2.43c3.239-3.239,3.239-8.491,0-11.728l-3.535-3.535    h50.75c5.183,0,9.4,4.217,9.4,9.4v9.4h-9.4c-4.581,0-8.294,3.713-8.294,8.294v30.641c-40.773,11.382-70.773,48.857-70.773,93.212    c0,53.354,43.406,96.76,96.76,96.76s96.76-43.406,96.76-96.76C450.073,401.787,447.363,388.764,442.017,376.532z M343.914,299.68    h18.799v18.799h-18.799V299.68z"/>
	</g>
</g>
<g>
</g>
<g>
</g>
<g>
</g>
<g>
</g>
<g>
</g>
<g>
</g>
<g>
</g>
<g>
</g>
<g>
</g>
<g>
</g>
<g>
</g>
<g>
</g>
<g>
</g>
<g>
</g>
<g>
</g>
</svg>
