<?xml version="1.0" encoding="iso-8859-1"?>
<!-- Generator: Adobe Illustrator 19.0.0, SVG Export Plug-In . SVG Version: 6.00 Build 0)  -->
<svg xmlns="http://www.w3.org/2000/svg" xmlns:xlink="http://www.w3.org/1999/xlink" version="1.1" id="Layer_1" x="0px" y="0px" viewBox="0 0 512 512" style="enable-background:new 0 0 512 512;" xml:space="preserve">
<g>
	<g>
		<path d="M439.85,333.495h-51.841v-61.461c0-4.427-3.588-8.017-8.017-8.017c-4.428,0-8.017,3.589-8.017,8.017v18.706H293.32    c13.155-19.134,34.83-56.453,34.83-94.597c0-22.58-10.473-44.092-29.489-60.571c-17.896-15.51-41.238-24.406-64.04-24.406    s-46.143,8.895-64.04,24.406c-19.016,16.48-29.489,37.992-29.489,60.571c0,38.145,21.676,75.463,34.83,94.597H97.269V161.937    c0-92.597,73.724-136.34,137.353-145.818c63.629,9.479,137.353,53.221,137.353,145.818v70.191c0,4.427,3.588,8.017,8.017,8.017    c4.428,0,8.017-3.589,8.017-8.017v-70.191c0-47.849-18.346-88.768-53.057-118.336c-26.307-22.41-62.464-38.273-99.197-43.52    c-0.751-0.108-1.516-0.108-2.267,0c-36.734,5.248-72.889,21.111-99.197,43.52c-34.709,29.568-53.056,70.487-53.056,118.336    v237.829h-1.603c-13.262,0-24.05,10.789-24.05,24.05v29.929c0,13.262,10.788,24.05,24.05,24.05h1.603v26.188    c0,4.427,3.589,8.017,8.017,8.017c1.247,0,77.316,0,77.316,0c4.427,0,8.017-3.589,8.017-8.017c0-4.427-3.589-8.017-8.017-8.017    H97.804c-0.295,0-0.534-0.239-0.534-0.534v-17.637h137.887v18.171h-25.832c-4.427,0-8.017,3.589-8.017,8.017    c0,4.427,3.589,8.017,8.017,8.017h239.076c4.428,0,8.017-3.589,8.017-8.017V350.062    C456.417,340.927,448.985,333.495,439.85,333.495z M371.975,306.772v26.722h-86.58v-26.722H371.975z M312.117,196.142    c0,11.736-2.451,23.565-6.15,34.739h-31.974c-12.573,0-22.803-10.229-22.803-22.803v-12.471h60.91    C312.102,195.787,312.117,195.962,312.117,196.142z M157.127,196.142c0-0.18,0.016-0.355,0.017-0.534h60.91v12.471    c0,12.573-10.229,22.803-22.803,22.803h-31.991C159.572,219.716,157.127,207.891,157.127,196.142z M172.171,252.568    c-0.9-1.846-1.785-3.732-2.647-5.653h25.726c21.415,0,38.837-17.422,38.837-38.836v-20.487c0-4.427-3.589-8.017-8.017-8.017    h-66.449c9.376-30.86,43.756-52.376,75-52.376s65.625,21.516,75,52.376h-66.449c-4.428,0-8.017,3.589-8.017,8.017v20.487    c0,21.414,17.422,38.836,38.836,38.836h25.703c-0.868,1.931-1.757,3.828-2.663,5.682c-18.059,13.759-39.603,21.04-62.411,21.04    C211.799,273.636,190.239,266.344,172.171,252.568z M195.753,290.739c-1.744-2.278-4.372-5.83-7.452-10.391    c14.497,6.131,30.133,9.322,46.322,9.322c16.18,0,31.807-3.187,46.299-9.313c-3.074,4.557-5.694,8.104-7.434,10.382H195.753z     M200.952,358.613c0,5.01-4.076,9.086-9.086,9.086s-9.086-4.076-9.086-9.086c0-5.01,4.076-9.086,9.086-9.086    S200.952,353.604,200.952,358.613z M147.507,453.745c0,4.24-3.311,7.713-7.482,7.99v-17.61c0-4.427-3.589-8.017-8.017-8.017    s-8.017,3.589-8.017,8.017v17.637h-5.344v-17.637c0-4.427-3.589-8.017-8.017-8.017s-8.017,3.589-8.017,8.017v17.637h-5.344    v-17.637c0-4.427-3.589-8.017-8.017-8.017s-8.017,3.589-8.017,8.017v17.637h-1.603c-4.421,0-8.017-3.596-8.017-8.017v-29.929    c0-4.421,3.596-8.017,8.017-8.017h59.858c4.421,0,8.017,3.596,8.017,8.017V453.745z M235.156,350.062v111.699h-72.995    c0.89-2.509,1.379-5.207,1.379-8.017v-29.929c0-13.262-10.788-24.05-24.05-24.05H97.269v-92.994h86.58v28.041    c-9.93,3.354-17.102,12.752-17.102,23.8c0,13.851,11.268,25.119,25.119,25.119s25.119-11.268,25.119-25.119    c0-11.048-7.172-20.446-17.102-23.8v-28.041h69.478v26.722h-17.637C242.588,333.495,235.156,340.927,235.156,350.062z     M440.384,495.966H251.19V350.062c0-0.295,0.24-0.534,0.534-0.534H439.85c0.294,0,0.534,0.239,0.534,0.534V495.966z"/>
	</g>
</g>
<g>
	<g>
		<path d="M345.787,436.108c-13.851,0-25.119,11.268-25.119,25.119c0,13.851,11.268,25.119,25.119,25.119    c13.851,0,25.119-11.268,25.119-25.119C370.906,447.377,359.638,436.108,345.787,436.108z M345.787,470.313    c-5.01,0-9.086-4.076-9.086-9.086c0-5.01,4.076-9.086,9.086-9.086c5.01,0,9.086,4.076,9.086,9.086    C354.873,466.237,350.797,470.313,345.787,470.313z"/>
	</g>
</g>
<g>
	<g>
		<path d="M417.969,389.047c-19.281-19.281-44.915-29.899-72.182-29.899c-27.267,0-52.902,10.618-72.181,29.899    c-3.131,3.131-3.131,8.207,0.001,11.337c3.13,3.132,8.206,3.131,11.337,0c16.251-16.251,37.859-25.202,60.844-25.202    c22.984,0,44.592,8.951,60.844,25.202c1.566,1.566,3.617,2.348,5.669,2.348c2.051,0,4.104-0.782,5.668-2.348    C421.1,397.253,421.1,392.178,417.969,389.047z"/>
	</g>
</g>
<g>
	<g>
		<path d="M399.828,407.186c-14.435-14.435-33.627-22.385-54.041-22.385c-20.414,0-39.606,7.949-54.041,22.385    c-3.132,3.131-3.132,8.206-0.001,11.337c3.132,3.131,8.208,3.131,11.337,0c11.409-11.406,26.574-17.688,42.706-17.688    c16.132,0,31.296,6.282,42.704,17.688c1.565,1.566,3.616,2.348,5.668,2.348c2.051,0,4.103-0.782,5.669-2.348    C402.96,415.392,402.96,410.316,399.828,407.186z"/>
	</g>
</g>
<g>
	<g>
		<path d="M381.688,425.327c-9.589-9.591-22.338-14.873-35.901-14.873c-13.562,0-26.312,5.281-35.902,14.872    c-3.131,3.131-3.131,8.207,0.001,11.338c3.13,3.131,8.206,3.13,11.337,0c6.561-6.562,15.284-10.175,24.563-10.175    c9.279,0,18.003,3.613,24.563,10.175c1.566,1.565,3.617,2.348,5.669,2.348c2.051,0,4.104-0.782,5.668-2.347    C384.819,433.534,384.819,428.458,381.688,425.327z"/>
	</g>
</g>
<g>
</g>
<g>
</g>
<g>
</g>
<g>
</g>
<g>
</g>
<g>
</g>
<g>
</g>
<g>
</g>
<g>
</g>
<g>
</g>
<g>
</g>
<g>
</g>
<g>
</g>
<g>
</g>
<g>
</g>
</svg>
