<?xml version="1.0" encoding="iso-8859-1"?>
<!-- Generator: Adobe Illustrator 19.0.0, SVG Export Plug-In . SVG Version: 6.00 Build 0)  -->
<svg xmlns="http://www.w3.org/2000/svg" xmlns:xlink="http://www.w3.org/1999/xlink" version="1.1" id="Layer_1" x="0px" y="0px" viewBox="0 0 512 512" style="enable-background:new 0 0 512 512;" xml:space="preserve">
<g>
	<g>
		<path d="M503.983,222.33H397.671c-4.045-33.555-20.003-64.901-44.826-87.921l18.317-5.621c3.257-1,5.527-3.95,5.659-7.354    c0.131-3.404-1.904-6.521-5.075-7.77L258.936,69.262c-6.385-2.512-12.909,4.01-10.396,10.396l44.401,112.81    c1.247,3.17,4.357,5.204,7.77,5.075c3.406-0.131,6.355-2.402,7.354-5.659l8.606-28.039c18.289,14.752,30.512,35.593,34.574,58.484    H161.403v-73.754h26.188c9.136,0,16.568-7.432,16.568-16.568v-12.827c0-9.136-7.432-16.568-16.568-16.568h-26.188V8.017    c0-4.427-3.589-8.017-8.017-8.017h-34.205c-4.427,0-8.017,3.589-8.017,8.017v94.597H84.977c-9.136,0-16.568,7.432-16.568,16.568    v12.827c0,9.136,7.432,16.568,16.568,16.568h26.188v73.754H8.017c-4.427,0-8.017,3.589-8.017,8.017v273.637    C0,508.411,3.589,512,8.017,512h368.768c4.427,0,8.017-3.589,8.017-8.017c0-4.427-3.589-8.017-8.017-8.017H16.033V238.363h336.69    c0.002,0.277,0.012,0.554,0.012,0.831c0,5.846-0.538,11.647-1.57,17.341H248.518c-4.427,0-8.017,3.589-8.017,8.017    s3.589,8.017,8.017,8.017h98.287c-2.094,5.707-4.718,11.224-7.875,16.463c-5.098,8.458-4.133,19.579,2.385,27.007    c6.381,7.271,16.956,9.785,25.914,6.142c4.577-1.861,8.517-5.192,11.068-9.428c7.539-12.51,13.066-26.071,16.452-40.184h24.888    c3.439,21.588,20.535,38.684,42.124,42.124v104.947c-21.588,3.439-38.684,20.534-42.124,42.124H92.362    c-3.44-21.589-20.536-38.685-42.124-42.125V314.691c21.588-3.439,38.684-20.535,42.124-42.124h112.866    c4.427,0,8.017-3.589,8.017-8.017s-3.589-8.017-8.017-8.017H84.977c-4.427,0-8.017,3.589-8.017,8.017    c0,19.155-15.584,34.739-34.739,34.739c-4.427,0-8.017,3.589-8.017,8.017v119.716c0,4.427,3.589,8.017,8.017,8.017    c19.155,0,34.739,15.584,34.739,34.739c0,4.427,3.589,8.017,8.017,8.017h342.046c4.427,0,8.017-3.589,8.017-8.017    c0-19.155,15.584-34.739,34.739-34.739c4.427,0,8.017-3.589,8.017-8.017V307.306c0-4.427-3.589-8.017-8.017-8.017    c-19.155,0-34.739-15.584-34.739-34.739c0-4.427-3.589-8.017-8.017-8.017h-29.399c0.699-5.734,1.073-11.522,1.073-17.341    c0-0.278-0.01-0.554-0.011-0.831h97.28v257.603h-76.96c-4.427,0-8.017,3.589-8.017,8.017c0,4.427,3.589,8.017,8.017,8.017h84.977    c4.427,0,8.017-3.589,8.017-8.017V230.346C512,225.919,508.411,222.33,503.983,222.33z M145.37,140.56v81.77h-18.171v-81.77    c0-4.427-3.589-8.017-8.017-8.017H84.977c-0.295,0-0.534-0.239-0.534-0.534v-12.827c0-0.295,0.239-0.534,0.534-0.534h34.205    c4.427,0,8.017-3.589,8.017-8.017V16.033h18.171v94.597c0,4.427,3.589,8.017,8.017,8.017h34.205c0.295,0,0.534,0.239,0.534,0.534    v12.827c0,0.295-0.239,0.534-0.534,0.534h-34.205C148.959,132.543,145.37,136.132,145.37,140.56z M364.564,304.478    c-1.919,3.185-6.129,4.293-9.371,2.457c-3.355-1.899-4.525-6.319-2.53-9.63c10.536-17.485,16.105-37.58,16.105-58.111    c0-36.847-18.069-71.449-48.333-92.56c-1.49-1.038-2.338-2.663-3.954-3.579c-1.408-0.798-3.051-1.155-4.662-1.012    c-3.214,0.284-6.009,2.547-6.956,5.633l-5.397,17.587L270.209,90.93l74.333,29.257l-10.555,3.24    c-2.888,0.887-5.033,3.322-5.548,6.3c-0.514,2.978,0.689,5.991,3.114,7.795c32.004,23.817,51.111,61.827,51.111,101.672    C382.664,262.253,376.406,284.827,364.564,304.478z"/>
	</g>
</g>
<g>
	<g>
		<path d="M264.017,360.94v-44.356c10.53,3.395,18.171,13.283,18.171,24.928c0,4.427,3.589,8.017,8.017,8.017    s8.017-3.589,8.017-8.017c0-20.54-14.745-37.691-34.205-41.448v-9.858c0-4.427-3.589-8.017-8.017-8.017s-8.017,3.589-8.017,8.017    v9.858c-19.459,3.757-34.205,20.909-34.205,41.448c0,20.781,17.67,27.492,34.205,31.879v44.356    c-10.53-3.394-18.171-13.283-18.171-24.928c0-4.427-3.589-8.017-8.017-8.017s-8.017,3.589-8.017,8.017    c0,20.54,14.745,37.691,34.205,41.448v9.858c0,4.427,3.589,8.017,8.017,8.017s8.017-3.589,8.017-8.017v-9.858    c19.459-3.757,34.205-20.909,34.205-41.448C298.221,372.037,280.551,365.326,264.017,360.94z M247.983,356.72    c-12.301-3.64-18.171-7.325-18.171-15.208c0-11.645,7.641-21.534,18.171-24.928V356.72z M264.017,417.746V377.61    c12.301,3.64,18.171,7.325,18.171,15.208C282.188,404.463,274.546,414.352,264.017,417.746z"/>
	</g>
</g>
<g>
	<g>
		<path d="M418.472,384.802h-68.409c-4.427,0-8.017,3.589-8.017,8.017c0,4.427,3.589,8.017,8.017,8.017h68.409    c4.427,0,8.017-3.589,8.017-8.017C426.489,388.391,422.899,384.802,418.472,384.802z"/>
	</g>
</g>
<g>
	<g>
		<path d="M418.472,350.597h-68.409c-4.427,0-8.017,3.589-8.017,8.017s3.589,8.017,8.017,8.017h68.409    c4.427,0,8.017-3.589,8.017-8.017S422.899,350.597,418.472,350.597z"/>
	</g>
</g>
<g>
	<g>
		<path d="M161.937,384.802H93.528c-4.427,0-8.017,3.589-8.017,8.017c0,4.427,3.589,8.017,8.017,8.017h68.409    c4.427,0,8.017-3.589,8.017-8.017C169.954,388.391,166.365,384.802,161.937,384.802z"/>
	</g>
</g>
<g>
	<g>
		<path d="M161.937,350.597H93.528c-4.427,0-8.017,3.589-8.017,8.017s3.589,8.017,8.017,8.017h68.409    c4.427,0,8.017-3.589,8.017-8.017S166.365,350.597,161.937,350.597z"/>
	</g>
</g>
<g>
</g>
<g>
</g>
<g>
</g>
<g>
</g>
<g>
</g>
<g>
</g>
<g>
</g>
<g>
</g>
<g>
</g>
<g>
</g>
<g>
</g>
<g>
</g>
<g>
</g>
<g>
</g>
<g>
</g>
</svg>
