<?xml version="1.0" encoding="iso-8859-1"?>
<!-- Generator: Adobe Illustrator 19.0.0, SVG Export Plug-In . SVG Version: 6.00 Build 0)  -->
<svg xmlns="http://www.w3.org/2000/svg" xmlns:xlink="http://www.w3.org/1999/xlink" version="1.1" id="Layer_1" x="0px" y="0px" viewBox="0 0 512 512" style="enable-background:new 0 0 512 512;" xml:space="preserve">
<g>
	<g>
		<path d="M438.624,408.73h-17.936V278.103c0-4.503-3.65-8.153-8.153-8.153s-8.153,3.65-8.153,8.153V408.73H203.822    c-4.503,0-8.153,3.65-8.153,8.153s3.65,8.153,8.153,8.153h234.803c19.48,0,35.329,15.849,35.329,35.329    c0,19.48-15.849,35.329-35.329,35.329H73.376c-19.48,0-35.329-15.849-35.329-35.329c0-19.48,15.849-35.329,35.329-35.329h88.051    c4.503,0,8.153-3.65,8.153-8.153s-3.65-8.153-8.153-8.153h-53.809V208.17c0-53.047,43.157-96.204,96.204-96.204h104.357    c53.047,0,96.204,43.157,96.204,96.204v27.176c0,4.503,3.65,8.153,8.153,8.153s8.153-3.65,8.153-8.153V208.17    c0-62.038-50.472-112.51-112.51-112.51H203.822c-62.038,0-112.51,50.472-112.51,112.51V408.73H73.376    c-28.471,0-51.635,23.164-51.635,51.635c0,28.471,23.164,51.635,51.635,51.635h365.248c28.471,0,51.635-23.164,51.635-51.635    C490.259,431.894,467.095,408.73,438.624,408.73z"/>
	</g>
</g>
<g>
	<g>
		<path d="M256,0c-4.503,0-8.153,3.65-8.153,8.153v52.178c0,4.503,3.65,8.153,8.153,8.153s8.153-3.65,8.153-8.153V8.153    C264.153,3.65,260.503,0,256,0z"/>
	</g>
</g>
<g>
	<g>
		<path d="M426.996,37.174c-3.184-3.184-8.346-3.184-11.529,0l-34.786,34.786c-5.023,5.021-1.365,13.917,5.765,13.917    c2.086,0,4.173-0.796,5.765-2.388l34.786-34.786C430.18,45.519,430.18,40.357,426.996,37.174z"/>
	</g>
</g>
<g>
	<g>
		<path d="M131.319,71.959L96.533,37.174c-3.184-3.184-8.346-3.184-11.529,0c-3.184,3.184-3.184,8.346,0,11.529l34.786,34.786    c3.315,3.317,8.914,3.093,11.963-0.467C134.485,79.831,134.287,74.927,131.319,71.959z"/>
	</g>
</g>
<g>
	<g>
		<path d="M306.32,130.446c-4.503,0-8.153,3.65-8.153,8.153s3.65,8.153,8.153,8.153c33.866,0,61.418,27.552,61.418,61.418v114.14    c0,4.503,3.649,8.153,8.153,8.153c4.503,0,8.153-3.65,8.153-8.153V208.17C384.044,165.313,349.176,130.446,306.32,130.446z"/>
	</g>
</g>
<g>
</g>
<g>
</g>
<g>
</g>
<g>
</g>
<g>
</g>
<g>
</g>
<g>
</g>
<g>
</g>
<g>
</g>
<g>
</g>
<g>
</g>
<g>
</g>
<g>
</g>
<g>
</g>
<g>
</g>
</svg>
