<?xml version="1.0" encoding="iso-8859-1"?>
<!-- Generator: Adobe Illustrator 19.0.0, SVG Export Plug-In . SVG Version: 6.00 Build 0)  -->
<svg xmlns="http://www.w3.org/2000/svg" xmlns:xlink="http://www.w3.org/1999/xlink" version="1.1" id="Layer_1" x="0px" y="0px" viewBox="0 0 512 512" style="enable-background:new 0 0 512 512;" xml:space="preserve">
<g>
	<g>
		<path d="M503.983,110.096c4.428,0,8.017-3.589,8.017-8.017V42.221C512,18.941,493.059,0,469.779,0H42.221    C18.941,0,0,18.941,0,42.221v333.495c0,23.281,18.941,42.221,42.221,42.221h175.646l-3.716,78.029H179.04    c-4.428,0-8.017,3.589-8.017,8.017c0,4.427,3.588,8.017,8.017,8.017H332.96c4.428,0,8.017-3.589,8.017-8.017    c0-4.427-3.588-8.017-8.017-8.017h-35.112l-3.716-78.029h175.646c23.281,0,42.221-18.941,42.221-42.221V144.835    c0-4.427-3.588-8.017-8.017-8.017c-4.428,0-8.017,3.589-8.017,8.017v205.762H127.733c-4.428,0-8.017,3.589-8.017,8.017    s3.588,8.017,8.017,8.017h368.234v9.086c0,14.44-11.747,26.188-26.188,26.188H42.221c-14.441,0-26.188-11.748-26.188-26.188    v-9.112c0.177,0.012,0.354,0.027,0.534,0.027h68.409c4.428,0,8.017-3.589,8.017-8.017s-3.588-8.017-8.017-8.017H16.568    c-0.181,0-0.357,0.015-0.534,0.027V67.34h479.933v34.739C495.967,106.507,499.555,110.096,503.983,110.096z M233.918,417.937    h44.164l3.717,78.029h-51.596L233.918,417.937z M16.033,51.307v-9.086c0-14.44,11.747-26.188,26.188-26.188h427.557    c14.441,0,26.188,11.748,26.188,26.188v9.086H16.033z"/>
	</g>
</g>
<g>
	<g>
		<path d="M264.551,376.251h-17.102c-4.428,0-8.017,3.589-8.017,8.017c0,4.427,3.588,8.017,8.017,8.017h17.102    c4.428,0,8.017-3.589,8.017-8.017C272.568,379.84,268.98,376.251,264.551,376.251z"/>
	</g>
</g>
<g>
	<g>
		<path d="M401.372,136.817c-27.995,0-50.775,22.778-50.775,50.773c0,25.268,18.556,46.278,42.756,50.133v53.015h-20.141    l-15.44-54.044c-0.978-3.423-4.096-5.79-7.655-5.814c-0.019,0-0.035,0-0.053,0c-3.539,0-6.66,2.321-7.679,5.713l-19.307,64.356    l-16.953-39.557c-1.128-2.631-3.572-4.461-6.414-4.802c-2.837-0.339-5.65,0.859-7.368,3.15l-23.248,30.998h-7.047l-15.44-54.044    c-0.978-3.423-4.096-5.79-7.655-5.814c-0.019,0-0.035,0-0.053,0c-3.539,0-6.66,2.321-7.679,5.713l-18.376,61.257l-9.095-27.284    c-0.968-2.905-3.506-5.005-6.542-5.411c-3.026-0.406-6.035,0.951-7.733,3.499l-14.722,22.082h-21.897v-43.825h0.534    c32.711,0,59.324-26.612,59.324-59.324v-44.609c9.93-3.354,17.102-12.752,17.102-23.8c0-13.851-11.268-25.119-25.119-25.119    s-25.119,11.268-25.119,25.119c0,11.048,7.172,20.446,17.102,23.8v44.609c0,23.871-19.42,43.29-43.29,43.29h-17.102    c-23.871,0-43.29-19.42-43.29-43.29v-44.609c9.93-3.354,17.102-12.752,17.102-23.8c0-13.851-11.268-25.119-25.119-25.119    s-25.119,11.268-25.119,25.119c0,11.048,7.172,20.446,17.102,23.8v44.609c0,32.711,26.612,59.324,59.324,59.324h0.534v51.841    c0,4.427,3.588,8.017,8.017,8.017h34.205c2.681,0,5.184-1.339,6.67-3.57l8.01-12.015l11.918,35.757    c1.105,3.317,4.238,5.535,7.727,5.48c3.495-0.052,6.553-2.364,7.557-5.712l17.787-59.29l9.582,33.537    c0.984,3.442,4.129,5.814,7.709,5.814h17.102c2.523,0,4.9-1.188,6.413-3.207l17.334-23.112l20.191,47.114    c1.269,2.96,4.175,4.858,7.367,4.858c0.152,0,0.304-0.004,0.456-0.013c3.367-0.191,6.256-2.47,7.225-5.7l17.787-59.29    l9.582,33.537c0.984,3.442,4.129,5.814,7.709,5.814h34.205c4.428,0,8.017-3.589,8.017-8.017v-61.032    c24.2-3.855,42.756-24.866,42.756-50.133C452.144,159.594,429.367,136.817,401.372,136.817z M195.608,119.182    c0-5.01,4.076-9.086,9.086-9.086s9.086,4.076,9.086,9.086s-4.076,9.086-9.086,9.086S195.608,124.192,195.608,119.182z     M84.977,128.267c-5.01,0-9.086-4.076-9.086-9.086s4.076-9.086,9.086-9.086s9.086,4.076,9.086,9.086    S89.987,128.267,84.977,128.267z M401.37,222.33c-19.156,0-34.739-15.584-34.739-34.739c0-19.155,15.583-34.739,34.739-34.739    c19.156,0,34.739,15.584,34.739,34.739C436.109,206.745,420.525,222.33,401.37,222.33z"/>
	</g>
</g>
<g>
	<g>
		<path d="M401.37,162.472c-13.851,0-25.119,11.268-25.119,25.119s11.268,25.119,25.119,25.119    c13.851,0,25.119-11.268,25.119-25.119S415.22,162.472,401.37,162.472z M401.37,196.676c-5.01,0-9.086-4.076-9.086-9.086    s4.076-9.086,9.086-9.086c5.01,0,9.086,4.076,9.086,9.086S406.379,196.676,401.37,196.676z"/>
	</g>
</g>
<g>
</g>
<g>
</g>
<g>
</g>
<g>
</g>
<g>
</g>
<g>
</g>
<g>
</g>
<g>
</g>
<g>
</g>
<g>
</g>
<g>
</g>
<g>
</g>
<g>
</g>
<g>
</g>
<g>
</g>
</svg>
