<?xml version="1.0" encoding="iso-8859-1"?>
<!-- Generator: Adobe Illustrator 19.0.0, SVG Export Plug-In . SVG Version: 6.00 Build 0)  -->
<svg xmlns="http://www.w3.org/2000/svg" xmlns:xlink="http://www.w3.org/1999/xlink" version="1.1" id="Layer_1" x="0px" y="0px" viewBox="0 0 512 512" style="enable-background:new 0 0 512 512;" xml:space="preserve">
<g>
	<g>
		<path d="M204.693,200.952c-18.566,0-33.67,15.105-33.67,33.67s15.105,33.67,33.67,33.67s33.67-15.105,33.67-33.67    S223.259,200.952,204.693,200.952z M204.693,252.259c-9.726,0-17.637-7.912-17.637-17.637s7.911-17.637,17.637-17.637    s17.637,7.912,17.637,17.637S214.419,252.259,204.693,252.259z"/>
	</g>
</g>
<g>
	<g>
		<path d="M503.983,362.355c4.428,0,8.017-3.589,8.017-8.017V123.457c0-9.136-7.432-16.568-16.568-16.568h-9.086V29.395    c0-4.427-3.588-8.017-8.017-8.017h-35.67c-2.603,0-5.043,1.263-6.546,3.388c-1.502,2.125-1.88,4.846-1.012,7.301    c0.668,1.891,1.007,3.869,1.007,5.879c0,9.725-7.912,17.637-17.637,17.637c-9.725,0-17.637-7.912-17.637-17.637    c0-2.011,0.339-3.988,1.007-5.879c0.868-2.453,0.49-5.176-1.012-7.301c-1.503-2.125-3.943-3.388-6.546-3.388H50.772    c-4.428,0-8.017,3.589-8.017,8.017v26.188H25.119C11.268,55.582,0,66.851,0,80.701v292.204c0,3.386,2.204,6.475,5.406,7.578    c1.663,0.573,3.443,0.564,5.115,0.035c1.987-0.627,3.95-1.062,6.047-1.062c9.726,0,17.637,7.912,17.637,17.637    s-7.911,17.637-17.637,17.637c-2.03,0-3.952-0.398-5.878-1.007c-1.743-0.55-3.54-0.621-5.285-0.02    C2.204,414.807,0,417.896,0,421.282v52.772c0,9.136,7.432,16.568,16.568,16.568h478.864c9.136,0,16.568-7.432,16.568-16.568    v-68.409c0-4.427-3.588-8.017-8.017-8.017c-9.726,0-17.637-7.912-17.637-17.637S494.257,362.355,503.983,362.355z M58.789,37.411    h326.017c-0.003,0.179-0.004,0.356-0.004,0.534c0,18.566,15.105,33.67,33.67,33.67c18.566,0,33.67-15.104,33.67-33.67    c0-0.179-0.001-0.356-0.004-0.534h18.175v69.478H279.857c0.824-2.947,1.262-6.004,1.262-9.086c0-18.566-15.105-33.67-33.67-33.67    s-33.67,15.105-33.67,33.67c0,3.086,0.431,6.142,1.254,9.086h-27.976V80.701c0-13.851-11.268-25.119-25.119-25.119H58.789V37.411z     M265.086,97.804c0,3.001-0.765,5.961-2.211,8.561c-0.096,0.172-0.176,0.349-0.259,0.525h-30.299    c-0.03-0.053-0.052-0.108-0.083-0.16c-1.584-2.691-2.421-5.777-2.421-8.925c0-9.725,7.912-17.637,17.637-17.637    S265.086,88.079,265.086,97.804z M495.967,412.698v61.357c0,0.295-0.241,0.534-0.534,0.534H16.568    c-0.294,0-0.534-0.239-0.534-0.534V430.76c0.177,0.002,0.356,0.004,0.534,0.004c18.566,0,33.67-15.105,33.67-33.67    c0-18.566-15.104-33.67-33.67-33.67c-0.179,0-0.356,0.001-0.534,0.004V80.701c0-5.01,4.076-9.086,9.086-9.086h136.818    c5.01,0,9.086,4.076,9.086,9.086v34.205c0,4.427,3.588,8.017,8.017,8.017h316.393c0.294,0,0.534,0.239,0.534,0.534v223.828    c-14.709,3.605-25.653,16.901-25.653,32.706S481.258,409.092,495.967,412.698z"/>
	</g>
</g>
<g>
	<g>
		<path d="M84.977,123.992c-18.566,0-33.67,15.105-33.67,33.67s15.105,33.67,33.67,33.67s33.67-15.105,33.67-33.67    S103.543,123.992,84.977,123.992z M84.977,175.299c-9.726,0-17.637-7.912-17.637-17.637s7.911-17.637,17.637-17.637    c9.726,0,17.637,7.912,17.637,17.637S94.703,175.299,84.977,175.299z"/>
	</g>
</g>
<g>
	<g>
		<path d="M391.658,158.119c-11.431-11.242-26.592-17.289-42.605-17.017c-32.154,0.537-58.313,27.524-58.313,60.159v110.855H179.884    c-32.635,0-59.623,26.159-60.159,58.312c-0.268,16.044,5.775,31.175,17.016,42.606c11.243,11.432,26.266,17.729,42.299,17.729    h171.023c32.711,0,59.324-26.612,59.324-59.324V200.418C409.386,184.384,403.089,169.363,391.658,158.119z M393.353,371.44    c0,23.871-19.42,43.29-43.29,43.29H179.04c-11.7,0-22.663-4.595-30.867-12.938c-8.203-8.341-12.613-19.384-12.416-31.096    c0.39-23.359,20.018-42.374,43.818-42.539v26.18c0,4.427,3.588,8.017,8.017,8.017s8.017-3.589,8.017-8.017V328.15h26.722v26.188    c0,4.427,3.588,8.017,8.017,8.017s8.017-3.589,8.017-8.017V328.15h26.722v26.188c0,4.427,3.588,8.017,8.017,8.017    c4.428,0,8.017-3.589,8.017-8.017V328.15h17.637c4.428,0,8.017-3.589,8.017-8.017v-17.637h26.188c4.428,0,8.017-3.589,8.017-8.017    s-3.588-8.017-8.017-8.017h-26.188v-26.722h26.188c4.428,0,8.017-3.589,8.017-8.017s-3.588-8.017-8.017-8.017h-26.188v-42.446    c0-23.941,19.086-43.737,42.547-44.128c11.743-0.189,22.756,4.215,31.096,12.417c8.342,8.205,12.937,19.166,12.937,30.866V371.44z    "/>
	</g>
</g>
<g>
	<g>
		<path d="M332.96,199.883c-4.428,0-8.017,3.589-8.017,8.017v1.069c0,4.427,3.588,8.017,8.017,8.017    c4.428,0,8.017-3.589,8.017-8.017V207.9C340.977,203.472,337.389,199.883,332.96,199.883z"/>
	</g>
</g>
<g>
	<g>
		<path d="M367.165,199.883c-4.428,0-8.017,3.589-8.017,8.017v1.069c0,4.427,3.588,8.017,8.017,8.017    c4.428,0,8.017-3.589,8.017-8.017V207.9C375.182,203.472,371.593,199.883,367.165,199.883z"/>
	</g>
</g>
<g>
</g>
<g>
</g>
<g>
</g>
<g>
</g>
<g>
</g>
<g>
</g>
<g>
</g>
<g>
</g>
<g>
</g>
<g>
</g>
<g>
</g>
<g>
</g>
<g>
</g>
<g>
</g>
<g>
</g>
</svg>
