<?xml version="1.0" encoding="iso-8859-1"?>
<!-- Generator: Adobe Illustrator 19.0.0, SVG Export Plug-In . SVG Version: 6.00 Build 0)  -->
<svg xmlns="http://www.w3.org/2000/svg" xmlns:xlink="http://www.w3.org/1999/xlink" version="1.1" id="Layer_1" x="0px" y="0px" viewBox="0 0 512 512" style="enable-background:new 0 0 512 512;" xml:space="preserve">
<g>
	<g>
		<path d="M503.983,110.096c4.428,0,8.017-3.589,8.017-8.017V42.221C512,18.941,493.059,0,469.779,0H42.221    C18.941,0,0,18.941,0,42.221v333.495c0,23.281,18.941,42.221,42.221,42.221h175.646l-3.716,78.029H179.04    c-4.427,0-8.017,3.589-8.017,8.017c0,4.427,3.589,8.017,8.017,8.017H332.96c4.428,0,8.017-3.589,8.017-8.017    c0-4.427-3.588-8.017-8.017-8.017h-35.112l-3.716-78.029h175.646c23.281,0,42.221-18.941,42.221-42.221V144.835    c0-4.427-3.588-8.017-8.017-8.017c-4.428,0-8.017,3.589-8.017,8.017v205.762H127.733c-4.427,0-8.017,3.589-8.017,8.017    s3.589,8.017,8.017,8.017h368.234v9.086c0,14.44-11.747,26.188-26.188,26.188H42.221c-14.44,0-26.188-11.748-26.188-26.188v-9.086    h68.944c4.427,0,8.017-3.589,8.017-8.017s-3.589-8.017-8.017-8.017H16.033V67.34h231.95c0,0,0.076,112.909,0.206,113.483    c-10.037,3.293-17.309,12.745-17.309,23.869c0,5.692,1.906,10.945,5.108,15.162c-1.139,0.741-2.246,1.547-3.32,2.406    l-23.53-15.687c-3.179-2.12-7.413-1.701-10.115,1.002l-17.102,17.102c-3.131,3.131-3.131,8.207,0,11.337    c3.131,3.131,8.207,3.131,11.337,0l12.455-12.455l16.318,10.878c-2.148,3.494-3.925,7.334-5.279,11.431l-18.076-6.025    c-2.88-0.96-6.057-0.212-8.204,1.937l-17.102,17.102c-2.919,2.918-3.113,7.74-0.427,10.877c2.998,3.501,8.502,3.721,11.763,0.46    l13.6-13.598l15.535,5.179c-0.041,0.912-0.064,1.828-0.064,2.751c0,1.418,0.061,2.82,0.156,4.209l-5.657-2.828    c-3.086-1.544-6.814-0.939-9.253,1.502l-17.102,17.102c-2.919,2.918-3.113,7.74-0.427,10.877c2.998,3.501,8.502,3.721,11.763,0.46    l13.017-13.017l11.934,5.968c0.294,0.148,0.593,0.268,0.896,0.376c7.221,15.566,21.05,26.124,36.895,26.124    s29.674-10.556,36.894-26.124c0.302-0.108,0.602-0.229,0.896-0.376l11.934-5.968l13.016,13.017    c3.261,3.26,8.766,3.041,11.764-0.46c2.686-3.137,2.493-7.959-0.425-10.877l-17.102-17.102c-2.44-2.44-6.169-3.045-9.254-1.502    l-5.657,2.828c0.095-1.39,0.156-2.791,0.156-4.209c0-0.924-0.023-1.84-0.064-2.751l15.536-5.179l13.598,13.598    c3.261,3.26,8.766,3.041,11.764-0.46c2.686-3.137,2.493-7.959-0.425-10.877l-17.102-17.102c-2.147-2.147-5.322-2.896-8.205-1.937    l-18.076,6.025c-1.353-4.097-3.131-7.935-5.279-11.431l16.317-10.878l12.455,12.455c3.132,3.131,8.207,3.131,11.338,0    s3.131-8.207,0-11.337l-17.102-17.102c-2.703-2.702-6.936-3.123-10.116-1.002l-23.531,15.687c-1.074-0.859-2.18-1.665-3.32-2.406    c3.203-4.217,5.108-9.47,5.108-15.162c0-11.124-7.272-20.576-17.309-23.869c0.132-0.574,0.208-113.483,0.208-113.483h231.95    v34.739C495.967,106.507,499.555,110.096,503.983,110.096z M233.919,417.937h44.162l3.717,78.029h-51.594L233.919,417.937z     M282.188,264.551c0,19.155-11.747,34.739-26.188,34.739c-14.44,0-26.188-15.584-26.188-34.739S241.56,229.812,256,229.812    C270.441,229.812,282.188,245.397,282.188,264.551z M265.086,204.693c0,5.01-4.076,9.086-9.086,9.086s-9.086-4.076-9.086-9.086    s4.076-9.086,9.086-9.086S265.086,199.683,265.086,204.693z M16.033,51.307v-9.086c0-14.44,11.748-26.188,26.188-26.188h427.557    c14.441,0,26.188,11.748,26.188,26.188v9.086H16.033z"/>
	</g>
</g>
<g>
	<g>
		<path d="M264.551,376.251h-17.102c-4.427,0-8.017,3.589-8.017,8.017c0,4.427,3.589,8.017,8.017,8.017h17.102    c4.428,0,8.017-3.589,8.017-8.017C272.568,379.84,268.98,376.251,264.551,376.251z"/>
	</g>
</g>
<g>
	<g>
		<path d="M87.763,110.63l11.434-11.434c3.131-3.13,3.131-8.207,0-11.337c-3.131-3.131-8.207-3.131-11.337,0L76.426,99.294    L64.992,87.86c-3.131-3.131-8.207-3.131-11.337,0c-3.131,3.131-3.131,8.207,0,11.337l11.434,11.434l-11.434,11.434    c-2.919,2.918-3.113,7.74-0.427,10.877c2.998,3.501,8.502,3.721,11.763,0.46l11.434-11.434l11.434,11.434    c3.26,3.26,8.765,3.041,11.763-0.46c2.687-3.137,2.493-7.959-0.426-10.877L87.763,110.63z"/>
	</g>
</g>
<g>
	<g>
		<path d="M429.81,179.04l11.434-11.434c3.13-3.13,3.13-8.207,0-11.337c-3.132-3.131-8.207-3.131-11.338,0l-11.434,11.433    l-11.433-11.433c-3.132-3.131-8.207-3.131-11.338,0s-3.131,8.207,0,11.337l11.434,11.434l-11.434,11.434    c-2.918,2.918-3.113,7.74-0.425,10.877c2.998,3.502,8.503,3.72,11.764,0.46l11.433-11.433l11.433,11.433    c3.261,3.26,8.766,3.041,11.764-0.46c2.686-3.137,2.493-7.959-0.425-10.877L429.81,179.04z"/>
	</g>
</g>
<g>
	<g>
		<path d="M139.069,290.205l11.434-11.434c3.131-3.13,3.131-8.207,0-11.337c-3.131-3.131-8.207-3.131-11.337,0l-11.434,11.434    l-11.434-11.434c-3.131-3.131-8.207-3.131-11.337,0c-3.131,3.131-3.131,8.207,0,11.337l11.434,11.434l-11.434,11.434    c-2.919,2.918-3.113,7.74-0.427,10.877c2.998,3.501,8.502,3.721,11.763,0.46l11.434-11.434l11.434,11.434    c3.261,3.261,8.765,3.041,11.763-0.46c2.687-3.137,2.493-7.959-0.427-10.877L139.069,290.205z"/>
	</g>
</g>
<g>
</g>
<g>
</g>
<g>
</g>
<g>
</g>
<g>
</g>
<g>
</g>
<g>
</g>
<g>
</g>
<g>
</g>
<g>
</g>
<g>
</g>
<g>
</g>
<g>
</g>
<g>
</g>
<g>
</g>
</svg>
