<?xml version="1.0" encoding="iso-8859-1"?>
<!-- Generator: Adobe Illustrator 19.0.0, SVG Export Plug-In . SVG Version: 6.00 Build 0)  -->
<svg xmlns="http://www.w3.org/2000/svg" xmlns:xlink="http://www.w3.org/1999/xlink" version="1.1" id="Layer_1" x="0px" y="0px" viewBox="0 0 512 512" style="enable-background:new 0 0 512 512;" xml:space="preserve">
<g>
	<g>
		<path d="M469.779,111.165H435.04V93.528c0-4.427-3.589-8.017-8.017-8.017h-51.307c-4.427,0-8.017,3.589-8.017,8.017v17.637    h-21.536l-31.897-55.819c-1.427-2.498-4.083-4.039-6.96-4.039H204.693c-2.876,0-5.533,1.541-6.961,4.039l-31.896,55.819h-21.536    V93.528c0-4.427-3.589-8.017-8.017-8.017H84.977c-4.427,0-8.017,3.589-8.017,8.017v17.637H42.221    C18.941,111.165,0,130.106,0,153.386v265.086c0,23.281,18.941,42.221,42.221,42.221h51.307c4.427,0,8.017-3.589,8.017-8.017    c0-4.427-3.589-8.017-8.017-8.017H42.221c-14.44,0-26.188-11.748-26.188-26.188V153.386c0-14.44,11.748-26.188,26.188-26.188    h427.557c14.44,0,26.188,11.748,26.188,26.188v51.307c0,4.427,3.589,8.017,8.017,8.017c4.427,0,8.017-3.589,8.017-8.017v-51.307    C512,130.106,493.059,111.165,469.779,111.165z M128.267,111.165H92.994v-9.62h35.273V111.165z M217.664,111.165l9.086-18.171    h58.499l9.086,18.171H217.664z M312.261,111.165l-14.886-29.773c-1.358-2.716-4.133-4.432-7.17-4.432h-68.409    c-3.037,0-5.813,1.716-7.17,4.432l-14.886,29.773h-15.436l25.043-43.825h93.309l25.043,43.825H312.261z M419.006,111.165h-35.273    v-9.62h35.273V111.165z"/>
	</g>
</g>
<g>
	<g>
		<path d="M503.983,239.432c-4.427,0-8.017,3.589-8.017,8.017v171.023c0,14.44-11.748,26.188-26.188,26.188H136.284    c-4.427,0-8.017,3.589-8.017,8.017c0,4.427,3.589,8.017,8.017,8.017h333.495c23.281,0,42.221-18.941,42.221-42.221V247.449    C512,243.021,508.411,239.432,503.983,239.432z"/>
	</g>
</g>
<g>
	<g>
		<path d="M358.614,239.432h-60.392V179.04c0-4.427-3.589-8.017-8.017-8.017h-68.409c-4.427,0-8.017,3.589-8.017,8.017v60.392    h-60.392c-4.427,0-8.017,3.589-8.017,8.017v68.409c0,4.427,3.589,8.017,8.017,8.017h60.392v60.392    c0,4.427,3.589,8.017,8.017,8.017h68.409c4.427,0,8.017-3.589,8.017-8.017v-60.392h60.392c4.427,0,8.017-3.589,8.017-8.017    v-68.409C366.63,243.021,363.041,239.432,358.614,239.432z M350.597,307.841h-60.393c-4.427,0-8.017,3.589-8.017,8.017v60.393    h-52.376v-60.393c0-4.427-3.589-8.017-8.017-8.017h-60.392v-52.376h60.392c4.427,0,8.017-3.589,8.017-8.017v-60.392h52.376v60.392    c0,4.427,3.589,8.017,8.017,8.017h60.393V307.841z"/>
	</g>
</g>
<g>
</g>
<g>
</g>
<g>
</g>
<g>
</g>
<g>
</g>
<g>
</g>
<g>
</g>
<g>
</g>
<g>
</g>
<g>
</g>
<g>
</g>
<g>
</g>
<g>
</g>
<g>
</g>
<g>
</g>
</svg>
