<?xml version="1.0" encoding="iso-8859-1"?>
<!-- Generator: Adobe Illustrator 19.0.0, SVG Export Plug-In . SVG Version: 6.00 Build 0)  -->
<svg xmlns="http://www.w3.org/2000/svg" xmlns:xlink="http://www.w3.org/1999/xlink" version="1.1" id="Layer_1" x="0px" y="0px" viewBox="0 0 512 512" style="enable-background:new 0 0 512 512;" xml:space="preserve">
<g>
	<g>
		<path d="M247.449,25.662c-13.851,0-25.119,11.268-25.119,25.119S233.598,75.9,247.449,75.9s25.119-11.268,25.119-25.119    C272.568,36.93,261.3,25.662,247.449,25.662z M247.449,59.867c-5.01,0-9.086-4.076-9.086-9.086s4.076-9.086,9.086-9.086    s9.086,4.076,9.086,9.086S252.459,59.867,247.449,59.867z"/>
	</g>
</g>
<g>
	<g>
		<path d="M316.393,25.662c-13.851,0-25.119,11.268-25.119,25.119S302.542,75.9,316.393,75.9c13.851,0,25.119-11.268,25.119-25.119    C341.511,36.93,330.243,25.662,316.393,25.662z M316.393,59.867c-5.01,0-9.086-4.076-9.086-9.086s4.076-9.086,9.086-9.086    c5.01,0,9.086,4.076,9.086,9.086S321.402,59.867,316.393,59.867z"/>
	</g>
</g>
<g>
	<g>
		<path d="M384.267,25.662c-13.851,0-25.119,11.268-25.119,25.119S370.417,75.9,384.267,75.9c13.851,0,25.119-11.268,25.119-25.119    S398.118,25.662,384.267,25.662z M384.267,59.867c-5.01,0-9.086-4.076-9.086-9.086s4.076-9.086,9.086-9.086    c5.01,0,9.086,4.076,9.086,9.086S389.277,59.867,384.267,59.867z"/>
	</g>
</g>
<g>
	<g>
		<path d="M307.307,136.827H136.284c-4.428,0-8.017,3.589-8.017,8.017v42.756c0,4.427,3.588,8.017,8.017,8.017h171.023    c4.428,0,8.017-3.589,8.017-8.017v-42.756C315.324,140.416,311.735,136.827,307.307,136.827z M299.29,179.583h-154.99V152.86    h154.99V179.583z"/>
	</g>
</g>
<g>
	<g>
		<path d="M171.557,158.205h-1.069c-4.428,0-8.017,3.589-8.017,8.017s3.588,8.017,8.017,8.017h1.069    c4.428,0,8.017-3.589,8.017-8.017S175.986,158.205,171.557,158.205z"/>
	</g>
</g>
<g>
	<g>
		<path d="M205.762,158.205h-1.069c-4.428,0-8.017,3.589-8.017,8.017s3.588,8.017,8.017,8.017h1.069    c4.428,0,8.017-3.589,8.017-8.017S210.19,158.205,205.762,158.205z"/>
	</g>
</g>
<g>
	<g>
		<path d="M239.967,158.205h-1.069c-4.428,0-8.017,3.589-8.017,8.017s3.588,8.017,8.017,8.017h1.069    c4.428,0,8.017-3.589,8.017-8.017S244.395,158.205,239.967,158.205z"/>
	</g>
</g>
<g>
	<g>
		<path d="M274.171,158.205h-1.069c-4.428,0-8.017,3.589-8.017,8.017s3.588,8.017,8.017,8.017h1.069    c4.428,0,8.017-3.589,8.017-8.017S278.6,158.205,274.171,158.205z"/>
	</g>
</g>
<g>
	<g>
		<path d="M503.983,307.85c4.428,0,8.017-3.589,8.017-8.017v-78.029c0-3.632-2.441-6.81-5.951-7.746l-62.459-16.654V16.576    c0-9.136-7.432-16.568-16.568-16.568H16.568C7.432,0.009,0,7.441,0,16.576v290.739c0,9.136,7.432,16.568,16.568,16.568h222.864    v86.046c0,2.554,1.218,4.954,3.275,6.465l128.267,94.063c2.79,2.046,6.691,2.047,9.482,0l128.267-94.063    c2.059-1.51,3.275-3.911,3.275-6.465v-67.34c0-4.427-3.588-8.017-8.017-8.017c-4.428,0-8.017,3.589-8.017,8.017v63.279    l-120.25,88.184l-120.251-88.184V227.963l120.251-32.067l120.25,32.067v71.869C495.967,304.261,499.555,307.85,503.983,307.85z     M239.432,256.543h-95.131v-26.722h95.131V256.543z M427.557,85.521h-69.3c-4.428,0-8.017,3.589-8.017,8.017    s3.588,8.017,8.017,8.017h69.3v91.573l-49.775-13.273c-1.353-0.361-2.779-0.361-4.132,0l-128.179,34.181    c-0.623-0.155-1.272-0.247-1.943-0.247H136.284c-4.428,0-8.017,3.589-8.017,8.017v42.756c0,4.427,3.588,8.017,8.017,8.017h103.148    v35.273H16.568c-0.294,0-0.534-0.239-0.534-0.534V101.555h298.043c4.428,0,8.017-3.589,8.017-8.017s-3.588-8.017-8.017-8.017    H16.033V16.578c0-0.295,0.241-0.534,0.534-0.534h410.455c0.294,0,0.534,0.239,0.534,0.534V85.521z"/>
	</g>
</g>
<g>
	<g>
		<path d="M375.716,239.441c-32.711,0-59.324,26.612-59.324,59.324c0,32.711,26.612,59.324,59.324,59.324    c32.711,0,59.324-26.612,59.324-59.324C435.04,266.053,408.427,239.441,375.716,239.441z M375.716,342.055    c-23.87,0-43.29-19.42-43.29-43.29s19.42-43.29,43.29-43.29c23.871,0,43.29,19.42,43.29,43.29S399.587,342.055,375.716,342.055z"/>
	</g>
</g>
<g>
	<g>
		<path d="M409.921,359.157h-68.409c-23.28,0-42.221,18.941-42.221,42.221v25.653c0,4.427,3.588,8.017,8.017,8.017    c4.428,0,8.017-3.589,8.017-8.017v-25.653c0-14.44,11.747-26.188,26.188-26.188h68.409c14.441,0,26.188,11.748,26.188,26.188    v25.653c0,4.427,3.588,8.017,8.017,8.017c4.428,0,8.017-3.589,8.017-8.017v-25.653    C452.142,378.098,433.201,359.157,409.921,359.157z"/>
	</g>
</g>
<g>
</g>
<g>
</g>
<g>
</g>
<g>
</g>
<g>
</g>
<g>
</g>
<g>
</g>
<g>
</g>
<g>
</g>
<g>
</g>
<g>
</g>
<g>
</g>
<g>
</g>
<g>
</g>
<g>
</g>
</svg>
