<?xml version="1.0" encoding="iso-8859-1"?>
<!-- Generator: Adobe Illustrator 19.0.0, SVG Export Plug-In . SVG Version: 6.00 Build 0)  -->
<svg xmlns="http://www.w3.org/2000/svg" xmlns:xlink="http://www.w3.org/1999/xlink" version="1.1" id="Layer_1" x="0px" y="0px" viewBox="0 0 511.999 511.999" style="enable-background:new 0 0 511.999 511.999;" xml:space="preserve">
<g>
	<g>
		<path d="M221.795,333.495c-13.851,0-25.119,11.268-25.119,25.119c0,13.851,11.268,25.119,25.119,25.119    s25.119-11.268,25.119-25.119C246.914,344.763,235.646,333.495,221.795,333.495z M221.795,367.699    c-5.01,0-9.086-4.076-9.086-9.086c0-5.01,4.076-9.086,9.086-9.086s9.086,4.076,9.086,9.086    C230.881,363.624,226.805,367.699,221.795,367.699z"/>
	</g>
</g>
<g>
	<g>
		<path d="M290.205,333.495c-13.851,0-25.119,11.268-25.119,25.119c0,13.851,11.268,25.119,25.119,25.119    c13.851,0,25.119-11.268,25.119-25.119C315.324,344.763,304.055,333.495,290.205,333.495z M290.205,367.699    c-5.01,0-9.086-4.076-9.086-9.086c0-5.01,4.076-9.086,9.086-9.086c5.01,0,9.086,4.076,9.086,9.086    C299.29,363.624,295.215,367.699,290.205,367.699z"/>
	</g>
</g>
<g>
	<g>
		<path d="M326.791,259.414c-20.167-19.416-46.729-29.536-74.758-28.458c-26.545,1.008-51.336,12.234-69.809,31.607    c-18.461,19.363-28.512,44.661-28.299,71.231c0.263,32.818,16.163,63.24,42.753,82.24v10.988c0,9.136,7.432,16.568,16.568,16.568    h85.511c9.136,0,16.568-7.432,16.568-16.568v-10.987c26.854-19.181,42.756-49.915,42.756-83.076    C358.079,304.959,346.967,278.84,326.791,259.414z M302.928,405.088c-2.269,1.479-3.637,4.006-3.637,6.715v15.22    c0,0.295-0.241,0.534-0.534,0.534h-9.112c0.012-0.177,0.027-0.354,0.027-0.534v-8.551c0-4.427-3.588-8.017-8.017-8.017    c-4.428,0-8.017,3.589-8.017,8.017v8.551c0,0.181,0.015,0.357,0.027,0.534h-9.673c0.012-0.177,0.027-0.354,0.027-0.534v-8.551    c0-4.427-3.588-8.017-8.017-8.017c-4.428,0-8.017,3.589-8.017,8.017v8.551c0,0.181,0.015,0.357,0.027,0.534h-9.674    c0.012-0.177,0.027-0.354,0.027-0.534v-8.551c0-4.427-3.588-8.017-8.017-8.017c-4.428,0-8.017,3.589-8.017,8.017v8.551    c0,0.181,0.015,0.357,0.027,0.534h-9.112c-0.294,0-0.534-0.239-0.534-0.534v-15.219c0-2.71-1.368-5.235-3.637-6.715    c-24.261-15.82-38.883-42.519-39.115-71.421c-0.37-46.054,36.721-84.943,82.682-86.688c1.134-0.043,2.261-0.064,3.388-0.064    c22.389,0,43.458,8.469,59.643,24.05c17.008,16.375,26.376,38.391,26.376,61.996C342.046,362.153,327.422,389.117,302.928,405.088    z"/>
	</g>
</g>
<g>
	<g>
		<path d="M443.065,154.444c-16.453-16.452-34.885-30.639-54.782-42.164c-3.829-2.218-8.735-0.913-10.955,2.918    c-2.219,3.831-0.913,8.736,2.919,10.955c18.691,10.827,36.011,24.16,51.481,39.628c3.506,3.506,3.495,9.343-0.001,12.849    c-3.495,3.506-9.351,3.497-12.848,0C375.373,135.125,317.528,111.165,256,111.165s-119.373,23.96-162.88,67.468    c-3.505,3.507-9.343,3.494-12.849-0.001c-3.507-3.496-3.497-9.352,0.001-12.849C127.211,118.844,189.619,92.994,256,92.994    c28.484,0,56.359,4.735,82.847,14.074c4.179,1.473,8.755-0.719,10.226-4.896c1.472-4.175-0.719-8.754-4.896-10.226    C315.971,82.002,286.305,76.96,256,76.96c-70.664,0-137.098,27.518-187.065,77.484c-4.745,4.745-7.358,11.052-7.358,17.762    c0,6.709,2.612,13.018,7.357,17.762c4.745,4.744,11.052,7.357,17.762,7.357c0,0,0,0,0.001,0c6.708,0,13.017-2.612,17.761-7.357    c40.479-40.478,94.297-62.77,151.542-62.77s111.063,22.292,151.541,62.771c4.744,4.744,11.052,7.357,17.762,7.357    c6.709,0,13.018-2.613,17.761-7.357c4.745-4.745,7.358-11.052,7.358-17.763C450.422,165.497,447.81,159.189,443.065,154.444z"/>
	</g>
</g>
<g>
	<g>
		<path d="M491.439,97.523C428.552,34.634,344.937,0,256,0c-52.504,0-102.622,11.774-148.961,34.996    c-3.958,1.983-5.558,6.8-3.575,10.758c1.984,3.958,6.798,5.56,10.758,3.576C158.311,27.235,206.012,16.033,256,16.033    c84.655,0,164.242,32.966,224.101,92.827c3.505,3.505,3.495,9.342,0,12.848c-3.496,3.507-9.351,3.497-12.849,0    C410.826,65.281,335.801,34.205,256,34.205S101.174,65.281,44.747,121.708c-3.505,3.505-9.342,3.495-12.849,0    c-3.506-3.496-3.497-9.352,0.001-12.849C44.51,96.247,58.198,84.654,72.584,74.402c3.605-2.57,4.445-7.575,1.876-11.181    c-2.568-3.604-7.575-4.448-11.181-1.875c-15.108,10.767-29.48,22.937-42.717,36.176c-4.745,4.745-7.358,11.052-7.358,17.763    c0,6.709,2.612,13.017,7.357,17.762c4.745,4.745,11.052,7.357,17.762,7.357c6.709,0,13.018-2.612,17.762-7.357    C109.484,79.646,180.482,50.238,256,50.238s146.516,29.409,199.914,82.807c4.744,4.745,11.052,7.358,17.762,7.358    c6.708,0,13.017-2.612,17.761-7.356c4.745-4.745,7.358-11.052,7.358-17.762C498.795,108.575,496.182,102.266,491.439,97.523z"/>
	</g>
</g>
<g>
	<g>
		<path d="M401.937,226.722c-0.547-5.784-3.137-11.246-7.244-15.351c-37.047-37.048-86.302-57.45-138.693-57.45    s-101.646,20.402-138.692,57.449c-4.745,4.744-7.358,11.052-7.358,17.762s2.612,13.018,7.357,17.761    c4.744,4.745,11.052,7.358,17.762,7.358c6.709,0,13.018-2.613,17.762-7.358c27.558-27.557,64.198-42.733,103.17-42.733    s75.611,15.176,103.17,42.733c7.444,7.445,19.104,9.467,28.61,4.909C397.209,247.28,402.92,237.118,401.937,226.722z     M383.354,235.556c-3.502,3.501-9.346,3.501-12.848,0C339.921,204.97,299.255,188.125,256,188.125s-83.921,16.845-114.507,47.431    c-3.506,3.506-9.342,3.495-12.849-0.001c-3.506-3.495-3.497-9.352,0.001-12.848c34.019-34.019,79.247-52.753,127.355-52.753    s93.337,18.734,127.355,52.753C386.858,226.208,386.856,232.056,383.354,235.556z"/>
	</g>
</g>
<g>
	<g>
		<path d="M343.456,487.655l-54.402-13.601l54.402-13.601c4.296-1.074,6.906-5.427,5.833-9.722    c-1.074-4.296-5.429-6.906-9.723-5.833l-7.141,1.785v-2.559c0-4.427-3.588-8.017-8.017-8.017c-4.428,0-8.017,3.589-8.017,8.017    v6.567l-60.393,15.098l-60.391-15.098v-6.567c0-4.427-3.588-8.017-8.017-8.017s-8.017,3.589-8.017,8.017v2.559l-7.141-1.785    c-4.295-1.073-8.647,1.537-9.723,5.833c-1.073,4.295,1.537,8.647,5.833,9.722l54.402,13.601l-54.402,13.601    c-4.123,1.03-6.776,5.262-5.901,9.421c0.922,4.389,5.436,7.224,9.791,6.132l7.141-1.785v2.559c0,4.427,3.588,8.017,8.017,8.017    c4.428,0,8.017-3.589,8.017-8.017v-6.567L256,482.317l60.393,15.098v6.567c0,4.427,3.588,8.017,8.017,8.017    c4.428,0,8.017-3.589,8.017-8.017v-2.559l7.141,1.785c4.356,1.089,8.869-1.742,9.791-6.132    C350.233,492.916,347.579,488.685,343.456,487.655z"/>
	</g>
</g>
<g>
</g>
<g>
</g>
<g>
</g>
<g>
</g>
<g>
</g>
<g>
</g>
<g>
</g>
<g>
</g>
<g>
</g>
<g>
</g>
<g>
</g>
<g>
</g>
<g>
</g>
<g>
</g>
<g>
</g>
</svg>
