<?xml version="1.0" encoding="iso-8859-1"?>
<!-- Generator: Adobe Illustrator 19.0.0, SVG Export Plug-In . SVG Version: 6.00 Build 0)  -->
<svg xmlns="http://www.w3.org/2000/svg" xmlns:xlink="http://www.w3.org/1999/xlink" version="1.1" id="Layer_1" x="0px" y="0px" viewBox="0 0 512 512" style="enable-background:new 0 0 512 512;" xml:space="preserve">
<g>
	<g>
		<path d="M423.533,87.361h71.326c4.581,0,8.294-3.713,8.294-8.294c0-4.58-3.712-8.294-8.294-8.294H359.948    c-0.418,0-0.825,0.041-1.225,0.101c-4.825-2.688-9.762-5.197-14.809-7.51V16.587H494.86c4.581,0,8.294-3.713,8.294-8.294    c0-4.58-3.712-8.294-8.294-8.294H17.14c-4.58,0-8.294,3.713-8.294,8.294c0,4.58,3.713,8.294,8.294,8.294h150.946v46.777    c-4.984,2.284-9.861,4.76-14.629,7.409H17.14c-4.58,0-8.294,3.713-8.294,8.294c0,4.58,3.713,8.294,8.294,8.294h71.326v37.045    c0,0.662,0.086,1.303,0.232,1.92c-3.813,4.908-7.419,9.983-10.796,15.22H17.14c-4.58,0-8.294,3.713-8.294,8.294v70.773    c0,4.58,3.713,8.294,8.294,8.294h28.82c-1.139,8.874-1.727,17.917-1.727,27.094s0.588,18.22,1.727,27.093H17.14    c-4.58,0-8.294,3.713-8.294,8.294v70.773c0,4.58,3.713,8.294,8.294,8.294h60.762c3.329,5.162,6.882,10.166,10.634,15.008    c-0.041,0.337-0.07,0.678-0.07,1.026v38.151H17.14c-4.58,0-8.294,3.713-8.294,8.294c0,4.58,3.713,8.294,8.294,8.294h136.317    c4.768,2.651,9.645,5.126,14.629,7.409v46.777H17.14c-4.58,0-8.294,3.713-8.294,8.294c0,4.58,3.713,8.294,8.294,8.294H494.86    c4.581,0,8.294-3.713,8.294-8.294c0-4.58-3.712-8.294-8.294-8.294H343.914v-46.777c4.984-2.284,9.861-4.76,14.629-7.409H494.86    c4.581,0,8.294-3.713,8.294-8.294c0-4.58-3.712-8.294-8.294-8.294h-71.326v-39.257c0-0.003,0-0.008,0-0.011    c3.727-4.815,7.256-9.788,10.564-14.918h60.762c4.581,0,8.294-3.713,8.294-8.294v-70.773c0-4.58-3.712-8.294-8.294-8.294h-28.82    c1.138-8.873,1.727-17.916,1.727-27.093s-0.588-18.22-1.727-27.093h28.82c4.581,0,8.294-3.713,8.294-8.294V149.84    c0-4.58-3.712-8.294-8.294-8.294h-60.762c-3.377-5.237-6.983-10.312-10.796-15.22c0.146-0.617,0.232-1.257,0.232-1.92V87.361z     M406.946,87.361v20.273c-7.17-7.294-14.862-14.072-23.017-20.273H406.946z M184.674,16.587h142.652v40.019    c-22.298-8.001-46.31-12.373-71.326-12.373s-49.028,4.372-71.326,12.373V16.587z M105.054,87.361h23.017    c-8.154,6.201-15.847,12.979-23.017,20.273V87.361z M25.434,212.32v-54.186H68.25c-8.826,16.863-15.447,35.05-19.476,54.186    H25.434z M25.434,353.866V299.68h23.34c4.029,19.135,10.65,37.323,19.476,54.186H25.434z M105.054,424.639v-20.273    c7.17,7.294,14.862,14.072,23.017,20.273H105.054z M327.326,495.413H184.674v-40.019c22.298,8.001,46.31,12.373,71.326,12.373    s49.028-4.372,71.326-12.373V495.413z M406.946,424.639h-23.017c8.154-6.201,15.847-12.979,23.017-20.273V424.639z     M486.566,299.68v54.186H443.75c8.826-16.863,15.447-35.05,19.476-54.186H486.566z M486.566,158.134v54.186h-23.34    c-4.029-19.135-10.65-37.323-19.476-54.186H486.566z M451.179,256c0,107.622-87.558,195.179-195.179,195.179    S60.821,363.622,60.821,256S148.378,60.821,256,60.821S451.179,148.378,451.179,256z"/>
	</g>
</g>
<g>
	<g>
		<path d="M256,79.62c-97.257,0-176.38,79.123-176.38,176.38c0,37.679,11.715,73.628,33.88,103.96    c2.702,3.698,7.891,4.506,11.589,1.804c3.699-2.703,4.506-7.891,1.804-11.589C106.818,322.702,96.207,290.137,96.207,256    c0-88.11,71.682-159.793,159.793-159.793S415.793,167.89,415.793,256S344.111,415.793,256,415.793    c-35.398,0-68.93-11.335-96.973-32.778c-3.637-2.781-8.843-2.088-11.627,1.55c-2.782,3.638-2.088,8.844,1.55,11.627    C179.912,419.867,216.929,432.38,256,432.38c97.256,0,176.38-79.123,176.38-176.38S353.256,79.62,256,79.62z"/>
	</g>
</g>
<g>
	<g>
		<path d="M338.843,226.084c-2.222-4.006-7.271-5.453-11.275-3.228c-4.005,2.223-5.451,7.271-3.228,11.276    c13.528,24.383,20.679,44.181,20.679,57.256c0,49.086-39.934,89.019-89.019,89.019s-89.019-39.935-89.019-89.021    c0-10.891,4.974-26.484,14.462-45.48l24.419,24.764c2.046,2.073,5.032,2.922,7.859,2.237c2.831-0.687,5.093-2.807,5.963-5.587    l39.654-126.892c9.256,11.505,23.935,30.343,38.491,51.467c2.599,3.77,7.762,4.722,11.535,2.122    c3.771-2.6,4.723-7.764,2.123-11.536c-24.287-35.244-48.924-64.269-49.17-64.557c-1.958-2.301-5.016-3.356-7.973-2.751    c-2.96,0.603-5.359,2.769-6.26,5.653l-40.112,128.359l-22.695-23.016c-1.842-1.867-4.459-2.754-7.054-2.391    c-2.596,0.363-4.869,1.933-6.127,4.233c-14.604,26.692-21.702,47.421-21.702,63.374c0,58.232,47.375,105.607,105.607,105.607    s105.607-47.375,105.607-105.607C361.607,275.049,354.161,253.689,338.843,226.084z"/>
	</g>
</g>
<g>
	<g>
		<path d="M263.146,242.943c-1.491-2.53-4.209-4.084-7.146-4.084s-5.655,1.554-7.146,4.084    c-6.101,10.358-36.534,63.076-36.534,83.83c0,24.085,19.595,43.68,43.68,43.68s43.68-19.595,43.68-43.68    C299.68,306.019,269.247,253.302,263.146,242.943z M256,353.866c-14.939,0-27.093-12.154-27.093-27.093    c0-10.481,14.574-40.232,27.093-62.87c12.519,22.633,27.093,52.382,27.093,62.87C283.093,341.712,270.94,353.866,256,353.866z"/>
	</g>
</g>
<g>
</g>
<g>
</g>
<g>
</g>
<g>
</g>
<g>
</g>
<g>
</g>
<g>
</g>
<g>
</g>
<g>
</g>
<g>
</g>
<g>
</g>
<g>
</g>
<g>
</g>
<g>
</g>
<g>
</g>
</svg>
