<?xml version="1.0" encoding="iso-8859-1"?>
<!-- Generator: Adobe Illustrator 19.0.0, SVG Export Plug-In . SVG Version: 6.00 Build 0)  -->
<svg xmlns="http://www.w3.org/2000/svg" xmlns:xlink="http://www.w3.org/1999/xlink" version="1.1" id="Layer_1" x="0px" y="0px" viewBox="0 0 512 512" style="enable-background:new 0 0 512 512;" xml:space="preserve">
<g>
	<g>
		<path d="M392.818,85.511c-21.708,0-42.425,5.693-60.718,16.585C327.729,45.066,279.926,0,221.795,0    c-61.002,0-110.63,49.629-110.63,110.63c0,9.781,1.255,19.366,3.743,28.648c-6.965-1.636-14.112-2.461-21.38-2.461    C41.956,136.818,0,178.775,0,230.347s41.956,93.528,93.528,93.528h34.205c4.427,0,8.017-3.589,8.017-8.017    s-3.589-8.017-8.017-8.017H93.528c-42.731,0-77.495-34.764-77.495-77.495s34.764-77.495,77.495-77.495    c10.802,0,21.277,2.197,31.134,6.528c3.028,1.331,6.563,0.665,8.9-1.676s2.996-5.877,1.66-8.902    c-5.324-12.054-8.023-24.898-8.023-38.171c0-52.161,42.436-94.597,94.597-94.597s94.597,42.436,94.597,94.597    c0,4.077-1.15,8.686,1.875,12.005c2.791,3.062,7.62,3.462,10.877,0.902c18.311-14.387,40.328-21.992,63.674-21.992    c56.876,0,103.148,46.272,103.148,103.148c0,50.686-37.383,93.825-86.58,101.814v-33.405c0-42.141-34.285-76.426-76.426-76.426    c-4.427,0-8.017,3.589-8.017,8.017s3.589,8.017,8.017,8.017c33.3,0,60.393,27.092,60.393,60.392v34.739H170.489    c-4.427,0-8.017,3.589-8.017,8.017s3.589,8.017,8.017,8.017h103.175c-0.012,0.177-0.027,0.354-0.027,0.534v26.188h-9.086    c-13.851,0-25.119,11.268-25.119,25.119v128.267c0,4.427,3.589,8.017,8.017,8.017h119.716c4.427,0,8.017-3.589,8.017-8.017    c0-4.427-3.589-8.017-8.017-8.017H255.466V375.716c0-5.01,4.076-9.086,9.086-9.086h153.921c5.01,0,9.086,4.076,9.086,9.086    v120.251h-17.637c-4.427,0-8.017,3.589-8.017,8.017c0,4.427,3.589,8.017,8.017,8.017h25.653c4.427,0,8.017-3.589,8.017-8.017    V375.716c0-13.851-11.268-25.119-25.119-25.119h-9.086v-27.869c27.029-3.761,51.904-16.674,70.683-36.846    C500.66,263.763,512,234.93,512,204.693C512,138.976,458.535,85.511,392.818,85.511z M393.353,350.597H289.67v-26.188    c0-0.181-0.015-0.357-0.027-0.534h103.709V350.597z"/>
	</g>
</g>
<g>
	<g>
		<path d="M341.511,384.802c-18.566,0-33.67,15.105-33.67,33.67c0,15.804,10.947,29.091,25.653,32.699v18.608    c0,4.427,3.589,8.017,8.017,8.017s8.017-3.589,8.017-8.017V451.17c14.707-3.606,25.653-16.895,25.653-32.699    C375.182,399.906,360.077,384.802,341.511,384.802z M341.511,436.109c-9.725,0-17.637-7.912-17.637-17.637    c0-9.725,7.912-17.637,17.637-17.637s17.637,7.912,17.637,17.637C359.148,428.197,351.236,436.109,341.511,436.109z"/>
	</g>
</g>
<g>
	<g>
		<path d="M307.307,136.818h-68.409c-4.427,0-8.017,3.589-8.017,8.017v26.188h-9.62v-26.188c0-4.427-3.589-8.017-8.017-8.017    h-42.756c-4.427,0-8.017,3.589-8.017,8.017V256c0,4.427,3.589,8.017,8.017,8.017h136.818c4.427,0,8.017-3.589,8.017-8.017v-76.96    v-34.205C315.324,140.408,311.734,136.818,307.307,136.818z M299.29,247.983H178.505v-95.131h26.722v26.188    c0,4.427,3.589,8.017,8.017,8.017h86.046V247.983z M299.29,171.023h-52.376v-18.171h52.376V171.023z"/>
	</g>
</g>
<g>
</g>
<g>
</g>
<g>
</g>
<g>
</g>
<g>
</g>
<g>
</g>
<g>
</g>
<g>
</g>
<g>
</g>
<g>
</g>
<g>
</g>
<g>
</g>
<g>
</g>
<g>
</g>
<g>
</g>
</svg>
