<?xml version="1.0" encoding="iso-8859-1"?>
<!-- Generator: Adobe Illustrator 19.0.0, SVG Export Plug-In . SVG Version: 6.00 Build 0)  -->
<svg xmlns="http://www.w3.org/2000/svg" xmlns:xlink="http://www.w3.org/1999/xlink" version="1.1" id="Layer_1" x="0px" y="0px" viewBox="0 0 512 512" style="enable-background:new 0 0 512 512;" xml:space="preserve">
<g>
	<g>
		<path d="M503.939,445.47L309.573,267.854c19.437-27.66,30.866-61.336,30.866-97.635c0-31.924-8.892-63.046-25.713-90.001    c-2.339-3.75-7.276-4.893-11.027-2.553c-3.75,2.34-4.893,7.278-2.553,11.027c15.233,24.41,23.285,52.601,23.285,81.526    c0,85.033-69.178,154.211-154.211,154.211S16.008,255.252,16.008,170.219S85.186,16.008,170.219,16.008    c39.228,0,76.609,14.74,105.256,41.506c3.229,3.018,8.294,2.846,11.312-0.384c3.018-3.229,2.846-8.294-0.384-11.312    C254.781,16.272,213.52,0,170.219,0C76.36,0,0,76.36,0,170.219s76.36,170.219,170.219,170.219    c36.299,0,69.976-11.429,97.635-30.866l177.616,194.367c9.515,10.413,26.269,10.793,36.247,0.815l23.037-23.037    C514.732,471.742,514.352,454.986,503.939,445.47z M280.548,299.73c6.889-5.877,13.305-12.293,19.183-19.183l56.13,51.292    l-24.021,24.021L280.548,299.73z M493.435,470.398l-23.037,23.037c-3.607,3.607-9.67,3.47-13.111-0.296L342.648,367.688    l25.04-25.04l125.451,114.639C496.907,460.73,497.043,466.79,493.435,470.398z"/>
	</g>
</g>
<g>
	<g>
		<path d="M170.219,42.688c-70.321,0-127.531,57.21-127.531,127.531c0,6.5,0.494,13.031,1.469,19.412    c0.667,4.369,4.746,7.369,9.121,6.703c4.369-0.667,7.371-4.751,6.703-9.121c-0.853-5.584-1.285-11.301-1.285-16.994    c0-61.495,50.029-111.523,111.523-111.523s111.523,50.028,111.523,111.523s-50.028,111.523-111.523,111.523    c-41.422,0-79.211-22.76-98.619-59.398c-2.069-3.906-6.912-5.395-10.819-3.326c-3.906,2.069-5.396,6.913-3.326,10.819    c22.19,41.891,65.399,67.914,112.765,67.914c70.321,0,127.531-57.21,127.531-127.531S240.541,42.688,170.219,42.688z"/>
	</g>
</g>
<g>
	<g>
		<path d="M252.717,181.635l-17.075-17.075c-2.144-2.144-5.315-2.891-8.191-1.934l-18.047,6.016    c-1.351-4.091-3.126-7.923-5.271-11.413l16.292-10.861l12.435,12.435c3.126,3.126,8.194,3.126,11.319,0    c3.126-3.126,3.126-8.194,0-11.319l-17.075-17.075c-2.698-2.698-6.924-3.117-10.099-1l-23.493,15.662    c-1.073-0.858-2.176-1.663-3.315-2.402c3.198-4.21,5.1-9.455,5.1-15.138c0-13.829-11.25-25.079-25.079-25.079    s-25.077,11.25-25.077,25.079c0,5.683,1.903,10.928,5.1,15.138c-1.138,0.74-2.242,1.544-3.315,2.402l-23.492-15.662    c-3.174-2.116-7.401-1.698-10.099,1l-17.075,17.075c-3.126,3.126-3.126,8.194,0,11.319c3.126,3.126,8.194,3.126,11.319,0    l12.435-12.435l16.292,10.861c-2.145,3.489-3.92,7.322-5.271,11.413l-18.046-6.016c-2.876-0.957-6.048-0.21-8.191,1.934    l-17.075,17.075c-2.915,2.914-3.108,7.728-0.426,10.86c2.993,3.495,8.489,3.715,11.745,0.459l13.578-13.577l15.511,5.171    c-0.041,0.91-0.064,1.825-0.064,2.747c0,1.416,0.061,2.815,0.157,4.203l-5.649-2.824c-3.082-1.541-6.803-0.937-9.239,1.499    l-17.075,17.075c-2.915,2.914-3.108,7.728-0.426,10.86c2.994,3.495,8.489,3.715,11.745,0.459l12.996-12.996l11.915,5.958    c0.293,0.147,0.592,0.268,0.894,0.376c7.209,15.542,21.015,26.082,36.836,26.082s29.627-10.541,36.836-26.082    c0.301-0.108,0.601-0.228,0.894-0.376l11.915-5.958l12.996,12.996c3.256,3.256,8.751,3.036,11.745-0.459    c2.683-3.132,2.489-7.946-0.426-10.86l-17.075-17.075c-2.436-2.438-6.159-3.042-9.239-1.499l-5.649,2.824    c0.159-2.315,0.196-4.632,0.093-6.95l15.511-5.171l13.578,13.577c3.256,3.256,8.751,3.036,11.745-0.459    C255.826,189.363,255.632,184.549,252.717,181.635z M170.219,118.46c5.002,0,9.071,4.069,9.071,9.071    c0,5.002-4.069,9.071-9.071,9.071c-5.002,0-9.071-4.069-9.071-9.071C161.148,122.529,165.217,118.46,170.219,118.46z     M170.219,221.979c-14.417,0-26.147-15.56-26.147-34.684s11.73-34.684,26.147-34.684s26.146,15.56,26.146,34.684    S184.636,221.979,170.219,221.979z"/>
	</g>
</g>
<g>
</g>
<g>
</g>
<g>
</g>
<g>
</g>
<g>
</g>
<g>
</g>
<g>
</g>
<g>
</g>
<g>
</g>
<g>
</g>
<g>
</g>
<g>
</g>
<g>
</g>
<g>
</g>
<g>
</g>
</svg>
