<?xml version="1.0" encoding="iso-8859-1"?>
<!-- Generator: Adobe Illustrator 19.0.0, SVG Export Plug-In . SVG Version: 6.00 Build 0)  -->
<svg xmlns="http://www.w3.org/2000/svg" xmlns:xlink="http://www.w3.org/1999/xlink" version="1.1" id="Layer_1" x="0px" y="0px" viewBox="0 0 512.001 512.001" style="enable-background:new 0 0 512.001 512.001;" xml:space="preserve">
<g>
	<g>
		<path d="M496.62,288.569c4.45,0,8.056-3.607,8.056-8.056v-77.342c0-2.384-1.102-4.714-2.942-6.225    c0,0-47.813-39.072-48.619-39.375V48.486c0-4.449-3.606-8.056-8.056-8.056H310.074c-0.491-0.989-1.188-1.895-2.096-2.641    L266.569,3.773c-6.124-5.032-15.014-5.03-21.138,0l-41.093,33.754c-0.987,0.811-1.723,1.811-2.216,2.901h-49.244    c-4.45,0-8.056,3.607-8.056,8.056c0,4.449,3.606,8.056,8.056,8.056h284.125v174.389l-78.416,49.01v-8.023    c0-23.396-19.035-42.431-42.431-42.431h-3.665c13.751-14.845,21.214-34.731,20.229-55.779    c-1.834-39.153-33.941-71.237-73.096-73.042c-21.238-0.98-41.341,6.54-56.661,21.169c-15.328,14.636-23.768,34.366-23.768,55.552    c0,19.585,7.48,38.109,20.387,52.098h-3.737c-23.396,0-42.431,19.035-42.431,42.431v8.023l-78.416-49.01V56.542h34.911    c4.45,0,8.056-3.607,8.056-8.056c0-4.449-3.606-8.056-8.056-8.056H66.942c-4.45,0-8.056,3.607-8.056,8.056v108.987    c-0.73,0.299-48.619,39.472-48.619,39.472c-1.841,1.51-2.942,3.844-2.942,6.225v300.775c0,4.449,3.606,8.056,8.056,8.056h481.217    c4.392,0,8.079-3.656,8.079-8.056V323.479c0-4.449-3.606-8.056-8.056-8.056s-8.056,3.607-8.056,8.056v165.93L271.2,353.558    l217.363-135.852v62.807C488.564,284.962,492.171,288.569,496.62,288.569z M226.193,40.429l29.467-24.205    c0.198-0.161,0.484-0.162,0.682,0l29.467,24.205H226.193z M58.886,177.859v43.001l-29.728-18.58L58.886,177.859z M468.53,495.889    H23.437V217.706L468.53,495.889z M342.474,290.012l-86.473,54.046l-86.474-54.046v-18.094c0-14.511,11.805-26.318,26.318-26.318    h26.871c3.673,0,6.879-2.484,7.8-6.039s-0.681-7.283-3.893-9.064c-19.315-10.711-31.314-31.061-31.314-53.109    c0-16.741,6.671-32.332,18.782-43.9c12.104-11.558,28.002-17.507,44.79-16.725c30.931,1.425,56.294,26.769,57.742,57.698    c1.09,23.273-10.883,44.745-31.245,56.036c-3.212,1.781-4.812,5.508-3.893,9.064s4.127,6.039,7.8,6.039h26.871    c14.512,0,26.318,11.806,26.318,26.318V290.012z M453.115,220.861v-43l29.728,24.42L453.115,220.861z"/>
	</g>
</g>
<g>
	<g>
		<path d="M256,152.145c-18.658,0-33.837,15.179-33.837,33.837c0,4.449,3.606,8.056,8.056,8.056c4.45,0,8.056-3.607,8.056-8.056    c0-9.773,7.951-17.724,17.724-17.724s17.724,7.951,17.724,17.724c0,9.773-7.951,17.724-17.724,17.724    c-4.45,0-8.056,3.607-8.056,8.056v25.781c0,4.449,3.606,8.056,8.056,8.056s8.056-3.607,8.056-8.056v-18.693    c14.782-3.623,25.781-16.985,25.781-32.868C289.837,167.325,274.658,152.145,256,152.145z"/>
	</g>
</g>
<g>
	<g>
		<path d="M256,255.268c-4.45,0-8.056,3.607-8.056,8.056v8.594c0,4.449,3.606,8.056,8.056,8.056s8.056-3.607,8.056-8.056v-8.594    C264.057,258.875,260.451,255.268,256,255.268z"/>
	</g>
</g>
<g>
</g>
<g>
</g>
<g>
</g>
<g>
</g>
<g>
</g>
<g>
</g>
<g>
</g>
<g>
</g>
<g>
</g>
<g>
</g>
<g>
</g>
<g>
</g>
<g>
</g>
<g>
</g>
<g>
</g>
</svg>
