<?xml version="1.0" encoding="iso-8859-1"?>
<!-- Generator: Adobe Illustrator 19.0.0, SVG Export Plug-In . SVG Version: 6.00 Build 0)  -->
<svg xmlns="http://www.w3.org/2000/svg" xmlns:xlink="http://www.w3.org/1999/xlink" version="1.1" id="Layer_1" x="0px" y="0px" viewBox="0 0 512.001 512.001" style="enable-background:new 0 0 512.001 512.001;" xml:space="preserve">
<g>
	<g>
		<path d="M477.642,40.605c-0.853-4.142-4.779-6.906-8.967-6.321c-33.348,4.684-67.123,4.684-100.385,0    c-37.797-5.321-74.387-16.58-108.753-33.463c-2.228-1.095-4.841-1.095-7.069,0C218.1,17.704,181.51,28.963,143.714,34.284    c-33.262,4.683-67.038,4.683-100.385,0c-4.173-0.584-8.113,2.179-8.967,6.321C19.704,111.711,13.897,184.304,17.1,256.368    c2.053,46.207,7.861,92.669,17.26,138.093c0.617,2.981,2.869,5.355,5.813,6.129c31.826,8.369,63.01,19.709,92.686,33.704    c42.32,19.958,82.011,45.474,117.969,75.838c2.951,2.492,7.394,2.492,10.345,0c35.958-30.364,75.649-55.879,117.969-75.838    c29.676-13.996,60.86-25.335,92.686-33.704c2.944-0.774,5.195-3.148,5.813-6.129c9.399-45.425,15.208-91.885,17.26-138.093    C498.104,184.304,492.298,111.711,477.642,40.605z M478.884,255.656c-1.943,43.718-7.31,87.67-15.959,130.72    c-31.1,8.48-61.563,19.711-90.622,33.416c-41.563,19.601-80.656,44.403-116.302,73.775    c-35.646-29.372-74.739-54.174-116.302-73.775c-29.06-13.705-59.523-24.936-90.622-33.416    c-8.649-43.05-14.015-87.001-15.959-130.72c-3.035-68.28,2.17-137.042,15.475-204.518c32.39,3.89,65.101,3.564,97.356-0.977    c38.186-5.376,75.19-16.554,110.052-33.236c34.861,16.682,71.866,27.86,110.052,33.236c32.254,4.542,64.966,4.868,97.356,0.977    C476.714,118.614,481.918,187.376,478.884,255.656z"/>
	</g>
</g>
<g>
	<g>
		<path d="M462.113,213.79c-0.013,0-0.025,0-0.039,0c-4.409,0-7.995,3.564-8.016,7.979c-0.051,10.885-0.322,21.903-0.804,32.748    c-1.654,37.199-5.879,74.704-12.568,111.564c-27.15,8.221-53.813,18.475-79.327,30.508    c-37.159,17.524-72.575,39.113-105.358,64.218c-32.784-25.105-68.201-46.695-105.358-64.218    c-25.515-12.033-52.177-22.285-79.327-30.508c-6.688-36.859-10.914-74.364-12.568-111.564    c-2.602-58.522,1.054-117.607,10.868-175.748c7.991,0.476,16.016,0.716,23.943,0.716c18.67,0,37.5-1.318,55.966-3.919    c36.722-5.17,72.526-15.394,106.475-30.402c33.951,15.008,69.753,25.231,106.475,30.402c18.468,2.601,37.299,3.919,55.966,3.919    c7.927,0,15.953-0.241,23.943-0.716c4.668,27.676,7.974,55.801,9.835,83.711c0.294,4.418,4.119,7.75,8.532,7.466    c4.418-0.295,7.761-4.115,7.466-8.532c-2.06-30.878-5.854-62.012-11.275-92.538c-0.719-4.06-4.4-6.913-8.512-6.592    c-9.97,0.775-20.06,1.168-29.988,1.168c-17.923,0-36.001-1.266-53.73-3.762c-36.405-5.126-71.867-15.425-105.404-30.61    c-2.103-0.952-4.512-0.952-6.615,0c-33.537,15.186-69,25.485-105.404,30.61c-17.727,2.496-35.805,3.762-53.73,3.762    c-9.928,0-20.018-0.393-29.988-1.168c-4.125-0.317-7.794,2.531-8.515,6.591c-10.938,61.58-15.086,124.279-12.326,186.355    c1.758,39.566,6.371,79.472,13.712,118.611c0.556,2.963,2.728,5.365,5.622,6.214c27.99,8.216,55.491,18.658,81.739,31.037    c37.953,17.898,74.039,40.16,107.257,66.167c1.451,1.136,3.196,1.705,4.942,1.705c1.746,0,3.491-0.569,4.943-1.705    c33.216-26.007,69.303-48.269,107.256-66.167c26.248-12.379,53.749-22.821,81.739-31.037c2.894-0.849,5.066-3.251,5.622-6.214    c7.341-39.139,11.955-79.045,13.712-118.611c0.492-11.056,0.769-22.289,0.821-33.383    C470.114,217.418,466.542,213.811,462.113,213.79z"/>
	</g>
</g>
<g>
	<g>
		<path d="M383.682,136.883c-11.462-11.462-30.112-11.462-41.574,0L301.64,177.35c-3.131,3.131-3.131,8.207,0,11.337    c3.132,3.131,8.207,3.131,11.338,0l40.467-40.467c5.209-5.21,13.688-5.21,18.897,0c5.209,5.21,5.209,13.688,0,18.897    L235.518,303.942c-2.523,2.524-5.879,3.913-9.448,3.913s-6.926-1.39-9.448-3.913l-76.964-76.964    c-5.209-5.21-5.209-13.688,0-18.897c5.21-5.21,13.689-5.21,18.898,0l61.846,61.847c1.504,1.504,3.542,2.348,5.67,2.348    c2.127,0,4.165-0.844,5.67-2.348l51.006-51.006c3.131-3.131,3.131-8.207,0-11.337c-3.132-3.131-8.207-3.131-11.338,0    l-45.336,45.337l-56.177-56.178c-11.461-11.461-30.111-11.463-41.574,0c-11.46,11.461-11.46,30.11,0,41.571l76.964,76.964    c5.552,5.552,12.935,8.61,20.787,8.61c7.851,0,15.235-3.057,20.787-8.61l136.825-136.825    C395.142,166.993,395.142,148.345,383.682,136.883z"/>
	</g>
</g>
<g>
</g>
<g>
</g>
<g>
</g>
<g>
</g>
<g>
</g>
<g>
</g>
<g>
</g>
<g>
</g>
<g>
</g>
<g>
</g>
<g>
</g>
<g>
</g>
<g>
</g>
<g>
</g>
<g>
</g>
</svg>
