<?xml version="1.0" encoding="iso-8859-1"?>
<!-- Generator: Adobe Illustrator 19.0.0, SVG Export Plug-In . SVG Version: 6.00 Build 0)  -->
<svg xmlns="http://www.w3.org/2000/svg" xmlns:xlink="http://www.w3.org/1999/xlink" version="1.1" id="Layer_1" x="0px" y="0px" viewBox="0 0 512 512" style="enable-background:new 0 0 512 512;" xml:space="preserve">
<g>
	<g>
		<path d="M512,153.386c0-23.281-18.941-42.221-42.221-42.221c-23.28,0-42.221,18.941-42.221,42.221c0,0.18,0.012,0.356,0.014,0.534    H221.018c-1.845-31.664-14.578-61.553-36.337-84.895c-3.02-3.239-8.091-3.415-11.33-0.398c-3.239,3.02-3.416,8.092-0.398,11.33    c18.982,20.362,30.187,46.372,32.01,73.961h-20.561c-10.351-48.325-49.845-86.498-98.201-93.969    c-0.405-0.062-0.815-0.093-1.224-0.093h-62.15l-4.543-18.171h66.693c22.642,0,44.697,6.324,63.78,18.288    c3.752,2.353,8.699,1.216,11.05-2.534c2.352-3.751,1.217-8.699-2.534-11.05c-21.638-13.566-46.637-20.737-72.296-20.737H8.017    c-5.129,0-9.025,4.977-7.777,9.961l7.988,31.95c-0.016,0.03-0.034,0.058-0.05,0.088C2.751,78.388,0,89.972,0,102.079v94.063    c0,13.851,11.268,25.119,25.119,25.119h25.653c13.851,0,25.119-11.268,25.119-25.119v-26.188h0.534    c14.44,0,26.188,11.748,26.188,26.188v110.586L86.282,419.006h-35.51c-4.427,0-8.017,3.589-8.017,8.017    c0,4.427,3.589,8.017,8.017,8.017h116.703c-3.169,5.133-5.003,11.174-5.003,17.637c0,18.566,15.105,33.67,33.67,33.67    s33.67-15.105,33.67-33.67c0-6.462-1.834-12.504-5.004-17.637h96.588c-3.169,5.133-5.003,11.174-5.003,17.637    c0,18.566,15.105,33.67,33.67,33.67s33.67-15.105,33.67-33.67c0-6.462-1.834-12.504-5.004-17.637h125.253    c4.428,0,8.017-3.589,8.017-8.017c0-4.427-3.588-8.017-8.017-8.017h-51.841V191.733c3.031,1.4,6.254,2.452,9.62,3.102v69.716    c0,23.281,18.941,42.221,42.221,42.221c4.428,0,8.017-3.589,8.017-8.017V157.662c0-0.447-0.046-0.882-0.115-1.308    C511.953,155.372,512,154.385,512,153.386z M145.37,419.006h-42.885l3.965-27.257h38.921V419.006z M196.142,470.313    c-9.725,0-17.637-7.912-17.637-17.637c0-9.725,7.912-17.637,17.637-17.637s17.637,7.912,17.637,17.637    C213.779,462.401,205.867,470.313,196.142,470.313z M350.063,470.313c-9.725,0-17.637-7.912-17.637-17.637    c0-9.725,7.912-17.637,17.637-17.637s17.637,7.912,17.637,17.637C367.699,462.401,359.787,470.313,350.063,470.313z     M385.208,419.006H161.403V315.324h231.346L385.208,419.006z M436.109,419.006h-34.825l1.943-26.722h32.881V419.006z     M436.109,181.177v195.073h-31.715l4.971-68.362c0.333-4.578-3.41-8.598-7.995-8.598H153.386c-4.427,0-8.017,3.589-8.017,8.017    v68.409h-36.588l9.783-67.255c0.056-0.382,0.083-0.767,0.083-1.154V196.142c0-23.281-18.941-42.221-42.221-42.221h-8.551    c-4.427,0-8.017,3.589-8.017,8.017v34.205c0,5.01-4.076,9.086-9.086,9.086H25.119c-5.01,0-9.086-4.076-9.086-9.086v-94.063    c0-9.197,2.026-17.996,5.98-26.188H84.35c43.495,6.993,78.59,42.795,85.458,87.27c0.603,3.909,3.968,6.793,7.923,6.793h53.503    c1.275,14.907,6.111,29.341,14.119,41.979c2.521,3.979,8.107,4.913,11.791,1.961c3.146-2.519,3.909-7.141,1.753-10.543    c-6.386-10.078-10.339-21.536-11.566-33.398h154.15c-4.005,39.333-36.955,69.478-77.07,69.478    c-14.258,0-28.19-3.901-40.292-11.284c-3.777-2.307-8.711-1.111-11.018,2.669c-2.307,3.78-1.111,8.713,2.669,11.019    c14.615,8.917,31.435,13.63,48.64,13.63c24.322,0,47.362-9.289,64.873-26.157c16.443-15.836,26.394-36.779,28.31-59.355h13.356    c1.417,3.309,3.25,6.397,5.426,9.208C436.207,179.807,436.109,180.479,436.109,181.177z M495.967,289.485    c-10.532-3.395-18.171-13.289-18.171-24.934v-69.716c6.77-1.307,12.966-4.237,18.171-8.366V289.485z M469.779,179.574    c-14.441,0-26.188-11.748-26.188-26.188s11.747-26.188,26.188-26.188c14.441,0,26.188,11.748,26.188,26.188    S484.219,179.574,469.779,179.574z"/>
	</g>
</g>
<g>
	<g>
		<path d="M54.357,94.909c-3.958-1.98-8.775-0.375-10.755,3.585l-8.551,17.102c-1.981,3.96-0.375,8.776,3.585,10.755    c1.151,0.576,2.374,0.848,3.579,0.848c2.94,0,5.772-1.625,7.177-4.433l8.551-17.102C59.923,101.704,58.318,96.889,54.357,94.909z"/>
	</g>
</g>
<g>
</g>
<g>
</g>
<g>
</g>
<g>
</g>
<g>
</g>
<g>
</g>
<g>
</g>
<g>
</g>
<g>
</g>
<g>
</g>
<g>
</g>
<g>
</g>
<g>
</g>
<g>
</g>
<g>
</g>
</svg>
