<?xml version="1.0" encoding="iso-8859-1"?>
<!-- Generator: Adobe Illustrator 19.0.0, SVG Export Plug-In . SVG Version: 6.00 Build 0)  -->
<svg xmlns="http://www.w3.org/2000/svg" xmlns:xlink="http://www.w3.org/1999/xlink" version="1.1" id="Layer_1" x="0px" y="0px" viewBox="0 0 512 512" style="enable-background:new 0 0 512 512;" xml:space="preserve">
<g>
	<g>
		<path d="M503.983,110.096c4.427,0,8.017-3.589,8.017-8.017V42.221C512,18.941,493.059,0,469.779,0H42.221    C18.941,0,0,18.941,0,42.221v333.495c0,23.281,18.941,42.221,42.221,42.221h175.646l-3.716,78.029H179.04    c-4.427,0-8.017,3.589-8.017,8.017c0,4.427,3.589,8.017,8.017,8.017H332.96c4.427,0,8.017-3.589,8.017-8.017    c0-4.427-3.589-8.017-8.017-8.017h-35.111l-3.715-78.029h175.645c23.281,0,42.221-18.941,42.221-42.221V144.835    c0-4.427-3.589-8.017-8.017-8.017c-4.427,0-8.017,3.589-8.017,8.017v205.762H16.033V67.34h479.933v34.739    C495.967,106.507,499.556,110.096,503.983,110.096z M230.202,495.967l3.715-78.029h44.162l3.717,78.029H230.202z M495.967,366.63    v9.086c0,14.44-11.748,26.188-26.188,26.188H42.221c-14.44,0-26.188-11.748-26.188-26.188v-9.086H495.967z M16.033,51.307v-9.086    c0-14.44,11.748-26.188,26.188-26.188h427.557c14.44,0,26.188,11.748,26.188,26.188v9.086H16.033z"/>
	</g>
</g>
<g>
	<g>
		<path d="M264.551,376.251h-17.102c-4.427,0-8.017,3.589-8.017,8.017c0,4.427,3.589,8.017,8.017,8.017h17.102    c4.427,0,8.017-3.589,8.017-8.017C272.568,379.84,268.979,376.251,264.551,376.251z"/>
	</g>
</g>
<g>
	<g>
		<path d="M401.112,274.241L291.804,99.345c-7.766-12.426-21.15-19.844-35.804-19.844s-28.037,7.418-35.804,19.844l-25.775,41.24    c-2.346,3.755-1.205,8.701,2.549,11.047c3.756,2.348,8.702,1.205,11.047-2.549l25.775-41.24    c4.816-7.707,13.119-12.308,22.207-12.308s17.391,4.602,22.207,12.308l109.309,174.896c5.12,8.191,5.381,18.126,0.698,26.574    c-4.683,8.45-13.246,13.494-22.905,13.494H146.691c-9.66,0-18.223-5.044-22.905-13.494c-4.683-8.448-4.422-18.383,0.698-26.574    l61.354-98.167c2.346-3.755,1.205-8.701-2.549-11.047c-3.755-2.347-8.701-1.206-11.047,2.549l-61.354,98.167    c-8.254,13.206-8.675,29.224-1.126,42.844c7.55,13.622,21.355,21.754,36.929,21.754h218.619c15.574,0,29.378-8.132,36.928-21.754    C409.787,303.464,409.366,287.447,401.112,274.241z"/>
	</g>
</g>
<g>
	<g>
		<path d="M256,254.397c-13.851,0-25.119,11.268-25.119,25.119s11.268,25.119,25.119,25.119s25.119-11.268,25.119-25.119    C281.119,265.665,269.851,254.397,256,254.397z M256,288.601c-5.01,0-9.086-4.076-9.086-9.086c0-5.01,4.076-9.086,9.086-9.086    s9.086,4.076,9.086,9.086C265.086,284.526,261.01,288.601,256,288.601z"/>
	</g>
</g>
<g>
	<g>
		<path d="M256,123.992c-13.851,0-25.119,11.268-25.119,25.119v85.511c0,4.427,3.589,8.017,8.017,8.017h34.205    c4.427,0,8.017-3.589,8.017-8.017v-85.511C281.119,135.26,269.851,123.992,256,123.992z M265.086,226.605h-18.171v-77.495    c0-5.01,4.076-9.086,9.086-9.086s9.086,4.076,9.086,9.086V226.605z"/>
	</g>
</g>
<g>
</g>
<g>
</g>
<g>
</g>
<g>
</g>
<g>
</g>
<g>
</g>
<g>
</g>
<g>
</g>
<g>
</g>
<g>
</g>
<g>
</g>
<g>
</g>
<g>
</g>
<g>
</g>
<g>
</g>
</svg>
